<svg xmlns="http://www.w3.org/2000/svg" width="600" height="250" viewBox="0 0 600 250"><path fill="#8EC127" d="M27.259 81.25c0-2.9.64-5.413 1.92-7.538 1.28-2.125 3.145-3.188 5.6-3.188h69.12c2.453 0 4.32 1.063 5.6 3.188s1.92 4.638 1.92 7.538c0 3.11-.667 5.725-2 7.85-1.335 2.125-3.175 3.185-5.52 3.185h-22.08v87.468c0 2.47-1.228 4.378-3.68 5.72-2.455 1.343-5.388 2.013-8.8 2.013-3.415 0-6.347-.67-8.8-2.013-2.455-1.342-3.68-3.25-3.68-5.72V92.285h-22.08c-2.347 0-4.188-1.06-5.52-3.185-1.335-2.124-2-4.74-2-7.85zm77.441 98.555v-60.959c0-2.24 1.145-4.052 3.44-5.44 2.292-1.385 5.2-2.08 8.72-2.08 3.093 0 5.705.7 7.84 2.098 2.132 1.397 3.2 3.225 3.2 5.482v5.968c1.705-3.868 4.345-7.253 7.92-10.155 3.573-2.9 7.28-4.353 11.12-4.353h4.64c2.345 0 4.4 1.075 6.16 3.225 1.76 2.15 2.64 4.675 2.64 7.575 0 3.01-.88 5.587-2.64 7.737-1.76 2.15-3.815 3.223-6.16 3.223h-4.64c-4.587 0-8.64 2.208-12.16 6.623s-5.28 10.13-5.28 17.15v23.93c0 1.914-1.255 3.67-3.76 5.265-2.508 1.595-5.468 2.393-8.88 2.393-3.415 0-6.295-.772-8.64-2.319-2.347-1.548-3.52-3.335-3.52-5.363zm66.08-86.47c-2.56-2.18-3.84-4.743-3.84-7.685s1.28-5.48 3.84-7.61c2.56-2.13 5.652-3.195 9.28-3.195 3.52 0 6.56 1.065 9.12 3.195 2.56 2.13 3.84 4.667 3.84 7.61s-1.28 5.505-3.84 7.685c-2.56 2.18-5.6 3.27-9.12 3.27-3.628 0-6.721-1.09-9.28-3.27zm-3.04 86.47v-60.959c0-2.24 1.145-4.052 3.44-5.44 2.292-1.385 5.252-2.08 8.88-2.08 3.52 0 6.48.695 8.88 2.08 2.4 1.388 3.6 3.2 3.6 5.44v60.959c0 1.921-1.228 3.681-3.68 5.281-2.455 1.6-5.387 2.399-8.8 2.399-3.52 0-6.455-.772-8.8-2.319-2.348-1.546-3.52-3.333-3.52-5.361zm39.198 34.72v-95.68c0-2.24 1.145-4.052 3.44-5.44 2.292-1.385 5.093-2.08 8.4-2.08 3.305 0 6.025.7 8.16 2.098 2.133 1.397 3.2 3.225 3.2 5.482v3.71c2.025-3.438 4.96-6.337 8.8-8.702 3.84-2.365 8.105-3.548 12.8-3.548 8 0 14.772 3.28 20.32 9.84 5.545 6.56 8.32 14.48 8.32 23.759v11.201c0 8.959-2.801 16.854-8.4 23.68-5.6 6.827-12.08 10.24-19.439 10.24-4.48 0-8.668-1.264-12.561-3.788-3.895-2.524-6.64-5.56-8.24-9.107v38.319c0 1.923-1.255 3.686-3.76 5.291-2.507 1.602-5.467 2.404-8.88 2.404-3.415 0-6.295-.775-8.64-2.32-2.348-1.546-3.52-3.333-3.52-5.359zm24.8-57.347c0 1.692 1.2 3.808 3.6 6.343 2.4 2.537 5.201 3.805 8.4 3.805 3.093 0 5.84-1.239 8.24-3.725s3.6-5.313 3.6-8.485v-11.098c0-3.064-1.199-5.814-3.6-8.244-2.4-2.431-5.255-3.648-8.56-3.648-3.096 0-5.815 1.086-8.16 3.25-2.348 2.168-3.52 5.048-3.52 8.643v13.159z"/><path fill="#D41243" d="M287.896 168.285c0-2.984 1.093-5.973 3.28-8.96 2.185-2.985 4.72-4.479 7.6-4.479 1.6 0 3.385.646 5.36 1.939a38.609 38.609 0 0 1 5.439 4.301c1.652 1.574 3.973 3.007 6.96 4.299 2.985 1.295 6.133 1.94 9.44 1.94 4.16 0 7.785-.88 10.88-2.64 3.093-1.76 4.64-4.4 4.64-7.92 0-3.521-1.734-6.613-5.199-9.28-3.468-2.665-7.681-5.093-12.641-7.28a203.34 203.34 0 0 1-14.96-7.359c-5.015-2.721-9.255-6.586-12.72-11.601-3.468-5.012-5.2-10.985-5.2-17.92 0-11.307 4-19.76 12-25.36s17.652-8.4 28.96-8.4c2.772 0 5.68.165 8.72.495 3.04.33 6.453.962 10.24 1.897 3.785.935 6.88 2.445 9.28 4.532 2.399 2.09 3.6 4.618 3.6 7.583 0 2.82-.88 5.745-2.64 8.78-1.76 3.035-4.188 4.552-7.28 4.552-1.28 0-4-1.012-8.16-3.04-4.159-2.025-8.747-3.04-13.76-3.04-5.335 0-9.335.935-12 2.8-2.667 1.867-4 4.135-4 6.8 0 2.455 1.253 4.695 3.76 6.72 2.505 2.027 5.625 3.76 9.36 5.2 3.732 1.44 7.813 3.308 12.24 5.6 4.425 2.295 8.505 4.8 12.24 7.52 3.732 2.721 6.852 6.535 9.359 11.44 2.505 4.907 3.76 10.508 3.76 16.8 0 11-3.68 19.563-11.04 25.69-7.359 6.128-17.015 9.19-28.96 9.19-10.347 0-19.359-2.133-27.04-6.4-7.678-4.264-11.518-9.064-11.518-14.399zm89.438 11.52v-60.959c0-2.24 1.145-4.052 3.439-5.44 2.293-1.385 5.253-2.08 8.88-2.08 2.985 0 5.546.7 7.681 2.098 2.132 1.397 3.2 3.225 3.2 5.482v3.71c1.705-3.438 4.452-6.337 8.239-8.702 3.785-2.365 8.186-3.548 13.2-3.548 7.36 0 13.732 3.308 19.12 9.92 5.385 6.615 8.08 14.508 8.08 23.68v35.84c0 2.455-1.228 4.348-3.68 5.681-2.455 1.335-5.388 2-8.801 2-3.199 0-6.055-.69-8.56-2.072-2.508-1.383-3.76-3.245-3.76-5.585v-35.74c0-3.082-1.147-5.848-3.44-8.295-2.295-2.444-4.987-3.67-8.08-3.67-2.774 0-5.255 1.09-7.439 3.271-2.188 2.18-3.28 5.08-3.28 8.694v35.738c0 1.914-1.255 3.67-3.76 5.265-2.508 1.595-5.415 2.393-8.721 2.393-3.52 0-6.454-.772-8.8-2.319-2.346-1.547-3.518-3.334-3.518-5.362zm88.479-86.47c-2.561-2.18-3.84-4.743-3.84-7.685s1.279-5.48 3.84-7.61c2.56-2.13 5.652-3.195 9.279-3.195 3.521 0 6.561 1.065 9.12 3.195 2.561 2.13 3.841 4.667 3.841 7.61s-1.28 5.505-3.841 7.685c-2.56 2.18-5.6 3.27-9.12 3.27-3.626 0-6.719-1.09-9.279-3.27zm-3.04 86.47v-60.959c0-2.24 1.145-4.052 3.439-5.44 2.293-1.385 5.253-2.08 8.88-2.08 3.521 0 6.48.695 8.881 2.08 2.399 1.388 3.6 3.2 3.6 5.44v60.959c0 1.921-1.228 3.681-3.68 5.281-2.455 1.6-5.388 2.399-8.801 2.399-3.52 0-6.454-.772-8.8-2.319-2.347-1.546-3.519-3.333-3.519-5.361zm39.2 34.72v-95.68c0-2.24 1.145-4.052 3.439-5.44 2.293-1.385 5.093-2.08 8.4-2.08 3.305 0 6.024.7 8.16 2.098 2.132 1.397 3.199 3.225 3.199 5.482v3.71c2.025-3.438 4.96-6.337 8.801-8.702 3.84-2.365 8.104-3.548 12.8-3.548 8 0 14.772 3.28 20.32 9.84 5.545 6.56 8.319 14.48 8.319 23.759v11.201c0 8.959-2.8 16.854-8.399 23.68-5.601 6.827-12.08 10.24-19.44 10.24-4.479 0-8.667-1.264-12.56-3.788-3.896-2.524-6.641-5.56-8.24-9.107v38.319c0 1.923-1.255 3.686-3.76 5.291-2.508 1.602-5.468 2.404-8.881 2.404-3.414 0-6.295-.775-8.64-2.32-2.346-1.546-3.518-3.333-3.518-5.359zm24.799-57.347c0 1.692 1.2 3.808 3.6 6.343 2.4 2.537 5.2 3.805 8.4 3.805 3.093 0 5.84-1.239 8.24-3.725 2.399-2.485 3.6-5.313 3.6-8.485v-11.098c0-3.064-1.2-5.814-3.6-8.244-2.4-2.431-5.256-3.648-8.561-3.648-3.095 0-5.814 1.086-8.16 3.25-2.348 2.168-3.52 5.048-3.52 8.643v13.159z"/><path d="M57.167 146.833a4.333 4.333 0 0 1-4.333 4.333h-18a4.333 4.333 0 0 1 0-8.666h18a4.333 4.333 0 0 1 4.333 4.333zm49.999-.333a4.332 4.332 0 0 1-4.332 4.333H84.833a4.333 4.333 0 0 1 0-8.666h18.001a4.332 4.332 0 0 1 4.332 4.333zm47.333-.333a4.332 4.332 0 0 1-4.332 4.333h-18.001a4.333 4.333 0 0 1 0-8.666h18.001a4.332 4.332 0 0 1 4.332 4.333zm47.668.666a4.333 4.333 0 0 1-4.333 4.333h-18a4.333 4.333 0 0 1 0-8.666h18a4.333 4.333 0 0 1 4.333 4.333zm49.999-.333a4.332 4.332 0 0 1-4.332 4.333h-18.001a4.333 4.333 0 0 1 0-8.666h18.001a4.332 4.332 0 0 1 4.332 4.333zm47.333-.333a4.332 4.332 0 0 1-4.332 4.333h-18.001a4.333 4.333 0 0 1 0-8.666h18.001a4.332 4.332 0 0 1 4.332 4.333zm47.667.666a4.332 4.332 0 0 1-4.332 4.333h-18.001a4.332 4.332 0 1 1 0-8.666h18.001a4.332 4.332 0 0 1 4.332 4.333zm50-.333a4.332 4.332 0 0 1-4.332 4.333h-18.001a4.332 4.332 0 1 1 0-8.666h18.001a4.332 4.332 0 0 1 4.332 4.333zm47.333-.333a4.332 4.332 0 0 1-4.332 4.333h-18.001a4.333 4.333 0 0 1 0-8.666h18.001a4.332 4.332 0 0 1 4.332 4.333zm48 0a4.332 4.332 0 0 1-4.332 4.333h-18.001a4.333 4.333 0 0 1 0-8.666h18.001a4.332 4.332 0 0 1 4.332 4.333zm47.667.666a4.332 4.332 0 0 1-4.332 4.333h-18.001a4.332 4.332 0 1 1 0-8.666h18.001a4.332 4.332 0 0 1 4.332 4.333zm50-.333a4.332 4.332 0 0 1-4.332 4.333h-18.001a4.332 4.332 0 1 1 0-8.666h18.001a4.332 4.332 0 0 1 4.332 4.333z" stroke="#000"/></svg>