<svg xmlns="http://www.w3.org/2000/svg" viewBox="0 0 512 512"><circle cx="256" cy="256" r="256" fill="#8dd9ff"/><path fill="#fff" d="M56 206.47h22.477V252H56z"/><path fill="#b2b9c9" d="M455.333 222.75H483V260h-27.667z"/><path d="M464 296h44.869A257.793 257.793 0 0 0 512 256c0-4.024-.119-8.021-.303-12H464v52z" fill="#9fc3dd"/><path d="M.099 253.102C.085 254.073 0 255.025 0 256c0 13.61 1.085 26.964 3.131 40H49v-42.898H.099z" fill="#b39191"/><path fill="#b2b9c9" d="M72 296h48l-8-88-40 16v72"/><path fill="#7faab8" d="M308.75 216h46.5v80h-46.5z"/><path fill="#eee1c2" d="M112 176h32v120h-32zm176 16h32v104h-32z"/><path fill="#9fc3dd" d="M216 172.002h32V296h-32z"/><path fill="#b2b9c9" d="M367 224h46.5v72H367z"/><path fill="#b39191" d="M417.5 236H464v60h-46.5z"/><path d="M3.131 296C22.337 418.382 128.225 512 256 512s233.662-93.618 252.869-216H3.131z" fill="#43ab5f"/><path d="M472.877 392c18.018-28.677 30.525-61.167 35.992-96H3.131c5.467 34.833 17.975 67.323 35.992 96h433.754z" fill="#71be63"/><path d="M15.615 344h480.77c5.633-15.37 9.881-31.408 12.484-48H3.131c2.604 16.592 6.851 32.63 12.484 48z" fill="#94d75b"/><path d="M6.249 312h499.503c1.187-5.28 2.27-10.599 3.117-16H3.131c.848 5.401 1.931 10.72 3.118 16z" fill="#b0eb81"/><path d="M374.039 483.156L256 296 137.962 483.155C173.287 501.553 213.414 512 256 512s82.714-10.446 118.039-28.844z" fill="#674447"/><path d="M286.273 344L256 296l-30.273 48h60.546z" fill="#8c665b"/><path fill="#fdefdb" d="M288 296V148l-40-24v172"/><path fill="#fff" d="M176 96v200h40V68zm168 34h32v166h-32z"/><path fill="#a29b91" d="M144 296v-40H96v40"/><path fill="#9fc3dd" d="M190 296v-96h-46v96"/><path fill="#88b7c6" d="M320 296v-32l-48 8v24"/><path fill="#fdefdb" d="M400 216h32v80h-32z"/><path d="M256 296l105.829 193.099a254.74 254.74 0 0 0 12.21-5.943L256 296zm0 0L137.962 483.155a254.26 254.26 0 0 0 12.209 5.944L256 296z" fill="#fff"/><path d="M278.182 510.932L256 296l7.423 215.773c4.957-.142 9.877-.419 14.759-.841zM256 296l-22.182 214.932c4.882.421 9.802.699 14.759.841L256 296z" fill="#e9b668"/><path fill="#9fc3dd" d="M40 240h32v56H40z"/><path fill="#a29b91" d="M329.5 274.25H383V296h-53.5z"/><path fill="#b39191" d="M216 218.5h17.818V296H216z"/><path fill="#9e8282" d="M120 280h45.667v16H120z"/><path fill="#eee1c2" d="M82.333 280h21.406v16H82.333zm142.636 0h17.698v16h-17.698zM376 280h28.5v16H376z"/><path fill="#9e8282" d="M286.273 284.396h22.477V296h-22.477zM393.523 270H416v26h-22.477zm59.239 6.333h46.905V296h-46.905zm-424-6.333h22.477v26H28.762z"/><path fill="#b2b9c9" d="M180 270h16.981v26H180zm166.76 14.396h16.981V296H346.76zm-323.741 0H40V296H23.019zM98.352 288h32.633v8H98.352z"/></svg>