<svg xmlns="http://www.w3.org/2000/svg" viewBox="0 0 512 512"><circle cx="256" cy="256" r="256" fill="#9af4ef"/><path d="M407.376 49.583C294.06 79.836 210.577 183.148 210.577 306c0 80.664 36.031 152.869 92.82 201.548C422.126 485.311 512 381.182 512 256c0-84.736-41.196-159.823-104.624-206.417z" fill="#fffff4" opacity=".3"/><path d="M215 214.034c-11.248-9.305-27.5-1.034-36.25-8.534-11.695-10.024-14.351-12.646-25.031-15.384-9.75-2.5-18.578 3.156-27.969-9.366-6.75-9-13.117-8.089-21.263-6.089s-10.649-.214-21.612-9.286c-7.25-6-13.875-8.125-28.875-7.625-12.651.422-22.601-2.382-31.849-5.894-8.893 19.938-15.34 41.198-18.894 63.438 36.23 3.803 47.12 2.15 61.243 6.706 15.5 5 166.167 35.5 168.834 34 2.667-1.5 4.436-25.304 4.436-25.304-15.131-2.734-15.337-10.513-22.77-16.662z" fill="#36b294"/><path d="M358.667 306c0 56.513 39.963 103.67 93.165 114.815C489.354 376.277 512 318.795 512 256c0-22.041-2.789-43.43-8.027-63.837-8.98-2.201-18.314-3.496-27.973-3.496-64.801 0-117.333 52.531-117.333 117.333z" fill="#fffff4" opacity=".4"/><path d="M422.504 277.018a5.052 5.052 0 0 1-5.054-5.051v-54.398a5.052 5.052 0 0 1 5.054-5.051 5.052 5.052 0 0 1 5.054 5.051v54.398a5.051 5.051 0 0 1-5.054 5.051z" fill="#674447"/><path d="M454.336 212.935c0 17.581-14.252 31.833-31.833 31.833-17.581 0-31.833-14.252-31.833-31.833s14.252-71.625 31.833-71.625c17.581.001 31.833 54.044 31.833 71.625z" fill="#43ab5f"/><path d="M422.503 141.31c-4.413 0-8.616 3.411-12.437 8.791h.001c16.091 0 29.135 49.464 29.135 65.555 0 13.997-9.878 25.667-23.038 28.473 2.049.414 4.167.639 6.338.639 17.581 0 31.833-14.252 31.833-31.833.001-17.581-14.252-71.625-31.832-71.625z" fill="#71be63"/><path d="M166.646 141.623c0-10.575 8.573-19.149 19.149-19.149 1.596 0 3.122.252 4.604.62 4.997-5.396 12.081-8.827 20.015-8.827 15.108 0 27.355 12.247 27.355 27.355h-71.123zM164.295 65c0-9.442 7.654-17.096 17.096-17.096 1.425 0 2.788.225 4.111.554 4.461-4.818 10.786-7.881 17.87-7.881 13.488 0 24.423 10.935 24.423 24.423h-63.5zM400 84.615c0-7.583-6.148-13.731-13.731-13.731-1.145 0-2.239.181-3.302.445-3.583-3.869-8.663-6.33-14.352-6.33C357.782 65 349 73.782 349 84.615h51z" fill="#fff" opacity=".6"/><path d="M263.878 248c-6.73 0-7.852-6.655-8.512-8-7.366-15-16.283-8-30.913-8-11.438 0-13.776-16.667-20.16-16-6.384.667-16.669 11.333-25.536 8-12.724-4.784-13.123-12-25.537-16-10.954-3.53-20.216-1-25.537-8-10.359-13.63-17.822 1.25-34.049-8-16.503-9.408-21.635 8-34.048 8-13.041 0-8.513-16-25.537-16-9.644 0-15.328 11.76-27.526 15.085C2.303 217.397 0 236.428 0 256c0 10.092.658 20.027 1.81 29.813 3.915 3.633 8.148 6.828 12.393 8.651C29.422 301 349 306.615 349 306.615V280c-23.409 0-23.409-16-42.561-16-25.803 0-23.409-16-42.561-16z" fill="#00a07d"/><path d="M107 433.548l237-126.934-6-12.948c-57.385 0-156.966-58.334-338-37.667 0 63.767 23.368 122.04 61.938 166.856C86.164 428.642 107 433.548 107 433.548z" fill="#94d75b"/><path d="M338 293.667c-52.623 0-140.781-49.009-294.643-41.213 136.795.118 220.685 61.353 263.643 61.353l12-4.476 19.357-14.892-.357-.772z" fill="#b0eb81"/><path d="M180.261 119.675c-2.303 0-4.479.453-6.565 1.111-6.607-9.498-17.568-15.743-30.014-15.743s-23.407 6.245-30.014 15.743c-2.086-.658-4.262-1.111-6.565-1.111-12.121 0-21.948 9.826-21.948 21.948h117.054c-.001-12.121-9.827-21.948-21.948-21.948zM352 99.333c-2.518 0-4.898.496-7.179 1.215-7.225-10.386-19.21-17.215-32.821-17.215s-25.596 6.829-32.821 17.215c-2.281-.719-4.661-1.215-7.179-1.215-13.255 0-24 10.745-24 24h128c0-13.255-10.745-24-24-24zm-167.295-16c0-14.175 11.491-25.667 25.667-25.667 2.139 0 4.185.338 6.172.832 6.697-7.233 16.193-11.832 26.828-11.832 20.25 0 36.667 16.416 36.667 36.667h-95.334z" fill="#fff"/><path d="M22.667 361.284C62.823 450.136 152.158 512 256 512c141.385 0 256-114.615 256-256 0-2.672-.12-5.314-.201-7.966C353.492 248.76 281.706 360 22.667 360v1.284z" fill="#71be63"/><path d="M349.002 309.33a5.733 5.733 0 0 1-5.736-5.731v-61.73c0-3.165 2.566-5.731 5.736-5.731s5.735 2.566 5.735 5.731v61.73a5.732 5.732 0 0 1-5.735 5.731z" fill="#674447"/><path d="M385.123 236.611c0 19.95-16.173 36.123-36.123 36.123s-36.123-16.173-36.123-36.123S329.05 155.333 349 155.333s36.123 61.327 36.123 81.278z" fill="#43ab5f"/><path d="M349 155.333c-5.008 0-9.777 3.871-14.113 9.976h.001c18.26 0 33.062 56.13 33.062 74.39 0 15.883-11.209 29.126-26.143 32.311 2.325.47 4.729.725 7.192.725 19.95 0 36.124-16.173 36.124-36.123.001-19.952-16.173-81.279-36.123-81.279z" fill="#71be63"/><path d="M511.394 272.76c-112.513.552-273.812 156.229-431.258 168.982C125.996 485.213 187.815 512 256 512c135.748 0 246.753-105.676 255.394-239.24z" fill="#43ab5f"/><circle cx="195.541" cy="448.667" r="6.667" fill="#b0eb81"/><circle cx="226.667" cy="370.266" r="6.667" fill="#94d75b"/><circle cx="407.066" cy="282.71" r="6.667" fill="#94d75b"/><circle cx="295.765" cy="459.333" r="6.667" fill="#71be63"/><circle cx="331.691" cy="418" r="6.667" fill="#b0eb81"/><circle cx="256" cy="427.482" r="6.667" fill="#71be63"/><circle cx="144" cy="455.333" r="6.667" fill="#71be63"/><circle cx="150.667" cy="399.047" r="6.667" fill="#b0eb81"/><circle cx="262.667" cy="345.333" r="6.667" fill="#b0eb81"/><circle cx="95.98" cy="395.713" r="6.667" fill="#94d75b"/><circle cx="378.457" cy="389.047" r="6.667" fill="#b0eb81"/><circle cx="443.002" cy="370.266" r="6.667" fill="#b0eb81"/><circle cx="319.543" cy="382.38" r="6.667" fill="#71be63"/><circle cx="378.457" cy="433.548" r="6.667" fill="#71be63"/><circle cx="398.667" cy="352" r="6.667" fill="#71be63"/><circle cx="443.002" cy="313.281" r="6.667" fill="#71be63"/></svg>