<svg xmlns="http://www.w3.org/2000/svg" viewBox="0 0 512 512"><circle cx="256" cy="256" r="256" fill="#baffef"/><path d="M392.518 81.15c-2.09 0-4.064.411-5.957 1.008-5.996-8.619-15.941-14.285-27.236-14.285s-21.24 5.667-27.236 14.285c-1.893-.597-3.868-1.008-5.957-1.008-10.999 0-19.916 8.917-19.916 19.916h106.218c0-10.999-8.917-19.916-19.916-19.916z" fill="#fff" opacity=".6"/><circle cx="304.356" cy="306.615" r="175.194" fill="#fffff4" opacity=".4"/><circle cx="304.356" cy="306.615" r="110.486" fill="#fffff4" opacity=".5"/><circle cx="304.356" cy="306.615" r="50.615" fill="#fff"/><path d="M.594 239.392C.242 244.888 0 250.415 0 256c0 37.21 8.005 72.53 22.281 104.431 69.036 7.728 162.446 6.68 184.171 4.491 25.806-2.6 96-13.955 107.355-19.116 11.355-5.161 5.047-40.258 5.047-40.258-97.95 0-146.379-95.761-318.26-66.156z" fill="#53dc92"/><path d="M318.853 305.548c-97.949 0-146.378-95.761-318.259-66.157-.058.901-.046 1.821-.097 2.724 151.833-26.756 196.828 74.835 285.866 74.835 0 0 3.34 22.22.399 35.5 12.962-2.532 23.275-4.93 27.045-6.644 11.354-5.161 5.046-40.258 5.046-40.258z" fill="#74ff9e"/><path d="M511.412 272.523c-165.914.158-228.783 66.057-362.767 66.057v55.742l228.911 87.02c75.487-40.805 128.093-118.441 133.856-208.819z" fill="#52c883"/><path d="M148.645 338.581v18.28c10.662 4.4 10.432 6.121 30.328 6.121 59.26 0 169.368-67.412 217.848-78.66-90.127 18.993-150.131 54.259-248.176 54.259z" fill="#6bee97"/><path d="M7.172 316.134C34.232 428.492 135.335 512 256 512c9.45 0 18.769-.55 27.954-1.548 13.048-35.781 30.885-105.807 30.885-105.807-66.065 0-137.806-90.839-306.581-90.839l-1.086 2.328z" fill="#34be69"/><path d="M309.614 404.426c-64.68-4.527-137.017-90.619-301.356-90.619l-1.086 2.327c.612 2.541 1.304 5.049 1.991 7.56 117.568.906 175.385 80.753 300.465 80.753l-.014-.021z" fill="#74ff9e" opacity=".3"/><path d="M220.716 186.689c0-16.372-13.272-29.644-29.644-29.644-2.471 0-4.834.391-7.128.96-7.735-8.353-18.703-13.665-30.986-13.665-23.389 0-42.349 18.96-42.349 42.349h110.107zm195.69 0c0-9.135-7.405-16.54-16.54-16.54-1.379 0-2.697.218-3.977.536-4.316-4.661-10.435-7.625-17.289-7.625-13.05 0-23.629 10.579-23.629 23.629h61.435z" fill="#fff"/><path d="M256 512c106.248 0 197.365-64.732 236.099-156.903h-4.873c-146.177 0-249.242 114.951-370.612 115.584C156.729 496.78 204.574 512 256 512z" fill="#43ab5f"/><path d="M302.618 179.04c-2.876 0-5.594.566-8.199 1.388-8.252-11.862-21.941-19.662-37.486-19.662s-29.234 7.799-37.486 19.662c-2.605-.821-5.323-1.388-8.199-1.388-15.139 0-27.411 12.272-27.411 27.411H330.03c-.001-15.138-12.274-27.411-27.412-27.411zm193.135-12.872c-3.101-1.554-6.552-2.511-10.257-2.511-2.417 0-4.701.475-6.89 1.166-6.933-9.968-18.435-16.521-31.497-16.521-13.062 0-24.565 6.553-31.498 16.521-2.189-.691-4.473-1.166-6.889-1.166-12.721 0-23.032 10.311-23.032 23.032h116.737c-1.955-6.961-4.16-13.813-6.674-20.521z" fill="#fff"/><path d="M52.245 101.066h111.026c0-24.002-19.457-43.459-43.459-43.459-3.622 0-7.086.574-10.45 1.409-2.407-2.599-5.083-4.926-7.893-7.087a257.404 257.404 0 0 0-49.224 49.137zm151.01 0c0-15.963 12.941-28.903 28.903-28.903 2.409 0 4.713.381 6.95.936 7.542-8.145 18.235-13.324 30.211-13.324 22.804 0 41.29 18.486 41.29 41.29H203.255z" fill="#fff" opacity=".6"/><path d="M247.742 115.613c0-15.963 12.941-28.903 28.903-28.903 2.409 0 4.713.381 6.95.936 7.542-8.145 18.235-13.324 30.211-13.324 22.804 0 41.29 18.486 41.29 41.29H247.742z" fill="#fff"/><path d="M72.552 240.722a2.772 2.772 0 0 1-2.774-2.772v-29.858a2.772 2.772 0 0 1 2.774-2.772 2.772 2.772 0 0 1 2.774 2.772v29.858a2.773 2.773 0 0 1-2.774 2.772z" fill="#53dc92"/><path d="M89.613 205.959c0 9.423-7.639 17.062-17.062 17.062s-17.062-7.639-17.062-17.062c0-9.423 7.639-38.389 17.062-38.389s17.062 28.966 17.062 38.389z" fill="#53dc92"/><path d="M412.435 294.464a4.462 4.462 0 0 1-4.464-4.46v-48.042a4.461 4.461 0 0 1 4.464-4.46 4.462 4.462 0 0 1 4.464 4.46v48.042a4.462 4.462 0 0 1-4.464 4.46z" fill="#52c883"/><path d="M439.886 238.531c0 15.161-12.291 27.452-27.452 27.452-15.161 0-27.452-12.291-27.452-27.452 0-15.161 12.291-61.768 27.452-61.768 15.161 0 27.452 46.606 27.452 61.768zm26.425 50.759a2.795 2.795 0 0 1-2.797-2.794v-30.099c0-1.543 1.251-2.794 2.797-2.794s2.797 1.251 2.797 2.794v30.099a2.796 2.796 0 0 1-2.797 2.794z" fill="#52c883"/><path d="M483.509 254.247c0 9.499-7.7 17.199-17.199 17.199s-17.199-7.7-17.199-17.199c0-9.499 7.7-38.698 17.199-38.698s17.199 29.199 17.199 38.698z" fill="#52c883"/><g fill="#6bee97"><path d="M187.622 348.046a2.863 2.863 0 0 1-2.864-2.862v-30.826a2.863 2.863 0 0 1 5.728 0v30.826a2.863 2.863 0 0 1-2.864 2.862z"/><path d="M205.236 312.157c0 9.728-7.886 17.615-17.615 17.615-9.728 0-17.615-7.886-17.615-17.615 0-9.728 7.886-39.633 17.615-39.633 9.728-.001 17.615 29.904 17.615 39.633z"/></g><g fill="#74ff9e"><path d="M105.274 242.931a1.722 1.722 0 0 1-1.723-1.721v-18.542c0-.951.771-1.721 1.723-1.721.952 0 1.723.771 1.723 1.721v18.542c0 .951-.771 1.721-1.723 1.721z"/><path d="M115.869 221.344c0 5.852-4.744 10.595-10.595 10.595s-10.595-4.744-10.595-10.595c0-5.852 4.744-23.839 10.595-23.839s10.595 17.988 10.595 23.839z"/></g></svg>