<svg xmlns="http://www.w3.org/2000/svg" viewBox="0 0 512 512"><circle cx="256" cy="256" r="256" fill="#9af4ef"/><path d="M.167 249.395C.111 251.596 0 253.785 0 256c0 19.865 2.337 39.172 6.619 57.737 47.759 29.827 155.737 50.65 281.381 50.65 80.844 0 154.36-8.629 209.262-22.719C506.776 314.878 512 286.054 512 256c0-12.069-.897-23.923-2.513-35.547-62.52-30.517-134.472-42.904-221.487-42.904-131.653-.001-243.935 39.717-287.833 71.846z" fill="#c5f8f1"/><path d="M1.556 275.545c-.056 2.064-.155 4.118-.168 6.193 1.108 10.872 2.825 21.564 5.231 31.999 47.759 29.827 155.737 50.65 281.381 50.65 80.844 0 154.36-8.629 209.262-22.719C506.776 314.878 512 286.054 512 256c0-6.074-.23-12.092-.662-18.055-59.88-21.171-104.628-28.856-181.015-22.735-141.11 11.306-281.565 28.207-328.767 60.335z" fill="#defbf2"/><path d="M44.383 239.484c-11.437 2.984-29.082 8.838-44.322 14.11C.053 254.399 0 255.193 0 256c0 36.706 7.782 71.577 21.696 103.138 25.596 2.29 59.672 5.249 64.842 5.249 8.43 0 72.014-79.248 72.014-79.248-46.904-4.377-90.431-51.849-114.169-45.655zm467.377 26.015c-35.273-16.771-64.154-36.725-84.503-34.274-25.709 3.097-109.322 39.752-109.322 39.752l111.484 72.318h67.293c8.856-24.414 14.053-50.567 15.048-77.796z" fill="#b0eb81"/><path d="M497.083 293.026c0-13.903-11.097-68.119-18.115-68.119s-18.115 54.216-18.115 68.119c0 12.42 6.487 19.273 15.001 20.602v17.043a3.114 3.114 0 0 0 3.115 3.113 3.114 3.114 0 0 0 3.115-3.113v-17.043c8.513-1.33 14.999-8.183 14.999-20.602z" fill="#94d75b"/><path d="M466.503 299.46c0-9.713-7.752-47.589-12.656-47.589s-12.656 37.876-12.656 47.589c0 8.677 4.532 13.464 10.48 14.393v11.906a2.175 2.175 0 0 0 4.352 0v-11.907c5.949-.929 10.48-5.716 10.48-14.392zm-367.309 9.634c0-9.713-7.752-47.589-12.656-47.589-4.903 0-12.656 37.876-12.656 47.589 0 8.677 4.532 13.464 10.48 14.393v11.906a2.175 2.175 0 0 0 4.352 0v-11.907c5.948-.928 10.48-5.715 10.48-14.392zm-30.961-2.38c0-7.294-5.822-35.736-9.504-35.736-3.682 0-9.504 28.443-9.504 35.736 0 6.516 3.403 10.111 7.87 10.808v8.941a1.633 1.633 0 0 0 3.268 0v-8.941c4.467-.698 7.87-4.293 7.87-10.808zm-23.85.215c0-9.271-7.4-45.424-12.08-45.424s-12.08 36.153-12.08 45.424c0 8.282 4.326 12.852 10.003 13.738v11.365a2.076 2.076 0 0 0 4.154 0v-11.365c5.678-.887 10.003-5.456 10.003-13.738z" fill="#94d75b"/><path d="M140.903 352.343a8.256 8.256 0 0 1-8.258-8.258V214.71c0-4.56 3.694-8.258 8.258-8.258s8.258 3.698 8.258 8.258v129.375a8.256 8.256 0 0 1-8.258 8.258z" fill="#674447"/><path d="M218.613 244.07c3.781-5.444 6.028-12.032 6.028-19.162 0-15.051-9.941-27.645-23.565-31.958-.121-.099-.219-.224-.341-.323 1.216-3.443 2.004-7.09 2.004-10.949 0-18.243-14.789-33.032-33.032-33.032-2.642 0-5.177.39-7.64.976-7.48-10.554-19.731-17.492-33.651-17.492-22.804 0-41.29 18.486-41.29 41.29 0 4.792.976 9.322 2.478 13.602-16.152 8.164-27.252 24.869-27.252 44.205 0 27.279 22.048 49.398 49.295 49.536 6.972 6.359 16.159 10.335 26.339 10.335 7.569 0 14.572-2.244 20.565-5.958 3.075.575 6.232.914 9.475.914 6.262 0 12.235-1.173 17.786-3.22 16.145 2.242 32.419 4.122 33.443 2.758.821-1.094-1.017-15.148-3.527-31.671a51.564 51.564 0 0 0 2.885-9.851z" fill="#43ab5f"/><path d="M218.613 244.07c3.781-5.444 6.028-12.032 6.028-19.162 0-15.051-9.941-27.645-23.565-31.958-.121-.099-.219-.224-.341-.323 1.216-3.443 2.004-7.09 2.004-10.949 0-18.243-14.789-33.032-33.032-33.032-2.642 0-5.177.39-7.64.976-7.48-10.554-19.731-17.492-33.651-17.492-10.703 0-20.361 4.177-27.697 10.856 3.422-.919 6.953-1.566 10.665-1.566 13.92 0 26.171 6.938 33.651 17.492 2.463-.586 4.998-.976 7.64-.976 18.243 0 33.032 14.789 33.032 33.032 0 3.859-.787 7.507-2.004 10.949.122.098.22.223.341.323 13.624 4.313 23.565 16.907 23.565 31.958 0 7.131-2.246 13.718-6.028 19.162a51.635 51.635 0 0 1-2.885 9.85c1.258 8.284 2.346 15.943 3.017 21.664 9.522 1.095 16.867 1.617 17.542.717.821-1.094-1.017-15.148-3.527-31.671a51.533 51.533 0 0 0 2.885-9.85z" fill="#71be63"/><path d="M10.997 330.323C42.849 435.454 140.469 512 256 512s213.151-76.546 245.003-181.677H10.997z" fill="#94d75b"/><path fill="#de7e68" d="M198.194 222.968l74.322-74.323L421.161 297.29v57.807H198.194z"/><path fill="#99645f" d="M252.301 352.344h176.774v8.341H252.301z"/><path fill="#b66e6e" d="M247.742 355.097h-99.097v-66.065l49.549-24.774 49.548 24.774z"/><path d="M318.377 94.587c-2.112 0-4.108.416-6.021 1.019-6.06-8.711-16.112-14.438-27.528-14.438S263.36 86.895 257.3 95.606c-1.913-.603-3.909-1.019-6.021-1.019-11.117 0-20.129 9.012-20.129 20.129h107.355c.001-11.117-9.011-20.129-20.128-20.129zm53.322 35.951c-1.002 0-1.949.197-2.856.483-2.874-4.132-7.643-6.849-13.058-6.849s-10.183 2.717-13.058 6.849c-.907-.286-1.854-.483-2.856-.483a9.548 9.548 0 0 0-9.548 9.548h50.925c-.001-5.273-4.276-9.548-9.549-9.548zM269.501 41.376c-1.002 0-1.949.197-2.856.483-2.875-4.132-7.643-6.849-13.058-6.849s-10.183 2.717-13.058 6.849c-.907-.286-1.854-.483-2.856-.483a9.548 9.548 0 0 0-9.548 9.548h50.925c0-5.273-4.275-9.548-9.549-9.548z" fill="#fff" opacity=".6"/><path d="M440.043 146.172c-1.557 0-3.028.306-4.438.751-4.467-6.422-11.877-10.644-20.293-10.644s-15.826 4.222-20.293 10.644c-1.41-.445-2.882-.751-4.438-.751-8.195 0-14.839 6.643-14.839 14.839h79.14c0-8.195-6.644-14.839-14.839-14.839zM188.29 88.579c-1.877 0-3.651.369-5.351.905-5.385-7.741-14.318-12.831-24.463-12.831s-19.078 5.09-24.463 12.831c-1.7-.536-3.474-.905-5.351-.905-9.879 0-17.888 8.009-17.888 17.888h95.403c.001-9.879-8.007-17.888-17.887-17.888z" fill="#fff"/><path fill="#99645f" d="M425.04 309.927L272.516 157.403l-78.201 78.202-8.759-8.758 86.96-86.96 161.282 161.282zm-173.355-12l-53.491-26.746-53.492 26.746-5.533-11.08 59.025-29.512 59.024 29.512z"/><path fill="#63a0b5" d="M222.968 231.226h24.774v33.032h-24.774z"/><path d="M249.806 266.323h-28.903v-37.161h28.903v37.161zm-24.774-4.129h20.645V233.29h-20.645v28.904z" fill="#556483"/><path fill="#556483" d="M222.968 237.419h24.774v4.129h-24.774z"/><path fill="#63a0b5" d="M264.258 231.226h24.774v33.032h-24.774z"/><path d="M291.097 266.323h-28.903v-37.161h28.903v37.161zm-24.774-4.129h20.645V233.29h-20.645v28.904z" fill="#556483"/><path fill="#556483" d="M264.258 237.419h24.774v4.129h-24.774z"/><path fill="#63a0b5" d="M305.548 231.226h24.774v33.032h-24.774z"/><path d="M332.387 266.323h-28.903v-37.161h28.903v37.161zm-24.774-4.129h20.645V233.29h-20.645v28.904z" fill="#556483"/><path fill="#556483" d="M305.548 237.419h24.774v4.129h-24.774z"/><path fill="#63a0b5" d="M280.774 297.29h24.774v33.032h-24.774z"/><path d="M307.613 332.387H278.71v-37.161h28.903v37.161zm-24.774-4.129h20.645v-28.903h-20.645v28.903z" fill="#556483"/><path fill="#556483" d="M280.774 303.484h24.774v4.129h-24.774z"/><path fill="#63a0b5" d="M322.065 297.29h24.774v33.032h-24.774z"/><path d="M348.903 332.387H320v-37.161h28.903v37.161zm-24.774-4.129h20.645v-28.903h-20.645v28.903z" fill="#556483"/><path fill="#556483" d="M322.065 303.484h24.774v4.129h-24.774z"/><path fill="#63a0b5" d="M363.355 297.29h24.774v33.032h-24.774z"/><path d="M390.194 332.387H361.29v-37.161h28.903v37.161zm-24.775-4.129h20.645v-28.903h-20.645v28.903z" fill="#556483"/><path fill="#556483" d="M363.355 303.484h24.774v4.129h-24.774z"/><path fill="#63a0b5" d="M165.161 297.29h24.774v33.032h-24.774z"/><path d="M192 332.387h-28.903v-37.161H192v37.161zm-24.774-4.129h20.645v-28.903h-20.645v28.903z" fill="#556483"/><path fill="#556483" d="M165.161 303.484h24.774v4.129h-24.774z"/><path fill="#63a0b5" d="M206.452 297.29h24.774v33.032h-24.774z"/><path d="M233.29 332.387h-28.903v-37.161h28.903v37.161zm-24.774-4.129h20.645v-28.903h-20.645v28.903z" fill="#556483"/><path fill="#556483" d="M206.452 303.484h24.774v4.129h-24.774z"/><path d="M198.472 338.296c-3.193 0-6.212.629-9.104 1.541-9.163-13.172-24.362-21.832-41.623-21.832s-32.461 8.66-41.623 21.832c-2.892-.912-5.911-1.541-9.104-1.541-16.81 0-30.436 13.627-30.436 30.436h162.327c-.001-16.809-13.628-30.436-30.437-30.436z" fill="#71be63"/><path d="M178.955 338.295c-3.193 0-6.212.629-9.104 1.541-7.374-10.6-18.743-18.02-31.865-20.614-13.122 2.594-24.491 10.014-31.865 20.614-2.893-.912-5.911-1.541-9.104-1.541-16.81 0-30.437 13.627-30.437 30.437h142.811c.001-16.81-13.626-30.437-30.436-30.437z" fill="#43ab5f"/><path d="M196.975 368.583c0-9.776 7.925-17.702 17.702-17.702 1.476 0 2.886.233 4.257.574 4.619-4.988 11.168-8.16 18.503-8.16 13.966 0 25.288 11.322 25.288 25.288h-65.75z" fill="#71be63"/><path d="M233.012 343.77c-5.517.996-10.417 3.73-14.079 7.685-1.371-.34-2.781-.573-4.257-.573-9.777 0-17.702 7.925-17.702 17.702h56.612c.001-12.353-8.866-22.602-20.574-24.814z" fill="#43ab5f"/><path d="M256 512c92.136 0 172.761-48.767 217.84-121.806H38.16C83.239 463.233 163.864 512 256 512z" fill="#71be63"/><path d="M427.257 445.935H84.743C130.083 486.924 190.051 512 256 512s125.917-25.076 171.257-66.065z" fill="#43ab5f"/><path d="M67.479 325.04c-.989 0-1.923.195-2.819.477-2.837-4.078-7.544-6.76-12.888-6.76s-10.051 2.681-12.888 6.76c-.896-.282-1.83-.477-2.819-.477a9.424 9.424 0 0 0-9.424 9.424h50.263c0-5.204-4.22-9.424-9.425-9.424zm361.596 9.669c0-6.656 5.396-12.052 12.052-12.052 1.005 0 1.965.159 2.898.391 3.145-3.396 7.604-5.556 12.597-5.556 9.509 0 17.217 7.708 17.217 17.217h-44.764z" fill="#94d75b"/><path d="M179.792 117.927c0-11.59 9.395-20.985 20.985-20.985 1.749 0 3.422.277 5.046.68 5.476-5.913 13.24-9.674 21.935-9.674 16.557 0 29.979 13.422 29.979 29.979h-77.945zm169.365-26.284c0-7.125 5.776-12.901 12.901-12.901 1.075 0 2.104.17 3.102.418 3.366-3.635 8.139-5.947 13.485-5.947 10.179 0 18.43 8.252 18.43 18.43h-47.918z" fill="#fff"/><circle cx="245.419" cy="492.043" r="6.882" fill="#94d75b"/><circle cx="323.441" cy="472.086" r="6.882" fill="#94d75b"/><circle cx="140.903" cy="425.921" r="4.76" fill="#b0eb81"/><circle cx="192.561" cy="408.946" r="4.76" fill="#94d75b"/><circle cx="108.661" cy="413.706" r="4.76" fill="#94d75b"/><circle cx="218.839" cy="421.161" r="4.76" fill="#b0eb81"/><circle cx="318.681" cy="408.946" r="4.76" fill="#b0eb81"/><circle cx="414.848" cy="413.706" r="4.76" fill="#b0eb81"/><circle cx="279.398" cy="424.774" r="4.76" fill="#94d75b"/><circle cx="380.502" cy="424.774" r="4.76" fill="#94d75b"/><circle cx="192.561" cy="478.28" r="6.882" fill="#71be63"/><circle cx="269.606" cy="469.161" r="6.882" fill="#71be63"/></svg>