<svg xmlns="http://www.w3.org/2000/svg" viewBox="0 0 512 512"><circle cx="256" cy="256" r="256" fill="#8dd9ff"/><path d="M5.886 201.439C2.066 219.027 0 237.269 0 256c0 18.732 2.067 36.973 5.886 54.561C73.167 366.039 239.863 405.333 435 405.333c9.784 0 19.469-.132 29.102-.327C494.215 363.026 512 311.605 512 256c0-55.605-17.786-107.027-47.898-149.007-9.633-.194-19.317-.327-29.102-.327-195.137.001-361.833 39.295-429.114 94.773z" fill="#fffff4" opacity=".3"/><path d="M0 256c0 54.096 16.823 104.241 45.46 145.579 92.614 26.053 223.142 44.946 372.763 52.448C475.466 407.077 512 335.811 512 256c0-34.044-6.703-66.507-18.767-96.221-207.34 4.869-386.193 31.271-491.794 69.126A258.535 258.535 0 0 0 0 256z" fill="#fffff4" opacity=".4"/><path d="M176 144c-9 2-20 23-32 24s-34 0-40 8c-2.88 3.841-6.679 19.031-9.854 32H221.5l6.167-37.667C217.667 163.333 185 142 176 144z" fill="#bbe6ff"/><path d="M0 256c0 141.385 114.615 256 256 256s256-114.615 256-256c0-16.414-1.607-32.445-4.56-48H4.56C1.607 223.555 0 239.586 0 256z" fill="#3b87c5"/><path d="M255.576 256c-94.695 0-181.563 20.56-249.631 54.813 24.11 110.479 119.506 194.291 235.598 200.757 4.82.159 9.603.43 14.474.43.064 0 .127-.005.191-.005 4.776-.002 9.465-.267 14.192-.421 115.982-6.434 211.313-90.07 235.566-200.375C437.785 276.715 350.625 256 255.576 256z" fill="#3c9bd4"/><path d="M189.667 91.941c-2.518 0-4.898.496-7.179 1.215-7.225-10.386-19.21-17.215-32.821-17.215s-25.596 6.829-32.821 17.215c-2.281-.719-4.661-1.215-7.179-1.215-13.255 0-24 10.745-24 24h128c0-13.255-10.745-24-24-24z" fill="#fff"/><path d="M157.667 94.335c0-11.4 9.241-20.641 20.641-20.641 1.721 0 3.366.272 4.963.669 5.386-5.816 13.023-9.515 21.575-9.515 16.285 0 29.487 13.202 29.487 29.487h-76.666z" fill="#fff"/><path d="M256 73.471c0-9.714 7.875-17.59 17.59-17.59 1.466 0 2.868.232 4.23.57 4.59-4.957 11.098-8.108 18.386-8.108 13.878 0 25.128 11.25 25.128 25.128H256zm141.333 70.397c0-9.714 7.875-17.59 17.59-17.59 1.466 0 2.868.232 4.23.57 4.59-4.957 11.098-8.108 18.386-8.108 13.878 0 25.128 11.25 25.128 25.128h-65.334zM192.592 51.311c0-6.961 5.643-12.604 12.604-12.604 1.051 0 2.055.166 3.031.408 3.289-3.552 7.952-5.81 13.175-5.81 9.944 0 18.006 8.062 18.006 18.006h-46.816z" fill="#fff" opacity=".5"/><path d="M348.333 128c0-12.887 10.447-23.333 23.333-23.333 1.945 0 3.805.308 5.611.756 6.088-6.575 14.721-10.756 24.389-10.756C420.076 94.667 435 109.591 435 128h-86.667z" fill="#fff"/><path d="M408 208c0-25.333-21.793-35.119-32-40-12.104-5.788-37.333-4-48-24s-18.037-32-24-32c-11.333 0-39.333 5.333-56 24-13.555 15.182-10.667 29.333-32 40-6.422 3.211-24 7.963-24 32v40c0 30 34.667 50.667 48 56s30.211 136 48 136c17.333 0 37.333-65.333 48-72s32-7.889 32-40v-72c21.318-21.318 40 4 40-48z" fill="#bbe6ff"/><path d="M94.146 208c-1.323 5.404-2.541 10.432-3.534 14.077a22.972 22.972 0 0 0 2.724 18.322C103.738 256.944 125.903 293.095 128 304c7.5 39 24 44 32 64 4.152 10.38 25.5 4 32 0 9.173-5.645 24-72 24-72l5.5-88H94.146z" fill="#75c3f0"/><path d="M240 304c13.333 5.333 30.211 136 48 136 17.333 0 37.333-65.333 48-72 10.667-6.667 32-7.889 32-40v-72c21.318-21.318 40 4 40-48H192v40c0 30 34.667 50.667 48 56z" fill="#8dd9ff"/><path d="M176 144c-9 2-20 23-32 24s-34 0-40 8c-2.032 2.709-4.518 11.085-6.923 20.324 11.61.918 14.792-10.321 17.256-14.324 2.667-4.333 17.333-2.333 27.333-3.667 10-1.333 9.333 6.333 19.24 8.667 9.906 2.333 11.76-20.333 16.427-24.667C182 158 216 176 223.667 181.667l2.69-3.33 1.31-8.003C217.667 163.333 185 142 176 144z" fill="#fff"/><path d="M376 168c-12.104-5.788-37.333-4-48-24s-18.037-32-24-32c-11.333 0-39.333 5.333-56 24-13.555 15.182-10.667 29.333-32 40-6.199 3.1-22.642 7.808-23.787 29.738C200.5 194.5 227 187.5 243.5 191.5c10.866 2.634 3.5 10.861 16.058 10.861 9.434 0 8.668-40.107 15.442-46.361 6.5-6 13.579-4.423 18 12 7 26 51 6.5 107.667 17.643C393.384 176.072 382.41 171.065 376 168zM2.952 217h506.096c-.462-3.025-1.04-6.011-1.607-9H4.56c-.568 2.989-1.145 5.975-1.608 9z" fill="#fff"/><path d="M330 290.818c0-19.026-14.667-22.769-14.667-8.627 0 8.162-11.625 15.649-18.893 5.309-5.928-8.433-7.773-32.911-7.773-44.167 0-22.333-18.154-23.515-18.154-.677 0 33.343-14.558 27.524-14.558 40.677C255.955 308 269 329 256 345c-.2.246-.339.571-.527.833C265.469 385.841 276.545 440 288 440c17.333 0 37.333-65.333 48-72 4.379-2.737 10.551-4.583 16.312-8C334 358 330 327.008 330 290.818z" fill="#75c3f0"/><path d="M185.5 302.5c0-25.167 1.5-39.833-8.5-44.167-8.867-3.842-18.75 8.417-21.352-2.333-4.783-19.763-4.981-26.479-11.384-26.479-6.265 0-8.765 9.897-8.765 34.479 0 37.068 3.833 42.903-5.933 47.142C137.602 343.698 152.518 349.293 160 368c4.152 10.38 25.5 4 32 0 6.152-3.786 14.83-34.83 19.89-54.899-4.557 10.899-26.39 11.6-26.39-10.601z" fill="#5ab0e2"/></svg>