<svg xmlns="http://www.w3.org/2000/svg" viewBox="0 0 512 512"><circle cx="256" cy="256" r="256" fill="#8dd9ff"/><path d="M1.156 280C13.262 410.125 122.713 512 256 512s242.738-101.875 254.844-232H1.156z" fill="#3c9bd4"/><path d="M489.545 360.883A254.481 254.481 0 0 0 510.844 280H1.156a254.773 254.773 0 0 0 12.74 59.236c90.89 10.049 330.296 19.745 475.649 21.647z" fill="#9af4ef" opacity=".35"/><path d="M2.638 292H509.22c.563-3.994 1.247-7.949 1.624-12H1.156c.376 4.036.921 8.021 1.482 12z" fill="#93dde8"/><path d="M216 176c-26.667 10.667-56 11.333-64 17.333C145.954 197.868 101.822 280 51.822 280h169.199L216 176z" fill="#52c883"/><path d="M165.333 238c-10.677-1.695-31.964-3.986-37-4.167-2.447-.088-13.583-5.987-19.083-5.987-7.601 0-12.138 16.154-21 26.079-5.151 5.768-26 26.075-45 26.075h63.25l58.833-42z" fill="#926e79"/><path d="M472 280c-21.333 0-57.692-48.099-80-72-18.667-20-50.025 12-64.025 12v60H472z" fill="#52c883"/><path d="M183.359 107.301c-.97 0-1.898.153-2.799.377-3.038-3.28-7.344-5.366-12.167-5.366-3.042 0-5.855.877-8.308 2.302-3.041-2.322-6.796-3.755-10.918-3.755-1.507 0-2.948.239-4.348.586-4.718-5.095-11.408-8.335-18.9-8.335-14.266 0-25.831 11.565-25.831 25.831H195c0-6.429-5.212-11.64-11.641-11.64z" fill="#fff"/><path d="M175.628 162.688c0-7.225-5.857-13.081-13.081-13.081-1.09 0-2.133.172-3.146.424-3.413-3.686-8.253-6.03-13.673-6.03-10.321 0-18.688 8.367-18.688 18.688h48.588zm246.899-3.635c-1.06 0-2.074.168-3.059.412-3.319-3.585-8.026-5.864-13.297-5.864-5.139 0-9.759 2.152-13.064 5.582-3.301-3.406-7.861-5.582-12.979-5.582-10.037 0-18.173 8.137-18.173 18.173h73.294c-.001-7.025-5.696-12.721-12.722-12.721z" fill="#fff" opacity=".5"/><path d="M399.75 124.9c0-11.913-9.658-21.571-21.571-21.571-2.263 0-4.402.445-6.452 1.092-6.494-9.335-17.266-15.473-29.5-15.473-9.087 0-17.359 3.397-23.679 8.964-5.262-6.546-13.307-10.76-22.36-10.76-8.328 0-15.763 3.601-21.008 9.265-1.556-.386-3.157-.651-4.833-.651-11.1 0-20.098 8.999-20.098 20.098h36.496c-1.278 2.757-2.042 5.797-2.042 9.036H399.75z" fill="#fff"/><path d="M232.5 62.542h39.834c0-6.28-5.091-11.371-11.371-11.371-1.193 0-2.321.235-3.401.576-3.423-4.921-9.102-8.156-15.55-8.156s-12.127 3.235-15.55 8.156c-1.081-.341-2.208-.576-3.401-.576-3.393 0-6.404 1.516-8.487 3.872-3.625-2.421-7.884-3.959-12.572-3.959-7.798 0-14.665 3.912-18.804 9.863-1.307-.412-2.67-.696-4.113-.696-7.594 0-13.75 6.156-13.75 13.75h73.333c-.001-4.79-2.455-8.998-6.168-11.459z" fill="#fff" opacity=".5"/><path d="M64 280c25 0 69.333-17.333 80-32 6.576-9.042 14.18-27.765 21.333-33.604 9.329-7.614 17.333-7.73 26.667-14.396s50.667-56 64-56c13.333 0 39 30 56 40 18.567 10.922 26.873 38.209 48 48 27.333 12.667 38.667 48 72 48" fill="#52c883"/><path d="M253.971 280A1239.99 1239.99 0 0 0 269 274.75c-15.211-2.34-15.458-22.427-31.358-28.927s-30.775 1.478-40.009-10.823C189 223.5 191.425 214.353 182 212c-2.52-.629-4.678-2.015-6.57-3.756-3.272 1.489-6.591 3.291-10.097 6.152C158.18 220.234 150.576 238.958 144 248c-6.872 9.448-27.713 19.978-48.358 26.292A469.896 469.896 0 0 0 91.428 280h162.543z" fill="#34be69"/><path d="M360 232c-21.127-9.791-29.434-37.079-48-48-17-10-42.667-40-56-40-5.077 0-14.217 7.165-24.101 16.391 6.386-2.185 14.416-3.912 22.101-3.724 13.667.333 11.333 11.667 28.333 22.532s28 28.135 30.667 39.468 12.333 17 25.667 22.045c13.333 5.045 17 9.288 22 17.621 0 0 19.06 3.546 37.935 7.027C386.203 254.105 375.752 239.3 360 232z" fill="#53dc92"/><path d="M200 304s-16.333-35.333-29.667-35.333c-30 0-31 35.333-58.333 35.333m315.601-24l.31-.243c-15.552-4.529-13.323-27.229-33.911-25.424-19 1.667-21.667-5.333-33.333-.408-11.44 4.83-14.667 7.408-31.333 4.741-16.666-2.667-29.299 14.167-56.966 13.833-8.581-.103-4.979-1.833-10.618 7.5h165.851zm-209.863-68c9.815 9.346 32.012-11.25 36.512-17.25s16.75-7.25 26.25-.394 15.092 9.236 25 4.644c10.25-4.75 14.984-3.032 22.378.065-4.737-5.977-9.729-11.448-15.878-15.065-17-10-42.667-40-56-40-11.48 0-43.67 36.513-58.367 50.935 5.617-2.935 10.313-4.456 16.117.315 5.492 4.514-1 12 3.988 16.75z" fill="#926e79"/><path d="M252.825 144.745c-.553.208-1.11.424-1.712.72-.41.203-.848.457-1.279.697-.544.303-1.091.614-1.666.975-.508.32-1.032.671-1.562 1.033-.536.366-1.079.745-1.636 1.15a82.469 82.469 0 0 0-3.348 2.571c-.721.58-1.444 1.164-2.188 1.79-.378.317-.764.654-1.147.983-.889.763-1.78 1.53-2.692 2.346l-.208.189a238.678 238.678 0 0 0-3.488 3.191c6.386-2.185 14.416-3.912 22.101-3.724 13.667.333 11.333 11.667 28.333 22.532 8.885 5.679 16.081 13.104 21.355 20.521.603-.238 1.176-.424 1.811-.719 10.25-4.75 14.984-3.032 22.378.065a107.922 107.922 0 0 0-4.968-5.812c-1.107-1.201-2.234-2.371-3.406-3.463a51.515 51.515 0 0 0-1.792-1.593c-1.816-1.542-3.681-3.003-5.712-4.198-17-10-42.667-40-56-40-.679 0-1.442.148-2.258.392-.287.087-.612.24-.916.354z" fill="#a17988"/><path d="M121 280c-12.5 0-13.5-10.5-27.5-10.5S78 280 73.5 280H121zm204 0c-7.5 0-9.75-7-34.75-8.25-11.236-.562-7.849-1.586-22.004-1.586-14.155 0-18.308 5.069-25.527 5.069-7.219 0-14.484 4.767-14.484 4.767H325z" fill="#674447"/><path d="M392 208c-10.159-10.885-24.07-6.35-36.904.029 7.237 8.305 19.584-3.434 28.237 3.971 11.11 9.507 30.215 37.667 40.864 50.743C436.119 277.383 436.667 280 472 280c-21.333 0-57.692-48.099-80-72z" fill="#53dc92"/><path d="M208.333 304h-18c-3-25.333-21.68-37.579-32.166-32.998 0 0 20.166-12.835 34.833 3.748S208.333 304 208.333 304zm219.578-24.243c-15.552-4.529-13.323-27.229-33.911-25.424-19 1.667-21.667-5.333-33.333-.407-6.581 2.778-10.489 4.767-15.756 5.485.842.442 1.666.786 2.423.879 5.016.618 11.333 6.709 22.333 2.042 11-4.667 11.333-.333 20.333 3.027 7.47 2.789 7.423 10.965 11.364 14.64h26.237l.31-.242z" fill="#a17988"/></svg>