<svg xmlns="http://www.w3.org/2000/svg" viewBox="0 0 512 512"><circle cx="256" cy="256" r="256" fill="#9af4ef"/><path d="M10.091 327.133c83.321-3.292 346.116-16.46 497.758-25.428C510.525 286.867 512 271.61 512 256c0-14.961-1.356-29.598-3.819-43.855-134.612 4.671-383.169 28.46-507.985 51.585.652 21.943 4.056 43.183 9.895 63.403z" fill="#fffff4" opacity=".3"/><path d="M8.511 321.567c100.612.929 372.499 2.264 494.628 1.233a256.129 256.129 0 0 0 8.826-65.416C362.447 258.927 87.08 268.27 1.06 278.73c1.292 14.668 3.791 28.984 7.451 42.837z" fill="#fffff4" opacity=".4"/><path d="M150.794 149.097c0-11.225 9.1-20.324 20.324-20.324 1.694 0 3.314.268 4.887.659 5.303-5.727 12.823-9.369 21.244-9.369 16.035 0 29.034 12.999 29.034 29.034h-75.489zm-21.8-71c0-9.442 7.654-17.096 17.096-17.096 1.425 0 2.788.225 4.111.554 4.461-4.818 10.786-7.881 17.87-7.881 13.488 0 24.423 10.935 24.423 24.423h-63.5zM428.51 196.503c0-7.021 5.692-12.713 12.713-12.713 1.06 0 2.073.168 3.057.412 3.317-3.582 8.021-5.86 13.289-5.86 10.03 0 18.162 8.131 18.162 18.162H428.51zm-58.515-51.164c0-9.442 7.654-17.096 17.096-17.096 1.425 0 2.788.225 4.111.554 4.461-4.818 10.786-7.881 17.87-7.881 13.488 0 24.423 10.935 24.423 24.423h-63.5z" fill="#fff" opacity=".6"/><path d="M165.244 125.802c-2.444 0-4.754.481-6.968 1.179-7.013-10.081-18.646-16.709-31.857-16.709s-24.844 6.628-31.857 16.709c-2.214-.698-4.524-1.179-6.968-1.179-12.866 0-23.295 10.429-23.295 23.295h124.24c0-12.865-10.43-23.295-23.295-23.295zm205.602 2.099c-1.83 0-3.559.36-5.216.883-5.249-7.546-13.958-12.508-23.847-12.508s-18.597 4.961-23.847 12.508c-1.657-.523-3.386-.883-5.216-.883-9.63 0-17.437 7.807-17.437 17.437h93c.001-9.63-7.806-17.437-17.437-17.437zm60.012 56.369c-1.284 0-2.497.253-3.659.619-3.683-5.294-9.792-8.775-16.73-8.775-6.938 0-13.047 3.481-16.73 8.775-1.163-.367-2.376-.619-3.659-.619-6.756 0-12.233 5.477-12.233 12.233h65.245c-.001-6.756-5.478-12.233-12.234-12.233zM282.242 74.202c0-12.452 10.094-22.546 22.546-22.546 1.879 0 3.676.297 5.421.731 5.883-6.353 14.224-10.393 23.566-10.393 17.788 0 32.208 14.42 32.208 32.208h-83.741z" fill="#fff"/><path d="M1.833 286C16.693 413.237 124.773 512 256 512c131.228 0 239.307-98.763 254.167-226H1.833z" fill="#b0eb81"/><path d="M307.196 129.982l-12.492-15.873c-3.416-4.34-9.993-4.34-13.409 0l-12.492 15.873-16.487 129.283h71.368l-16.488-129.283z" fill="#c4b478"/><path d="M283.187 114.109c-.264-.336-.646-.472-.946-.756-.299.284-.682.42-.946.756l-12.492 15.873-16.487 129.283h59.851l-16.488-129.283-12.492-15.873z" fill="#bca077"/><path d="M324.615 276.202h-73.23v-50.936a1 1 0 0 1 1-1h71.23a1 1 0 0 1 1 1v50.936z" fill="#8c665b"/><path d="M288.001 235.858c-7.94 0-14.377 6.437-14.377 14.377v25.968h28.753v-25.968c0-7.941-6.437-14.377-14.376-14.377z" fill="#674447"/><path d="M212.536 191.878l19.891 19.891c4.397 4.397 11.78 3.363 14.8-2.073L288 136.305l-73.391 40.773c-5.436 3.02-6.47 10.403-2.073 14.8zm150.928 0l-19.891 19.891c-4.397 4.397-11.78 3.363-14.8-2.073L288 136.305l73.391 40.773c5.436 3.02 6.47 10.403 2.073 14.8zm0-111.146l-19.891-19.891c-4.397-4.397-11.78-3.363-14.8 2.073L288 136.305l73.391-40.773c5.436-3.02 6.47-10.403 2.073-14.8zm-150.928 0l19.891-19.891c4.397-4.397 11.78-3.363 14.8 2.073L288 136.305l-73.391-40.773c-5.436-3.02-6.47-10.403-2.073-14.8z" fill="#8c665b"/><circle cx="288" cy="136.305" r="11.517" fill="#8c665b"/><path d="M436.008 349.097a4.385 4.385 0 0 1-4.387-4.384v-47.219a4.385 4.385 0 0 1 4.387-4.384 4.385 4.385 0 0 1 4.387 4.384v47.219a4.385 4.385 0 0 1-4.387 4.384z" fill="#674447"/><path d="M463.638 293.472c0 15.261-12.371 27.632-27.632 27.632s-27.632-12.371-27.632-27.632c0-15.261 12.371-62.171 27.632-62.171s27.632 46.911 27.632 62.171z" fill="#43ab5f"/><path d="M436.007 231.301c-3.831 0-7.479 2.961-10.795 7.631h.001c13.967 0 25.29 42.935 25.29 56.903 0 12.15-8.574 22.279-19.997 24.715 1.779.359 3.617.555 5.502.555 15.26 0 27.632-12.371 27.632-27.631-.002-15.263-12.373-62.173-27.633-62.173z" fill="#71be63"/><path d="M91.078 314.953c-2.442 0-4.42-1.503-4.42-3.356v-36.143c0-1.853 1.978-3.356 4.42-3.356s4.42 1.503 4.42 3.356v36.143c0 1.853-1.978 3.356-4.42 3.356z" fill="#674447"/><path d="M114.887 266.081c0 18.273-10.66 27.445-23.81 27.445s-23.81-9.172-23.81-27.445 14.585-89.534 23.81-89.534 23.81 71.261 23.81 89.534z" fill="#43ab5f"/><path d="M91.077 176.547c-1.827 0-3.865 2.825-5.958 7.45 7.525 11.397 17.262 67.709 17.262 83.35 0 15.281-6.795 23.884-15.817 25.774a26.44 26.44 0 0 0 4.514.404c13.15 0 23.81-9.172 23.81-27.445s-14.586-89.533-23.811-89.533z" fill="#71be63"/><path d="M155.008 293.75a5.732 5.732 0 0 1-5.735-5.731v-61.73a5.732 5.732 0 0 1 5.735-5.731 5.732 5.732 0 0 1 5.735 5.731v61.73a5.731 5.731 0 0 1-5.735 5.731z" fill="#674447"/><path d="M191.13 221.031c0 19.95-16.173 36.123-36.123 36.123s-36.123-16.173-36.123-36.123 16.173-81.278 36.123-81.278 36.123 61.327 36.123 81.278z" fill="#43ab5f"/><path d="M155.007 139.753c-5.008 0-9.777 3.871-14.113 9.976h.001c18.26 0 33.062 56.13 33.062 74.39 0 15.883-11.209 29.126-26.143 32.311 2.325.47 4.729.725 7.192.725 19.95 0 36.124-16.173 36.124-36.123 0-19.952-16.173-81.279-36.123-81.279zM12.292 334.44C45.422 437.443 141.984 512 256 512c110.811 0 205.156-70.415 240.788-168.931C386.114 337.654 348.081 248 256 248c-120.061 0-158.084 81.791-243.708 86.44z" fill="#71be63"/><path d="M496.788 343.069C386.114 337.654 348.081 248 256 248c-5.686 0-11.132.238-16.464.588C341.46 255.8 388.162 374.415 463.244 406.014c13.906-19.181 25.344-40.271 33.544-62.945z" fill="#94d75b"/><path d="M25.297 366.622C66.58 452.573 154.274 512 256 512c67.79 0 129.336-26.441 175.129-69.46-161.871-9.122-206.133-119.437-405.832-75.918z" fill="#43ab5f"/><path d="M251.623 388.736c13.133 5.622 26.126 11.497 39.388 17.238 56.17-47.218 120.604-83.88 82.567-109.724l-22.514-14.781c64.02 40.488-20.937 68.773-99.441 107.267z" fill="#c4b478"/><path d="M55.134 414.299a256.913 256.913 0 0 0 83.64 69.115c1.038-45.642 29.634-76.959 64.738-112.813-17.43-5.436-35.911-9.71-56.255-12.061-33.412 8.008-69.758 29.239-92.123 55.759z" fill="#bca077"/><path d="M373.578 296.25l-22.514-14.781c24.776 15.668 27.178 29.507 16.338 42.82a1732.81 1732.81 0 0 1 8.836 9.268c11.28-14.247 12.963-26.691-2.66-37.307z" fill="#ccbe84"/><path d="M34.539 383.986C78.792 460.457 161.291 512 256 512c27.578 0 54.093-4.441 78.964-12.529-73.984-35.117-177.812-155.97-300.425-115.485z" fill="#3c9b61"/><path d="M102.113 376.686c-17.986 10.068-34.607 22.961-46.939 37.57 1.327 1.685 2.7 3.33 4.067 4.98a256.303 256.303 0 0 0 9.976 11.336c1.35 1.447 2.658 2.933 4.041 4.349 2.191 2.24 4.474 4.39 6.745 6.548 1.273 1.212 2.531 2.441 3.829 3.626a255.572 255.572 0 0 0 7.47 6.519 264.13 264.13 0 0 0 3.4 2.832 258.508 258.508 0 0 0 8.425 6.6c.758.568 1.533 1.116 2.297 1.676 10.542 7.699 21.67 14.646 33.349 20.693.755-33.188 16.115-58.801 37.918-84.093-23.714-11.479-48.609-19.981-74.578-22.636z" fill="#ad9172"/></svg>