<svg xmlns="http://www.w3.org/2000/svg" viewBox="0 0 512 512"><circle cx="256" cy="256" r="256" fill="#fff9bb"/><path d="M509.283 293.158C479.333 286.667 446.006 233.346 424 244c-22.721 11-42.618 28.727-53.182 28.727-17.779 0-147.485-68.227-168.152-70.227-16.222-1.57-98.788 57.5-114.558 57.5-10.68 0-37.442-9.333-46.108-9.333-9.081 0-23.333 14-41.723 16.286 1.248 29.621 7.549 57.919 18.031 84.103 47.493 9.399 129.339 24.636 150.378 23.929C198 374 330 401 410 384a4044.29 4044.29 0 0 0 76.807-17.128c11.013-22.884 18.687-47.669 22.476-73.714z" fill="#ffea96"/><path d="M437.98 329.025c-.732 0-1.423.144-2.086.353-2.1-3.018-5.583-5.003-9.539-5.003-1.842 0-3.564.466-5.109 1.231-2.507-2.301-5.829-3.724-9.502-3.724-4.804 0-9.034 2.41-11.584 6.076-.805-.254-1.645-.429-2.534-.429-.179 0-.346.042-.523.053-2.08-1.97-4.857-3.207-7.948-3.207-3.956 0-7.439 1.984-9.539 5.003-.663-.209-1.355-.353-2.086-.353a6.975 6.975 0 0 0-6.975 6.975h74.4a6.974 6.974 0 0 0-6.975-6.975z" fill="#d6eb76"/><path fill="#d6c8a9" d="M65.292 301.5h122V336h-122z"/><path fill="#63a0b5" d="M65.292 311.667h64.36v15.476h-64.36z"/><path d="M360 336s-24-84.211-24-160h-88c0 75.789-24 160-24 160" fill="#fffce5"/><path d="M224 336h45.892C274.31 308.307 280 199.895 280 176h-32c0 75.79-24 160-24 160z" fill="#e9dcb3"/><path d="M292 256c-6.617 0-12-5.383-12-12s5.383-12 12-12 12 5.383 12 12-5.383 12-12 12zm-44.901-53.5h89.802a450.645 450.645 0 0 1-.622-12H247.72a446.465 446.465 0 0 1-.621 12z" fill="#ff8562"/><path d="M12.82 336C46.422 438.191 142.563 512 256 512s209.578-73.809 243.18-176H12.82z" fill="#d8c34a"/><path d="M248 336s-24-84.211-24-160h-88c0 75.789-24 160-24 160" fill="#fff"/><path d="M112 336h45.892C162.31 308.307 168 199.895 168 176h-32c0 75.79-24 160-24 160z" fill="#e9dcb3"/><path d="M180 256c-6.617 0-12-5.383-12-12s5.383-12 12-12 12 5.383 12 12-5.383 12-12 12zm-44.901-53.5h89.802a450.645 450.645 0 0 1-.622-12H135.72a446.465 446.465 0 0 1-.621 12z" fill="#ff8562"/><path fill="#d6c8a9" d="M262 301.5h122V336H262z"/><path fill="#63a0b5" d="M270.667 311.667H384v15.476H270.667z"/><path d="M399.224 325.371c-1.115 0-2.169.219-3.179.538-3.2-4.6-8.508-7.624-14.535-7.624s-11.335 3.024-14.535 7.624c-1.01-.319-2.064-.538-3.179-.538-5.87 0-10.629 4.759-10.629 10.629h56.686c0-5.87-4.759-10.629-10.629-10.629z" fill="#69be5d"/><path d="M484.343 329.655c-.666 0-1.295.131-1.898.321-1.91-2.746-5.079-4.551-8.677-4.551s-6.767 1.805-8.677 4.551c-.603-.19-1.232-.321-1.898-.321a6.345 6.345 0 0 0-6.345 6.345h33.841a6.347 6.347 0 0 0-6.346-6.345zm-428.897-.959c-.766 0-1.491.151-2.185.37-2.199-3.161-5.846-5.239-9.989-5.239s-7.79 2.078-9.989 5.239c-.694-.219-1.418-.37-2.185-.37A7.304 7.304 0 0 0 23.794 336H62.75a7.304 7.304 0 0 0-7.304-7.304z" fill="#d6eb76"/><path d="M158.057 325.371c-1.115 0-2.169.22-3.179.538-3.2-4.6-8.507-7.624-14.535-7.624-2.808 0-5.431.71-7.786 1.876-3.821-3.507-8.883-5.675-14.479-5.675-7.32 0-13.767 3.673-17.652 9.259-1.227-.387-2.507-.653-3.861-.653-.273 0-.528.063-.796.08-3.169-3.002-7.401-4.886-12.111-4.886-6.028 0-11.335 3.024-14.535 7.624-1.01-.318-2.064-.538-3.179-.538-5.87 0-10.629 4.759-10.629 10.629h113.371c0-5.871-4.759-10.63-10.629-10.63z" fill="#69be5d"/><path d="M74.877 436.835C121.198 483.262 185.229 512 256 512c61.177 0 117.21-21.603 161.229-57.412-88.956-10.562-221.344-24.566-342.352-17.753z" fill="#d0b459"/><path d="M463.47 405.852c15.258-21.101 27.407-44.6 35.71-69.852H12.82c9.398 28.582 23.834 54.823 42.027 77.97 222.486-34.637 317.247-23.516 408.623-8.118z" fill="#d0d75b"/><path d="M25.211 366.605C168 343 356 351.424 485.449 369.22c5.292-10.69 9.958-21.746 13.731-33.22H12.82a248.805 248.805 0 0 0 12.391 30.605z" fill="#d6eb76"/><circle cx="241.333" cy="486.852" r="6.667" fill="#d8c34a"/><circle cx="155.048" cy="463.95" r="6.667" fill="#d8c34a"/><circle cx="183.387" cy="417.333" r="6.667" fill="#d0d75b"/><circle cx="92.387" cy="384" r="4.279" fill="#d6eb76"/><circle cx="132.387" cy="373.499" r="4.279" fill="#d8c34a"/><circle cx="194.333" cy="384" r="4.279" fill="#d6eb76"/><circle cx="250.332" cy="367.333" r="4.279" fill="#d8c34a"/><circle cx="306.946" cy="379.721" r="4.279" fill="#d8c34a"/><circle cx="364.279" cy="371.613" r="4.279" fill="#d6eb76"/><circle cx="424" cy="384" r="4.279" fill="#d8c34a"/><circle cx="241.333" cy="413.97" r="6.667" fill="#d0b459"/><circle cx="374.843" cy="435.037" r="6.667" fill="#d0d75b"/><circle cx="296" cy="424" r="6.667" fill="#d0d75b"/><circle cx="336.901" cy="417.333" r="6.667" fill="#d0b459"/><circle cx="202.667" cy="460.185" r="6.667" fill="#d0d75b"/><circle cx="298.667" cy="473.519" r="6.667" fill="#d0d75b"/><path d="M402.787 132.048c-2.195 0-4.269.432-6.258 1.059-6.298-9.053-16.745-15.006-28.61-15.006-11.864 0-22.312 5.952-28.61 15.006-1.988-.627-4.063-1.059-6.258-1.059-11.554 0-20.92 9.366-20.92 20.92h111.575c.001-11.554-9.365-20.92-20.919-20.92z" fill="#ffeb97"/><path d="M428.922 194.499c-1.2 0-2.335.236-3.422.579-3.444-4.951-9.158-8.207-15.647-8.207s-12.202 3.255-15.647 8.207c-1.087-.343-2.222-.579-3.422-.579-6.319 0-11.441 5.122-11.441 11.441h61.021c-.001-6.319-5.123-11.441-11.442-11.441z" fill="#fff1a9"/><path d="M236.199 112.92c-1.458 0-2.837.287-4.158.704-4.185-6.015-11.126-9.97-19.009-9.97s-14.824 3.955-19.009 9.97c-1.321-.417-2.699-.704-4.158-.704-7.677 0-13.9 6.223-13.9 13.9h74.133c.001-7.676-6.222-13.9-13.899-13.9z" fill="#ffeb97"/><path d="M323 87.386c0-9.085-7.365-16.45-16.45-16.45-1.371 0-2.682.217-3.956.533-4.292-4.635-10.379-7.583-17.194-7.583-12.979 0-23.5 10.521-23.5 23.5H323zm-212.186 99.287c0-8.252-6.69-14.942-14.942-14.942-1.246 0-2.436.197-3.593.484-3.899-4.211-9.427-6.888-15.618-6.888-11.789 0-21.346 9.557-21.346 21.346h55.499z" fill="#fff1a9"/><path d="M342.905 139.928c0-6.931-5.619-12.549-12.549-12.549-1.046 0-2.046.165-3.018.407-3.275-3.536-7.918-5.785-13.117-5.785-9.901 0-17.928 8.027-17.928 17.928h46.612z" fill="#ffeb97"/><path d="M277.75 73.386c0-9.085-7.365-16.45-16.45-16.45-1.371 0-2.682.217-3.956.533-4.292-4.635-10.379-7.583-17.194-7.583-12.979 0-23.5 10.521-23.5 23.5h61.1z" fill="#fff1a9"/><path d="M190.054 117.671c0-10.838-8.786-19.625-19.625-19.625-1.636 0-3.2.259-4.719.636-5.121-5.53-12.381-9.046-20.513-9.046-15.483 0-28.035 12.552-28.035 28.035h72.892z" fill="#ffeb97"/></svg>