<svg xmlns="http://www.w3.org/2000/svg" viewBox="0 0 512 512"><circle cx="256" cy="256" r="256" fill="#36b294"/><path d="M330.865 11.151c-30.329 10.59.847 24.906-18.865 34.182C289.333 56 289.701 70.179 285.333 74.667L349 96.377s71.041 3.81 111.195 5.249C428.055 59.18 383 27.072 330.865 11.151z" fill="#52c883"/><path d="M460.195 101.626c-15.256-20.147-33.5-37.867-53.951-52.731C387.5 52.25 358.5 39 343.25 46.25 334.948 50.197 331.5 60 331.5 60s44.184 23.668 76.728 39.374c18.114.866 37.143 1.721 51.967 2.252z" fill="#36b294"/><path d="M57.174 94.793c1.256.539 2.615.973 4.159 1.207 22 3.333 166.464-16.509 166.464-16.509 2.202-14.825 1.536-23.332-13.131-30.078C200 42.667 201.333 30.667 190 25.333c-4.208-1.98-15.497-4.694-28.293-7.326-41.154 16.321-77.073 42.961-104.533 76.786z" fill="#52c883"/><path d="M58.435 93.337c3.098.143 6.87-.051 11.565-.671C105.333 88 182.352 54.9 182.352 54.9c-9.548-4.669-12.852-16.983-23.852-15.15-13.589 2.265-33.264 5.211-44.571 3.462C93.07 57.155 74.353 74.027 58.435 93.337z" fill="#36b294"/><path d="M12.344 334.592C45.52 437.516 142.041 512 256 512s210.48-74.484 243.656-177.408H12.344z" fill="#b3f4ef"/><path fill="#745154" d="M287.717 336l-3.465-152.259L279.959 80z"/><path d="M321.333 68c-16.664 8.749-37.131-5.333-37.131 11.491l.05 104.25-.414 152.461L336.958 356 320 376h112l68.623-44.341C508.012 307.746 512 282.339 512 256c0-69.407-27.664-132.32-72.514-178.432C405.064 69.486 343.905 56.15 321.333 68z" fill="#745154"/><path d="M439.486 77.568C405.064 69.486 352 37.5 328 56c-23.132 17.831-43.798 6.667-43.798 23.491v1.08c4.256 11.944 12.54 23.88 21.798 21.429 17-4.5 14.561-21.835 27-26.5 16-6 16 17 27 23.378 11.964 6.937-19 70.122-11 75.477 11.341 7.591 23.223-22.505 38.5-36.355s27.487-4.467 39 0c21.905 8.5 21.905-15 47.598-15.909-9.911-16.093-21.501-31.044-34.612-44.523z" fill="#86646a"/><path fill="#745154" d="M283.838 336.202L293.333 356 320 376"/><path d="M512 256c0-7.431-.381-14.77-1.002-22.04L496 232c-19 0-32.091-24-48-24-27.333 0-36 42-59.794 37.398-6.986-1.351-13.972-4.55-20.841-8.398-16.849-9.44-52.365 31-79.648 31l-3.736 15.394-.143 52.808L336.958 356l-11.361 13.398L340 376h92l68.623-44.341C508.012 307.746 512 282.339 512 256z" fill="#674447"/><path fill="#745154" d="M224.283 336l3.465-152.259L232.041 80z"/><path d="M184 56c20.667 14.667 43.798 5 43.798 23.491l-.05 104.25.414 152.259 93.172 23.333L234.666 376H80l-68.623-44.341C3.988 307.746 0 282.339 0 256c0-69.407 27.664-132.32 72.514-178.432C106.936 69.486 154.738 35.233 184 56z" fill="#745154"/><path d="M228.162 336l-.209-77.118L224 256c-24 0-33.82-39.471-64-48-30.667-8.667-53.773 33.387-60.667 24-3.917-5.333 21.164-72-11.333-72-28.944 0-42.662-34.911-42.662-34.911l-3.628-9.067C15.358 156.248 0 204.317 0 256c0 2.837.227 5.618.318 8.433C28.403 293.869 105.378 373.654 107.333 376c2.5 3 66.667-1 66.667-1s41.5-16 47.5-18.899c1.828-.883 5.005-8.914 8.536-19.632l-1.874-.469z" fill="#674447"/><path d="M320 328c-2.078 0-4.164-.883-5.68-2.32-1.445-1.52-2.32-3.602-2.32-5.68 0-2.082.875-4.16 2.32-5.68 2.961-2.961 8.32-2.961 11.359 0 1.438 1.52 2.32 3.598 2.32 5.68 0 2.078-.883 4.16-2.32 5.68-1.523 1.437-3.601 2.32-5.679 2.32zm29 7.95c-2.078 0-4.164-.883-5.68-2.32-1.445-1.52-2.32-3.602-2.32-5.68 0-2.082.875-4.16 2.32-5.68 2.961-2.961 8.32-2.961 11.359 0 1.438 1.52 2.32 3.598 2.32 5.68 0 2.078-.883 4.16-2.32 5.68-1.523 1.437-3.601 2.32-5.679 2.32zm-151-4c-2.078 0-4.164-.883-5.68-2.32-1.445-1.52-2.32-3.602-2.32-5.68 0-2.082.875-4.16 2.32-5.68 2.961-2.961 8.32-2.961 11.359 0 1.438 1.52 2.32 3.598 2.32 5.68 0 2.078-.883 4.16-2.32 5.68-1.523 1.437-3.601 2.32-5.679 2.32zm162 28c-2.078 0-4.164-.883-5.68-2.32-1.445-1.52-2.32-3.602-2.32-5.68 0-2.082.875-4.16 2.32-5.68 2.961-2.961 8.32-2.961 11.359 0 1.438 1.52 2.32 3.598 2.32 5.68 0 2.078-.883 4.16-2.32 5.68-1.523 1.437-3.601 2.32-5.679 2.32zm-189.5-12.099c-2.078 0-4.164-.883-5.68-2.32-1.445-1.52-2.32-3.602-2.32-5.68 0-2.082.875-4.16 2.32-5.68 2.961-2.961 8.32-2.961 11.359 0 1.438 1.52 2.32 3.598 2.32 5.68 0 2.078-.883 4.16-2.32 5.68-1.523 1.437-3.601 2.32-5.679 2.32z" fill="#fff"/><path d="M88 88c4.831 2.944 10.246 29.825 12.5 24.946C115.028 81.5 137.098 105.384 168 80c14-11.5 33.667 9.5 40.667 18.5 11.268 14.488-5.167 72 21.369 114.207l-2.238-133.215C227.798 61 204.667 70.667 184 56c-29.263-20.767-77.064 13.486-111.486 21.568a258.477 258.477 0 0 0-7.854 8.461C77.329 87.188 83 84.953 88 88z" fill="#86646a"/><path fill="#ddf9ff" d="M284.202 79.491h-56.404L218.667 352h74.666z"/><path d="M344 376c0-17.673-14.327-32-32-32-2.472 0-4.852.341-7.163.872C297.996 339.405 289.438 336 280 336c-7.323 0-14.096 2.112-20 5.548-5.904-3.436-12.677-5.548-20-5.548-14.826 0-27.62 8.159-34.529 20.142A23.882 23.882 0 0 0 192 352c-13.255 0-24 10.745-24 24" fill="#fff"/><path d="M208.667 408S206 386.667 178.5 384.411c-29.243-2.399-26.5-28.512-53.833-48.512-8.73-6.387-30.555-15.87-44.667-39.899-18.5-31.5-48.5-28-79.163-59.797C.336 242.744 0 249.331 0 256c0 56.923 18.603 109.488 50.027 152h158.64z" fill="#86646a"/><path d="M111.75 330.523c1.134-.277 2.098-.59 3.107-.894C104.449 323.136 90.226 313.412 80 296c-17.742-30.209-46.063-28.315-75.4-56.148l-4.255 4.342C.144 248.107 0 252.036 0 256c0 15.179 1.415 30.015 3.95 44.466 18.01-.616 38.507-5.421 43.8-.716 6.75 6 35.25 37.796 64 30.773z" fill="#674447"/><path d="M418.667 384.411c-6.492 11.406-18.435 26.922-39.517 26.922-59 0-83.15 36.667-83.15 36.667h129.237c37.604-33.173 65.415-77.178 78.464-127.178-51.477 5.55-68.018 33.694-85.034 63.589z" fill="#86646a"/><path d="M496.959 342.296c-8.766-1.488-20.656-2.404-27.625-1.63-5.244.583-17.996 6.511-30.695 13.002-7.703 9.367-13.818 19.932-19.973 30.742-3.955 6.949-9.973 15.386-18.809 20.948l-.007.041c17.015 12.644 48.716-13.882 75.725-18.003a254.272 254.272 0 0 0 21.384-45.1z" fill="#674447"/><path d="M115.018 329.741l.01-.003C104.606 323.245 90.28 313.504 80 296c-18.5-31.5-48.5-28-79.163-59.797C.336 242.744 0 249.331 0 256c0 8.189.491 16.256 1.244 24.249C16.743 289.956 34.035 282.687 50 292c16 9.333 34.702 44.149 65.018 37.741z" fill="#52c883"/><path d="M144.917 392.485c-22.414 0-40.583 13.214-40.583 29.515H185.5c0-16.301-18.17-29.515-40.583-29.515z" fill="#674447"/><path d="M259.53 427.5c-15.568 0-28.188 9.178-28.188 20.5h56.375c0-11.322-12.62-20.5-28.187-20.5z" fill="#86646a"/><path d="M231.342 434.783c-10.037 0-18.174 5.918-18.174 13.217h36.348c0-7.3-8.136-13.217-18.174-13.217z" fill="#86646a"/><path d="M95.417 399.424c-13.025 0-23.583 7.679-23.583 17.151H119c0-9.472-10.558-17.151-23.583-17.151zm294.532 33.818c-28.378 0-51.383 16.731-51.383 37.37h56.773c11.534-7.508 22.393-15.93 32.541-25.146-9.396-7.493-22.886-12.224-37.931-12.224z" fill="#674447"/><path d="M418.666 384.411c-3.961 6.959-9.988 15.413-18.846 20.975.012.003.019.01.03.014 23.356 6.357 50.005-40.643 85.608-36.164 7.599-15.352 13.829-31.503 18.242-48.414-51.476 5.55-68.016 33.694-85.034 63.589z" fill="#52c883"/><path d="M284.202 79.491h-56.404l-6.027 179.879c17.563-12.802 19.563-126.704 28.896-119.37 9.333 7.333 4 57.821 12 57.821s8.236-77.163 23.451-61.159l-1.916-57.171z" fill="#aee1f9"/></svg>