<svg xmlns="http://www.w3.org/2000/svg" viewBox="0 0 512 512"><circle cx="256" cy="256" r="256" fill="#8282df"/><path d="M256 144.015c-115.351 0-208.86 93.51-208.86 208.861 0 22.543 3.615 44.231 10.223 64.571C104.303 475.129 175.834 512 256 512s151.697-36.871 198.637-94.554a208.584 208.584 0 0 0 10.224-64.571c-.001-115.35-93.51-208.86-208.861-208.86z" fill="#9da6ed" opacity=".4"/><circle cx="256" cy="352.875" r="96.875" fill="#9da6ed" opacity=".65"/><path d="M30.764 134.318l3.838 16.552 114.667 40.592 7.168-12.436-2.093-8.743a51.869 51.869 0 0 0 2.957-17.32c0-19.42-10.674-36.323-26.458-45.237.285-2.203.482-4.433.482-6.714 0-21.412-13.025-39.666-31.523-47.617-28.275 21.8-51.902 49.333-69.038 80.923z" fill="#6464cb"/><path d="M157.301 178.939c-.296 0-.569.08-.864.087-3.979-19.802-21.455-34.721-42.429-34.721-.998 0-1.931.227-2.912.293-7.055-20.318-26.318-34.927-49.039-34.927-6.532 0-12.722 1.328-18.481 3.529C17.419 151.965 1.673 198.297.138 248.208h157.164c19.128 0 34.634-15.507 34.634-34.634 0-19.129-15.506-34.635-34.635-34.635zm312.503-63.385c-20.114 2.186-36.777 15.764-43.258 34.253-.984-.056-1.959-.15-2.958-.15-22.666 0-41.883 14.574-48.921 34.843-.974-.082-1.91-.292-2.905-.292-19.082 0-34.551 15.469-34.551 34.551-9.541 0-17.275 7.734-17.275 17.275 0 9.541 7.734 17.275 17.275 17.275h174.651c-.567-50.859-15.951-98.139-42.058-137.755z" fill="#5a5ab7"/><path d="M199.15 6.607a45.098 45.098 0 0 0-5.08 20.802c0 25.036 20.296 45.333 45.333 45.333.426 0 .821-.113 1.243-.125 4 15.679 18.097 27.325 35.023 27.325 0 20.029 16.237 36.266 36.266 36.266 13.847 0 25.736-7.85 31.846-19.258 8.917 6.39 19.813 10.191 31.62 10.191 30.044 0 54.399-24.355 54.399-54.399 0-1.624-.268-3.175-.407-4.763C383.779 25.922 322.87.208 255.936.208c-19.526 0-38.513 2.258-56.786 6.399z" fill="#6464cb"/><path d="M18.68 352C56.665 445.802 148.576 512 256 512s199.336-66.198 237.32-160H18.68z" fill="#5f5fad"/><path d="M256 378.667c-77.965 0-150.687 7.41-212.273 20.19C89.701 467.067 167.552 512 256 512c88.447 0 166.299-44.932 212.273-113.143-61.586-12.78-134.308-20.19-212.273-20.19z" fill="#6464cb"/><path d="M256 484.522c72.706 0 131.646-58.941 131.646-131.646H124.354c0 72.705 58.94 131.646 131.646 131.646z" fill="#9da6ed" opacity=".2"/><path d="M256 384c-4.422 0-8-3.582-8-8V136c0-4.418 3.578-8 8-8s8 3.582 8 8v240c0 4.418-3.578 8-8 8zm-32-68c-2.211 0-4-1.789-4-4V192c0-2.211 1.789-4 4-4s4 1.789 4 4v120c0 2.211-1.789 4-4 4zm-32 0c-2.211 0-4-1.789-4-4v-94.434c0-2.211 1.789-4 4-4s4 1.789 4 4V312c0 2.211-1.789 4-4 4zm-32 0c-2.211 0-4-1.789-4-4v-69.914c0-2.211 1.789-4 4-4s4 1.789 4 4V312c0 2.211-1.789 4-4 4zm-32 0c-2.211 0-4-1.789-4-4v-48c0-2.211 1.789-4 4-4s4 1.789 4 4v48c0 2.211-1.789 4-4 4zm-32 0c-2.211 0-4-1.789-4-4v-29.582c0-2.211 1.789-4 4-4s4 1.789 4 4V312c0 2.211-1.789 4-4 4zm192 0c-2.211 0-4-1.789-4-4V192c0-2.211 1.789-4 4-4s4 1.789 4 4v120c0 2.211-1.789 4-4 4zm32 0c-2.211 0-4-1.789-4-4v-94.434c0-2.211 1.789-4 4-4s4 1.789 4 4V312c0 2.211-1.789 4-4 4zm32 0c-2.211 0-4-1.789-4-4v-69.914c0-2.211 1.789-4 4-4s4 1.789 4 4V312c0 2.211-1.789 4-4 4zm32 0c-2.211 0-4-1.789-4-4v-48c0-2.211 1.789-4 4-4s4 1.789 4 4v48c0 2.211-1.789 4-4 4zm32 0c-2.211 0-4-1.789-4-4v-29.582c0-2.211 1.789-4 4-4s4 1.789 4 4V312c0 2.211-1.789 4-4 4z" fill="#5a5a84"/><path d="M496 316c-49.578 0-191.172-88.281-243.266-161.684a4.003 4.003 0 0 1 .953-5.578 3.999 3.999 0 0 1 5.578.945C313.867 226.621 452.5 308 496 308c2.211 0 4 1.789 4 4s-1.789 4-4 4z" fill="#5a5a84"/><path d="M16 316c-2.211 0-4-1.789-4-4s1.789-4 4-4c43.5 0 182.133-81.379 236.734-158.316a4.003 4.003 0 1 1 6.531 4.633C207.172 227.719 65.578 316 16 316z" fill="#5a5a84"/><path d="M8.065 320h495.869c1.354-5.262 2.483-10.612 3.506-16H4.56c1.022 5.388 2.151 10.738 3.505 16z" fill="#6574a7"/><path d="M11.189 331H500.81c1.609-5.257 3.006-10.604 4.279-16H6.911c1.273 5.396 2.67 10.743 4.278 16zM226 367.975h60V384h-60z" fill="#5a5a84"/><circle cx="164" cy="89.227" r="5" fill="#fff"/><circle cx="224" cy="115.554" r="5" fill="#fff"/><circle cx="324" cy="178.939" r="5" fill="#fff"/><circle cx="371" cy="156" r="5" fill="#fff"/><circle cx="237" cy="201.5" r="5" fill="#fff"/><circle cx="166.709" cy="58.395" r="5" fill="#9da6ed" opacity=".7"/><circle cx="201" cy="92" r="5" fill="#9da6ed" opacity=".4"/><circle cx="201" cy="169.749" r="5" fill="#9da6ed" opacity=".4"/><circle cx="179" cy="131.208" r="5" fill="#9da6ed" opacity=".7"/><circle cx="343" cy="146" r="5" fill="#9da6ed" opacity=".4"/><circle cx="403.5" cy="136.208" r="5" fill="#9da6ed" opacity=".7"/><circle cx="301.5" cy="166" r="5" fill="#9da6ed" opacity=".7"/></svg>