<svg xmlns="http://www.w3.org/2000/svg" viewBox="0 0 512 512"><circle cx="256" cy="256" r="256" fill="#b26483"/><path d="M413.274 295.635c-1.717 0-3.34.338-4.895.828-4.926-7.082-13.099-11.738-22.379-11.738s-17.453 4.656-22.379 11.738c-1.555-.49-3.178-.828-4.895-.828-9.038 0-16.365 7.327-16.365 16.365h87.277c.001-9.038-7.326-16.365-16.364-16.365z" fill="#9b5a6f"/><circle cx="211.034" cy="272" r="152" fill="#ff7998" opacity=".35"/><circle cx="149.725" cy="350.845" r="71.308" fill="#ff7998"/><path d="M294.079 312c0-15.303 12.406-27.71 27.71-27.71 2.31 0 4.518.365 6.663.898 7.23-7.808 17.482-12.773 28.963-12.773C379.277 272.415 397 290.138 397 312H294.079z" fill="#9b5a6f"/><path d="M496.473 344H136l79.985 112s62.61 27.165 110.39 46.124C405.2 479.625 468.52 420.364 496.473 344z" fill="#ff4f70"/><path d="M159.5 396.5h110.333C256 380.333 229.086 386.174 209.167 371c-18.463-14.064-35.07-46.166-70.167-52-35.096-5.835-53-7-53-7l66.5 93 7-1.387V396.5z" fill="#835354"/><path d="M296 288c-2.518 0-4.898.496-7.179 1.215C281.596 278.829 269.611 272 256 272s-25.596 6.829-32.821 17.215c-2.281-.719-4.661-1.215-7.179-1.215-13.255 0-24 10.745-24 24h128c0-13.255-10.745-24-24-24z" fill="#b26483"/><path d="M336.5 147.8h-49.974c.896-2.515 1.474-5.181 1.474-8 0-10.813-7.188-19.977-17.031-22.969C267.977 106.984 258.813 99.8 248 99.8h-48c-10.813 0-19.977 7.184-22.969 17.031C167.188 119.824 160 128.988 160 139.8c0 2.819.578 5.485 1.475 8h-17.192c-13.234 0-24 10.766-24 24s10.766 24 24 24H192c13.234 0 24-10.766 24-24 0-2.819-.578-5.485-1.474-8h10.948c-.896 2.515-1.474 5.181-1.474 8 0 13.234 10.766 24 24 24h1.367a24.006 24.006 0 0 0-1.367 8c0 13.234 10.766 24 24 24h32c13.234 0 24-10.766 24-24 0-2.805-.484-5.496-1.367-8h9.867c13.234 0 24-10.766 24-24s-10.766-24-24-24zM256 512c68.183 0 130.09-26.708 175.969-70.166-35.016-.854-43.28-8.492-105.032-8.492-26.177 0-94.685 23.268-120.093-25.734-20.015-38.601-56.205-69.597-85.781-77.202-25.019-6.434-32.167-30.738-34.312-60.047-2.252-30.78-27.164-31.453-42.89-51.468-14.833-18.879-14.423-40.28-31.122-42.652A255.643 255.643 0 0 0 0 256c0 141.385 114.615 256 256 256z" fill="#674447"/><path d="M136.458 341.113a8.208 8.208 0 0 1-5.822-2.412c-3.216-3.216-13.238-5.966-9.551-8.63 20.52-14.827 53.809-58.967 65.613-83.147 2.822-5.777 2.324-6.364-2.404-11.953-5.934-7.02-14.9-17.622-14.9-42.071a8.232 8.232 0 0 1 8.234-8.234 8.232 8.232 0 0 1 8.234 8.234c0 18.418 5.846 25.333 11.008 31.436 5.42 6.405 12.166 14.377 4.624 29.816-12.649 25.908-42.319 68.618-60.66 86.96-1.608 1.609-2.269.001-4.376.001z" fill="#674447"/><path d="M185.871 275.241a8.233 8.233 0 0 1-5.235-14.598c9.4-7.707 22.82-11.109 37.029-14.707 18.237-4.62 37.093-9.392 42.947-23.295 1.769-4.197 6.626-6.147 10.783-4.394 4.197 1.765 6.159 6.594 4.398 10.787-9.038 21.458-32.968 27.52-54.084 32.868-12.375 3.132-24.075 6.095-30.62 11.471a8.215 8.215 0 0 1-5.218 1.868z" fill="#674447"/><path d="M504 272c-13.611 0-25.596 6.829-32.821 17.215-2.281-.719-4.661-1.215-7.179-1.215-13.255 0-24 10.745-24 24h65.782a255.638 255.638 0 0 0 5.612-39.237c-2.403-.453-4.857-.763-7.394-.763z" fill="#9b5a6f"/></svg>