<svg xmlns="http://www.w3.org/2000/svg" viewBox="0 0 512 512"><circle cx="256" cy="256" r="256" fill="#9af4ef"/><path fill="#f26e64" d="M267.67 178.259V188H148.33v-9.741H144V221h128v-42.741z"/><path d="M306.963 242.63C392 200.5 400 230.647 456 263.488c9.843 5.773 45.333 5.326 45.333 5.326L471.96 280 392 272l-85.037-29.37z" fill="#e0b587"/><path d="M508.725 296.81C510.855 283.517 512 269.894 512 256c0-3.463-.125-6.896-.261-10.326C465.333 221 421.24 255.5 393.394 255.5l115.331 41.31z" fill="#ca9f7c"/><path d="M.426 270.401c14.967 1.297 32.258 2.392 34.24 1.599C38 270.667 72 243.181 72 243.181c-13.825-3.253-45.657-28.39-68.332-30.188C1.3 226.983 0 241.336 0 256c0 4.835.162 9.632.426 14.401z" fill="#e0b587"/><path d="M144 248.451s-25.222-17.804-44.51-17.804c-26.323 0-42.869 24.496-99.461 26.509a257.73 257.73 0 0 0 3.16 39.172c22.343-.748 91.61-10.554 101.477-9.829C116 287.333 186 276 180.667 272 175.333 268 144 248.451 144 248.451z" fill="#ca9f7c"/><path d="M1.156 280C13.262 410.125 122.713 512 256 512s242.738-101.875 254.844-232c0 0-42.844-34.667-121.51-24-88.949 12.061-197.885 5.907-253.333 8-33.924 1.28-134.845 16-134.845 16z" fill="#94d75b"/><path d="M4.291 302.487C151 263.488 313.734 271.436 385 268.5c64.418-2.654 101.959 8.911 124.347 24.09a256.683 256.683 0 0 0 1.497-12.59S468 245.333 389.334 256c-88.95 12.061-197.885 5.907-253.333 8-33.923 1.28-134.844 16-134.844 16 .354 3.811.809 7.593 1.329 11.353a264.787 264.787 0 0 0 1.805 11.134z" fill="#b0eb81"/><path d="M376 345.5c-48.613 9.391-201-18.5-247-9.5-29.21 5.715-68.482 17.088-103.259 31.789 30.925 63.603 87.374 112.468 156.064 133.246l.17.046c1.431.434 106.138-10.352 195.263-19.639 42.896-23.126 78.46-58.091 102.24-100.581C458.955 363.649 422.675 336.483 376 345.5z" fill="#71be63"/><path fill="#f26e64" d="M272 239h88v33h-88z"/><path fill="#f3e6d1" d="M228.396 272H370v147H228.396z"/><path fill="#ccbebe" d="M272 272h88v7.745h-88z"/><path d="M379.833 132.099a3.833 3.833 0 1 0-7.666 0c0 1.541.922 2.85 2.233 3.459v28.874h3.2v-28.874c1.312-.609 2.233-1.918 2.233-3.459z" fill="#ec6e4d"/><path fill="#fffce5" d="M360 199.484h32v172h-32z"/><path fill="#ebd7c8" d="M360 199.484h16v172h-16z"/><path fill="#ff8562" d="M392 199.484l-16-56-16 56"/><path fill="#d2d2c8" d="M360 220.109h32v7.75h-32z"/><path fill="#ccbebe" d="M360 220.109h16v7.75h-16z"/><path fill="#d2d2c8" d="M360 199.484h32v7.75h-32z"/><path fill="#ccbebe" d="M360 199.484h16v7.75h-16z"/><path fill="#ec6e4d" d="M376 143.484l-16 56h16z"/><path d="M376 236.723a4.375 4.375 0 0 0-4.375 4.375v9.148h8.75v-9.148a4.375 4.375 0 0 0-4.375-4.375zm0 21.75a4.375 4.375 0 0 0-4.375 4.375v9.148h8.75v-9.148a4.375 4.375 0 0 0-4.375-4.375z" fill="#63a0b5"/><path d="M315.833 204.611a3.833 3.833 0 1 0-7.666 0c0 1.541.922 2.85 2.233 3.459v28.874h3.2V208.07c1.312-.609 2.233-1.918 2.233-3.459z" fill="#ec6e4d"/><path fill="#fffce5" d="M296 271.996h32v172h-32z"/><path fill="#ebd7c8" d="M296 271.996h16v172h-16z"/><path fill="#ff8562" d="M328 271.996l-16-56-16 56"/><path fill="#d2d2c8" d="M296 292.621h32v7.75h-32z"/><path fill="#ccbebe" d="M296 292.621h16v7.75h-16z"/><path fill="#d2d2c8" d="M296 271.995h32v7.75h-32z"/><path fill="#ccbebe" d="M296 271.995h16v7.75h-16z"/><path fill="#ec6e4d" d="M312 215.996l-16 56h16z"/><path d="M312 309.235a4.375 4.375 0 0 0-4.375 4.375v9.148h8.75v-9.148a4.375 4.375 0 0 0-4.375-4.375zm0 21.75a4.375 4.375 0 0 0-4.375 4.375v9.148h8.75v-9.148a4.375 4.375 0 0 0-4.375-4.375z" fill="#63a0b5"/><path fill="#f3e6d1" d="M144 221h128v147H144z"/><path fill="#ccbebe" d="M144 221h128v7.333H144z"/><path d="M219.833 84.615a3.833 3.833 0 1 0-7.666 0c0 1.541.922 2.85 2.233 3.459v28.874h3.2V88.075c1.312-.61 2.233-1.919 2.233-3.46z" fill="#ec6e4d"/><path fill="#fffce5" d="M200 152h32v172h-32z"/><path fill="#ebd7c8" d="M200 152h16v172h-16z"/><path fill="#ff8562" d="M232 152l-16-56-16 56"/><path fill="#d2d2c8" d="M200 172.625h32v7.75h-32z"/><path fill="#ccbebe" d="M200 172.625h16v7.75h-16z"/><path fill="#d2d2c8" d="M200 152h32v7.75h-32z"/><path fill="#ccbebe" d="M200 152h16v7.75h-16z"/><path fill="#ec6e4d" d="M216 96l-16 56h16z"/><path d="M216 189.239a4.375 4.375 0 0 0-4.375 4.375v9.148h8.75v-9.148a4.375 4.375 0 0 0-4.375-4.375zm0 21.75a4.375 4.375 0 0 0-4.375 4.375v9.148h8.75v-9.148a4.375 4.375 0 0 0-4.375-4.375zm35.625 24.375a4.375 4.375 0 0 0-4.375 4.375v9.148H256v-9.148a4.375 4.375 0 0 0-4.375-4.375zm0 21.75a4.375 4.375 0 0 0-4.375 4.375v9.148H256v-9.148a4.375 4.375 0 0 0-4.375-4.375zm0 21.75a4.375 4.375 0 0 0-4.375 4.375v9.148H256v-9.148a4.375 4.375 0 0 0-4.375-4.375z" fill="#63a0b5"/><path d="M66.453 157.62c0-14.576 11.816-26.392 26.392-26.392 2.2 0 4.303.348 6.346.855 6.887-7.437 16.651-12.166 27.586-12.166 20.823 0 37.703 16.88 37.703 37.703H66.453zm332.542 11.815c0-6.74 5.464-12.204 12.204-12.204 1.017 0 1.99.161 2.935.395 3.184-3.439 7.7-5.626 12.757-5.626 9.629 0 17.435 7.806 17.435 17.435h-45.331zM385.5 105.146c0-12.216-9.695-22.119-21.655-22.119-1.805 0-3.531.292-5.207.717-5.651-6.233-13.663-10.196-22.635-10.196-17.085 0-30.936 14.147-30.936 31.599H385.5z" fill="#fff"/><path d="M326.621 105.146c0-8.554-6.789-15.489-15.165-15.489-1.264 0-2.473.204-3.646.502-3.957-4.365-9.567-7.14-15.851-7.14-11.964 0-21.664 9.907-21.664 22.128h56.326z" fill="#fff"/><path d="M191.583 129.59c0-9.774-7.924-17.698-17.697-17.698-1.475 0-2.886.233-4.256.573-4.618-4.987-11.166-8.158-18.498-8.158-13.963 0-25.282 11.319-25.282 25.282h65.733zm-5.018-60.659c0-8.753 7.096-15.849 15.849-15.849 1.321 0 2.584.209 3.811.514 4.136-4.466 10-7.306 16.567-7.306 12.505 0 22.642 10.137 22.642 22.642h-58.869zM414.634 183c0-7.328 5.941-13.269 13.269-13.269 1.106 0 2.163.175 3.191.43 3.462-3.739 8.371-6.117 13.869-6.117 10.469 0 18.955 8.487 18.955 18.955h-49.284zm-81.304-25.088c0-10.37-8.407-18.777-18.777-18.777-1.565 0-3.062.248-4.515.608-4.9-5.291-11.847-8.656-19.627-8.656-14.814 0-26.824 12.01-26.824 26.824h69.743z" fill="#fff" opacity=".6"/><path d="M192 304c-17.206 16.791-35.333-5.333-56 0-15.613 4.029-44 85-64 112l-8.302 8.855C110.603 478.254 179.335 512 256 512c70.507 0 134.333-28.52 180.618-74.636C424 418 408.908 313.062 404.908 299.062S365.333 284.667 360 288c-11.872 7.42-30 88-56 88-15.333 0-29.75-89.5-40-96-16.023-10.161-58.422 10.75-72 24z" fill="#86646a"/><path d="M348.667 375.333c-6.897-19.101-4.954-55.726 5.44-79.331C342.397 318.196 326.024 376 304 376c-4.032 0-7.89-5.76-11.604-14.445 6.52 18.17 10.417 18.154 35.604 36.732 36.667 27.046 42 57.379 70.838 70.156 3.25-2.19 6.44-4.461 9.582-6.794C392 448 355.928 395.445 348.667 375.333zm-81.245 136.379C234.663 482.032 226.536 410.536 216 400c-16.667-16.667-43.333 1.333-56-24-7.751-15.503-9.333-50.667-40-48l-3.019.754C102.445 355.935 85.359 397.966 72 416l-8.302 8.855C110.603 478.254 179.335 512 256 512c3.831 0 7.632-.122 11.422-.288z" fill="#745154"/><path d="M202.488 506.336v-27.214a3.362 3.362 0 0 0-3.364-3.361 3.362 3.362 0 0 0-3.364 3.361v25.654c2.236.54 4.47 1.079 6.728 1.56zm-101.457-80.64a2.906 2.906 0 0 1-2.907-2.905v-31.287c0-1.604 1.301-2.905 2.907-2.905s2.907 1.301 2.907 2.905v31.287a2.906 2.906 0 0 1-2.907 2.905z" fill="#86646a"/><path d="M119.338 388.839c0 10.112-8.197 18.309-18.309 18.309s-18.309-8.197-18.309-18.309 8.197-41.194 18.309-41.194 18.309 31.083 18.309 41.194z" fill="#43ab5f"/><path d="M101.03 347.645c-2.538 0-4.955 1.962-7.153 5.056 9.255 0 16.757 28.449 16.757 37.703 0 8.05-5.681 14.762-13.25 16.376 1.178.238 2.397.368 3.645.368 10.111 0 18.309-8.197 18.309-18.308.001-10.112-8.197-41.195-18.308-41.195z" fill="#71be63"/><path d="M171.496 441.569a2.64 2.64 0 0 1-2.641-2.639v-28.421a2.64 2.64 0 0 1 2.641-2.639 2.64 2.64 0 0 1 2.641 2.639v28.421a2.64 2.64 0 0 1-2.641 2.639z" fill="#86646a"/><path d="M188.127 408.088c0 9.185-7.446 16.632-16.632 16.632-9.185 0-16.632-7.446-16.632-16.632 0-9.185 7.446-37.421 16.632-37.421 9.186 0 16.632 28.236 16.632 37.421z" fill="#43ab5f"/><path d="M171.495 370.667c-2.306 0-4.501 1.782-6.498 4.593 8.407 0 15.222 25.843 15.222 34.25 0 7.313-5.161 13.41-12.036 14.876 1.071.216 2.177.334 3.311.334 9.185 0 16.632-7.446 16.632-16.632.001-9.185-7.445-37.421-16.631-37.421z" fill="#71be63"/><path d="M220.309 476.038c0 11.701-9.485 21.186-21.186 21.186s-21.186-9.485-21.186-21.186 9.485-47.668 21.186-47.668 21.186 35.967 21.186 47.668z" fill="#43ab5f"/><path d="M199.123 428.369c-2.937 0-5.734 2.27-8.277 5.851h.001c10.709 0 19.39 32.919 19.39 43.629 0 9.315-6.574 17.082-15.332 18.95a21.24 21.24 0 0 0 4.218.425c11.701 0 21.186-9.485 21.186-21.186s-9.485-47.669-21.186-47.669z" fill="#71be63"/><path d="M119.153 445.551a3.11 3.11 0 0 1-3.112-3.109V408.95a3.11 3.11 0 0 1 3.112-3.109 3.11 3.11 0 0 1 3.112 3.109v33.491a3.11 3.11 0 0 1-3.112 3.11z" fill="#86646a"/><path d="M138.751 406.097c0 10.824-8.775 19.599-19.599 19.599s-19.599-8.775-19.599-19.599S108.328 362 119.152 362s19.599 33.273 19.599 44.097z" fill="#43ab5f"/><path d="M119.152 362c-2.717 0-5.304 2.1-7.657 5.412h.001c9.907 0 17.938 30.453 17.938 40.36 0 8.617-6.082 15.802-14.184 17.53 1.262.255 2.565.393 3.902.393 10.824 0 19.599-8.775 19.599-19.599 0-10.823-8.775-44.096-19.599-44.096z" fill="#71be63"/><path d="M330.849 406.942a2.75 2.75 0 0 1-2.752-2.75v-29.615a2.75 2.75 0 0 1 2.752-2.75 2.75 2.75 0 0 1 2.752 2.75v29.615a2.75 2.75 0 0 1-2.752 2.75z" fill="#86646a"/><path d="M348.179 372.055c0 9.571-7.759 17.33-17.33 17.33s-17.33-7.759-17.33-17.33 7.759-38.993 17.33-38.993 17.33 29.422 17.33 38.993z" fill="#43ab5f"/><path d="M330.849 333.063c-2.403 0-4.69 1.857-6.771 4.786 8.76 0 15.861 26.928 15.861 35.688 0 7.62-5.378 13.973-12.542 15.501 1.115.225 2.268.348 3.451.348 9.571 0 17.33-7.759 17.33-17.33.001-9.572-7.758-38.993-17.329-38.993z" fill="#71be63"/><path d="M352.599 426.164a2.418 2.418 0 0 1-2.419-2.417v-26.031a2.417 2.417 0 0 1 2.419-2.417 2.418 2.418 0 0 1 2.419 2.417v26.031a2.417 2.417 0 0 1-2.419 2.417z" fill="#86646a"/><path d="M367.832 395.499c0 8.413-6.82 15.233-15.233 15.233s-15.233-6.82-15.233-15.233 6.82-34.274 15.233-34.274 15.233 25.861 15.233 34.274z" fill="#43ab5f"/><path d="M352.599 361.224c-2.112 0-4.123 1.632-5.951 4.207 7.7 0 13.942 23.67 13.942 31.37 0 6.698-4.727 12.282-11.024 13.625a15.31 15.31 0 0 0 3.033.306c8.413 0 15.233-6.82 15.233-15.233 0-8.414-6.82-34.275-15.233-34.275z" fill="#71be63"/><path d="M283.75 361.224c-2.639-12.338 1.161-12.182 5.367-8.627-9.583-26.998-18.278-68.26-25.117-72.597-11.238-7.126-35.423 1.038-53.567 11.117a229.81 229.81 0 0 0-6.767 5.211C183.333 312.657 191.819 318.576 206 317c15.75-1.75 27.493 30.645 31.75 30.645 9.25 0-1.205-23.001 10-19.788 4.86 1.394 35.156 77.086 41.367 75.644 5.383-1.251-2.367-28.251-5.367-42.277zM328 398.288a809.49 809.49 0 0 0-10.115-7.327c20.974 20.165 44.904 75.623 60.972 89.533 6.806-3.734 13.366-7.838 19.778-12.153-28.652-12.832-34.058-43.074-70.635-70.053zm76.908-99.226c-2.323-8.129-15.28-11.652-26.792-12.541 6.095.791 1.424 5.129 8.384 10.29 7 5.19 11.772 7.19 12.136 18.69.328 10.351 2.8 99.326 21.518 136.849 5.694-4.769 11.207-9.747 16.465-14.985C424 418 408.908 313.062 404.908 299.062zm-97.241 136.666c-10.031-10.816-8.333 6.304-3.667 16.622 3.176 7.022 13.75 31.176 25.648 48.841a253.73 253.73 0 0 0 27.988-10.227c-18.577-16.484-37.969-42.297-49.969-55.236z" fill="#926e79"/><path d="M165.817 235.364a4.375 4.375 0 0 0-4.375 4.375v9.148h8.75v-9.148a4.375 4.375 0 0 0-4.375-4.375zm0 21.75a4.375 4.375 0 0 0-4.375 4.375v9.148h8.75v-9.148a4.375 4.375 0 0 0-4.375-4.375zm11.422-21.75a4.375 4.375 0 0 0-4.375 4.375v9.148h8.75v-9.148a4.375 4.375 0 0 0-4.375-4.375zm0 21.75a4.375 4.375 0 0 0-4.375 4.375v9.148h8.75v-9.148a4.375 4.375 0 0 0-4.375-4.375zm-11.422 21.75a4.375 4.375 0 0 0-4.375 4.375v9.148h8.75v-9.148a4.375 4.375 0 0 0-4.375-4.375zm11.422 0a4.375 4.375 0 0 0-4.375 4.375v9.148h8.75v-9.148a4.375 4.375 0 0 0-4.375-4.375z" fill="#63a0b5"/></svg>