<svg xmlns="http://www.w3.org/2000/svg" viewBox="0 0 512 512"><circle cx="256" cy="256" r="256" fill="#8dd9ff"/><path d="M511.282 274.235c.425-6.03.718-12.097.718-18.235 0-9.165-.503-18.21-1.442-27.125-9.648 1.634-57.322 14.148-68.419 14.474-11.862.349-29.138-11.015-37.805-8.015-8.667 3-67.399 11.872-70.333 11.836-2.935-.036-34.5-12.669-41-12.669s-58.5 15-73.5 12.357-38.5-15.076-45.389-15.076S85 258 56.155 241.285 17.5 233 .594 243l-.285.789A258.863 258.863 0 0 0 0 256c0 18.352 1.97 36.237 5.64 53.495l388.414 16.509 117.228-51.769z" fill="#e5d7a8"/><path d="M256 0C185.272 0 121.246 28.684 74.914 75.051 104.374 146.051 174.342 196 256 196s151.626-49.949 181.086-120.949C390.754 28.684 326.728 0 256 0z" fill="#fffff4" opacity=".3"/><path d="M350.398 230.4c-19.847 0-75.419 45.291-112.476 51.815 25.706 35.526 62.066 57.725 102.412 57.725 40.887 0 77.691-22.784 103.45-59.149-21.305-10.086-70.825-50.391-93.386-50.391z" fill="#ffc868"/><path d="M442.138 279.941c-22.081-11.214-69.718-49.541-91.74-49.541-.7 0-1.542.179-2.329.288-8.734 2.565-16.137 18.291-7.735 36.215 8.08 17.237 22.036 44.107 0 73.005l.02.032c14.596-.003 38.871 11.396 57.565 13.66 19.601-19.898 34.933-45.106 44.219-73.659z" fill="#ffdc87"/><path d="M446.386 370.167c21.723-34.511 34.938-71.563 47.043-110.8a45.772 45.772 0 0 1 2.082-5.431c-16.46-9.638-31.897-16.926-42.465-16.926-16.32 0-52.481 25.131-88.137 43.907 1.699 26.511 7.434 51.911 16.596 75.618 18.48 8.913 38.44 13.826 59.29 13.826 1.875 0 3.729-.116 5.591-.194z" fill="#f9be58"/><path d="M453.045 237.01c-.852 0-1.877.217-2.835.35-10.632 3.122-19.644 22.267-9.417 44.087 9.836 20.984 26.827 53.695 0 88.875l.025.039c10.356-.002 24.727 4.707 39.41 9.185 19.029-34.462 30.296-73.779 31.572-115.622-22.175-14.133-44.73-26.914-58.755-26.914z" fill="#ffd267"/><path d="M.594 272.602c1.699 26.511 7.434 51.911 16.596 75.618 18.48 8.913 38.44 13.826 59.29 13.826 49.775 0 94.58-27.737 125.938-72.006-25.937-12.279-86.222-61.345-113.687-61.345-16.32 0-52.482 25.131-88.137 43.907z" fill="#ffc868"/><path d="M200.413 289.005c-26.88-13.652-84.873-60.31-111.683-60.31-.852 0-1.877.218-2.835.35-10.632 3.122-19.644 22.267-9.417 44.087 9.836 20.984 26.826 53.695 0 88.875l.025.039c17.769-.003 47.321 13.873 70.079 16.63 23.862-24.224 42.527-54.912 53.831-89.671z" fill="#ffdc87"/><path d="M238.432 237.01c-24.161 0-91.814 55.136-136.926 63.078 31.294 43.249 75.558 70.273 124.675 70.273 49.775 0 94.58-27.737 125.938-72.007-25.937-12.278-86.222-61.344-113.687-61.344z" fill="#f9be58"/><path d="M350.115 297.319c-26.88-13.652-84.873-60.31-111.683-60.31-.852 0-1.877.218-2.835.35-10.632 3.122-19.644 22.267-9.417 44.087 9.836 20.984 26.826 53.695 0 88.875l.025.039c17.769-.003 47.321 13.873 70.079 16.63 23.861-24.223 42.527-54.911 53.831-89.671z" fill="#ffd267"/><path d="M468.88 347.177c.035-1.058.118-2.113.12-3.177.007-4.327.9-8.391 2.222-12.29-38.21-21.607-91.916-55.71-119.725-55.71-31.301 0-118.944 62.846-177.386 71.899C214.651 397.197 271.996 428 335.625 428c51.83 0 99.479-20.456 137.286-54.675-4.203-7.857-5.515-17.332-4.031-26.148z" fill="#f9be58"/><path d="M496.181 344.744C461.358 329.183 386.229 276 351.497 276c-1.104 0-2.432.248-3.672.399-13.774 3.559-25.449 25.381-12.199 50.252 12.743 23.918 34.753 61.204 0 101.303l.032.044c23.02-.004 61.303 15.813 90.786 18.956 30.912-27.61 55.093-62.59 69.737-102.21z" fill="#ffd267"/><path d="M126.218 292c-20.428 0-66.262 29.992-110.853 51.524 13.581 37.33 35.64 70.559 63.791 97.477 10.458 1.956 21.162 3 32.07 3 60.908 0 115.734-31.616 154.106-82.076C233.596 347.928 159.827 292 126.218 292z" fill="#f9be58"/><path d="M265.333 361.924C233.596 347.928 159.827 292 126.218 292c-1.043 0-2.297.248-3.469.399-13.01 3.559-24.038 25.381-11.523 50.252 12.036 23.918 32.826 61.204 0 101.303l.03.044c60.897-.01 115.712-31.623 154.077-82.074z" fill="#ffd267"/><path d="M274.268 360c-36.026 0-136.902 62.846-204.168 71.899C116.761 481.197 182.763 512 256 512c74.219 0 141.026-31.616 187.784-82.076C405.111 415.928 315.221 360 274.268 360z" fill="#ecab4e"/><path d="M443.784 429.924C405.111 415.928 315.221 360 274.268 360c-1.271 0-2.799.248-4.227.399-15.854 3.559-29.292 25.381-14.041 50.252 14.667 23.918 40 61.204 0 101.303l.037.044c74.203-.01 140.997-31.623 187.747-82.074z" fill="#ffc353"/><path d="M62.449 145.449c0-6.284 12.721-11.378 28.414-11.378 2.368 0 4.633.15 6.832.369 7.414-3.206 17.926-5.245 29.699-5.245 22.418 0 40.591 7.277 40.591 16.254H62.449z" fill="#fff" opacity=".5"/><path d="M249.859 145.449c0-4.929 9.978-8.924 22.287-8.924 1.858 0 3.634.118 5.359.289 5.815-2.515 14.061-4.114 23.295-4.114 17.584 0 31.838 5.708 31.838 12.749h-82.779zm-17.119-14.412c0-6.284-12.457-11.378-27.823-11.378-2.319 0-4.537.15-6.69.369-7.26-3.206-17.554-5.245-29.082-5.245-21.951 0-39.747 7.277-39.747 16.254H232.74z" fill="#fff"/><path d="M405.658 121.783c0-5.412-10.73-9.8-23.965-9.8-1.998 0-3.908.129-5.763.318-6.253-2.762-15.12-4.518-25.05-4.518-18.908 0-34.236 6.268-34.236 14h89.014zM448.074 136c0-3.982-7.894-7.211-17.632-7.211-1.47 0-2.875.095-4.24.234-4.601-2.032-11.124-3.324-18.43-3.324-13.912 0-25.189 4.612-25.189 10.301h65.491z" fill="#fff" opacity=".5"/><path d="M256 0a256.873 256.873 0 0 0-53.696 5.687C205.146 32.836 228.098 54 256 54s50.854-21.164 53.696-48.313A256.873 256.873 0 0 0 256 0z" fill="#fff"/><path d="M256 0c-37.491 0-73.063 8.126-105.151 22.606 10.391 48.55 53.5 84.969 105.151 84.969s94.76-36.419 105.151-84.969C329.063 8.126 293.491 0 256 0z" fill="#fffff4" opacity=".4"/></svg>