<svg xmlns="http://www.w3.org/2000/svg" viewBox="0 0 512 512"><circle cx="256" cy="256" r="256" fill="#fff9bb"/><path d="M9.828 326.205C42.414 330.871 79 336 79 336l45-42.75c-42.939 0-89.253-25.338-123.809-29.685.631 21.666 3.945 42.647 9.637 62.64zM247.333 306.5c-55.5 0 193.167 23.15 193.167 23.15l62.346-5.817a255.295 255.295 0 0 0 8.605-51.814C440.667 272.02 332 306.5 247.333 306.5z" fill="#ffea96"/><path d="M4.56 304C27.036 422.43 131.029 512 256 512s228.965-89.57 251.44-208H4.56z" fill="#d6eb76"/><path d="M334.729 278.132c0-11.048-8.818-54.132-14.395-54.132-.317 0-.646.176-.982.442-.116.092-.236.234-.354.356a6.362 6.362 0 0 0-.67.817c-.147.208-.292.431-.439.676-.208.348-.419.744-.63 1.162-.154.302-.305.58-.459.916-.022.049-.044.085-.068.136a.054.054 0 0 1 .004.008c-5.122 11.315-10.797 40.755-10.797 49.619 0 9.75 5.023 15.199 11.667 16.348l-.001.001c.083.014.171.009.255.022v13.543a2.475 2.475 0 0 0 4.95 0v-13.544c6.766-1.056 11.919-6.501 11.919-16.37zM90.888 288.801c0-7.409-5.913-36.301-9.653-36.301-.213 0-.433.118-.659.297-.078.061-.158.157-.238.238a4.23 4.23 0 0 0-.45.548c-.099.14-.196.289-.294.454-.14.234-.281.499-.422.779-.103.202-.205.389-.308.614-.015.033-.029.057-.046.091l.003.006c-3.435 7.588-7.241 27.33-7.241 33.274 0 6.538 3.369 10.192 7.824 10.963h-.001c.056.01.115.006.171.015v9.082a1.66 1.66 0 0 0 3.32 0v-9.082c4.538-.709 7.994-4.36 7.994-10.978z" fill="#d6eb76"/><path d="M8.157 319.849C36.534 430.319 136.676 512 256 512c116.85 0 215.344-78.314 246.025-185.301-103.634-4.021-379.443-9.993-493.868-6.85z" fill="#cce16b"/><path d="M47.665 315.897c-.605 0-1.178.119-1.726.292-1.737-2.497-4.618-4.139-7.891-4.139-3.272 0-6.154 1.642-7.891 4.139-.548-.173-1.12-.292-1.726-.292a5.77 5.77 0 0 0-5.77 5.77h30.773a5.768 5.768 0 0 0-5.769-5.77zM471.638 328c0-5.422-4.396-9.818-9.818-9.818-.818 0-1.601.129-2.361.318-2.562-2.767-6.194-4.526-10.262-4.526-7.746 0-14.025 6.279-14.025 14.025h36.466z" fill="#cce16b"/><path fill="#fffcec" d="M176 328H88v-68.8l40.001-24 47.999 24z"/><path fill="#ff8562" d="M88 263.289v13.992l44.32-26.593L176 276.897v-13.993l-25.379-15.228-19.964-9.982z" opacity=".25"/><path fill="#ff8562" d="M177.234 269.145l-44.914-26.95-44.914 26.95-6.172-10.29 51.086-30.652 51.086 30.652z"/><path fill="#fffcec" d="M312 237.25L216 189l-40 25.25V328h136z"/><path fill="#ff8562" d="M176 213.451v14.422l40.328-26.886L312 252.5v-13.625l-96.328-51.872z" opacity=".25"/><path d="M300.152 130.182c-2.289 0-4.453.451-6.526 1.104-6.568-9.442-17.464-15.65-29.838-15.65-12.373 0-23.269 6.208-29.838 15.65-2.073-.654-4.237-1.104-6.526-1.104-12.05 0-21.818 9.768-21.818 21.818H321.97c0-12.05-9.768-21.818-21.818-21.818z" fill="#ffeb97"/><path d="M444.306 142.909c-1.431 0-2.783.282-4.079.69-4.105-5.901-10.915-9.781-18.648-9.781-7.733 0-14.543 3.88-18.648 9.781-1.296-.409-2.648-.69-4.079-.69-7.531 0-13.636 6.105-13.636 13.636h72.726c.001-7.531-6.105-13.636-13.636-13.636zM228 108c0-15.464-12.536-28-28-28-2.334 0-4.565.369-6.733.907C185.961 73.017 175.602 68 164 68c-22.091 0-40 17.909-40 40h104z" fill="#fff1a9"/><path d="M262.46 88c0-9.657-7.828-17.485-17.485-17.485-1.457 0-2.851.231-4.204.567-4.562-4.927-11.031-8.06-18.276-8.06-13.795 0-24.978 11.183-24.978 24.978h64.943zm96.906-12.489c0-8.045-6.521-14.566-14.566-14.566-1.214 0-2.375.192-3.503.472-3.801-4.105-9.19-6.715-15.225-6.715-11.492 0-20.809 9.316-20.809 20.809h54.103zm56.21 69.671c0-6.323-5.126-11.449-11.449-11.449-.954 0-1.867.151-2.753.371-2.987-3.226-7.223-5.277-11.967-5.277-9.033 0-16.355 7.322-16.355 16.355h42.524z" fill="#fff1a9"/><path d="M87.378 164.489c0-9.657 7.828-17.485 17.485-17.485 1.457 0 2.851.231 4.204.567 4.562-4.927 11.031-8.06 18.276-8.06 13.795 0 24.978 11.183 24.978 24.978H87.378zm194.45-29.781c0-8.779 7.117-15.895 15.895-15.895 1.325 0 2.592.21 3.822.515 4.148-4.479 10.029-7.327 16.615-7.327 12.541 0 22.708 10.167 22.708 22.708h-59.04z" fill="#ffeb97"/><path fill="#ff8562" d="M317.156 246.667l-100.828-54.289-45 30-6.656-9.985 51-34 107.172 57.711z"/><path fill="#bf9672" d="M202.025 278.007h31.315V328h-31.315z"/><path fill="#63a0b5" d="M197.682 239.25h40v26.5h-40z"/><path d="M239.68 267.75h-44v-30.5h44v30.5zm-40-4h36v-22.5h-36v22.5z" fill="#4185a6"/><path fill="#4185a6" d="M215.68 239.25h4v26.5h-4z"/><path fill="#63a0b5" d="M250.017 239.25h40v26.5h-40z"/><path d="M292.016 267.75h-44v-30.5h44v30.5zm-40-4h36v-22.5h-36v22.5z" fill="#4185a6"/><path fill="#4185a6" d="M268.016 239.25h4v26.5h-4z"/><path fill="#63a0b5" d="M250.017 280h40v26.5h-40z"/><path d="M292.016 308.5h-44V278h44v30.5zm-40-4h36V282h-36v22.5z" fill="#4185a6"/><path fill="#4185a6" d="M268.016 280h4v26.5h-4z"/><path fill="#63a0b5" d="M112.322 280h40v26.5h-40z"/><path d="M154.32 308.5h-44V278h44v30.5zm-40-4h36V282h-36v22.5z" fill="#4185a6"/><path fill="#4185a6" d="M130.32 280h4v26.5h-4z"/><path d="M369.446 329.651a4.198 4.198 0 0 1-4.2-4.197v-45.205c0-2.318 1.879-4.197 4.2-4.197s4.2 1.879 4.2 4.197v45.205a4.198 4.198 0 0 1-4.2 4.197z" fill="#828240"/><path d="M399.225 268.525c0 22.854-13.333 34.326-29.78 34.326s-29.78-11.472-29.78-34.326 18.242-111.98 29.78-111.98 29.78 89.126 29.78 111.98z" fill="#69be5d"/><path d="M369.445 156.545c-2.285 0-4.834 3.534-7.452 9.318 9.412 14.255 21.589 84.684 21.589 104.247 0 19.112-8.499 29.872-19.783 32.236a33.01 33.01 0 0 0 5.645.506c16.447 0 29.78-11.472 29.78-34.326.001-22.855-18.242-111.981-29.779-111.981z" fill="#9dc85c"/><path d="M413.214 329.651a4.198 4.198 0 0 1-4.2-4.197v-45.205c0-2.318 1.879-4.197 4.2-4.197s4.2 1.879 4.2 4.197v45.205a4.198 4.198 0 0 1-4.2 4.197z" fill="#828240"/><path d="M437.637 274.698c0 18.744-10.935 28.153-24.424 28.153-13.489 0-24.424-9.409-24.424-28.153s14.962-91.843 24.424-91.843 24.424 73.099 24.424 91.843z" fill="#69be5d"/><path d="M413.213 182.855c-1.874 0-3.965 2.898-6.112 7.642 7.72 11.691 17.707 69.455 17.707 85.5 0 15.675-6.97 24.5-16.225 26.439a27.08 27.08 0 0 0 4.63.415c13.489 0 24.425-9.409 24.425-28.153-.001-18.744-14.963-91.843-24.425-91.843z" fill="#9dc85c"/><path d="M490.375 283.841c0-9.101-7.264-44.591-11.858-44.591-.261 0-.532.145-.809.364-.096.075-.194.193-.292.293a5.142 5.142 0 0 0-.552.673 9.48 9.48 0 0 0-.362.557 15.53 15.53 0 0 0-.519.957c-.127.249-.251.478-.378.754-.018.041-.036.07-.056.112l.005.009c-4.221 9.318-8.896 33.57-8.896 40.871 0 8.031 4.138 12.52 9.611 13.467h-.001c.069.012.141.008.21.019v11.156a2.039 2.039 0 0 0 4.078 0v-11.157c5.574-.87 9.819-5.355 9.819-13.484zM76.97 286.617c0-8.154-6.508-39.95-10.624-39.95-.234 0-.477.13-.725.326-.086.068-.174.172-.262.262a4.672 4.672 0 0 0-.495.603 8.021 8.021 0 0 0-.324.499c-.154.257-.309.549-.465.858-.113.223-.225.428-.339.676-.016.036-.032.063-.05.1l.005.008c-3.782 8.348-7.97 30.076-7.97 36.618 0 7.196 3.707 11.217 8.611 12.065h-.001c.062.011.126.007.188.017v9.995a1.827 1.827 0 0 0 3.654 0v-9.996c4.994-.779 8.797-4.798 8.797-12.081zm-34.942 5.243c0-6.365-5.08-31.187-8.293-31.187-.183 0-.372.101-.566.255-.067.053-.136.135-.204.205a3.636 3.636 0 0 0-.386.471c-.085.12-.168.248-.253.39-.12.201-.241.429-.363.669-.089.174-.176.334-.264.528l-.039.078a.06.06 0 0 0 .003.005c-2.951 6.519-6.221 23.48-6.221 28.587 0 5.617 2.894 8.757 6.722 9.419h-.001c.048.008.099.005.147.013v7.803a1.425 1.425 0 0 0 2.852 0v-7.803c3.898-.61 6.866-3.747 6.866-9.433z" fill="#d6eb76"/><path d="M471.638 279.705c0-10.511-8.389-51.502-13.696-51.502-.302 0-.615.167-.934.421-.111.087-.224.222-.337.338a6.086 6.086 0 0 0-.638.777c-.14.198-.278.41-.418.644-.198.331-.399.708-.599 1.106-.146.287-.29.552-.436.871-.021.047-.042.081-.065.129a.054.054 0 0 1 .004.008c-4.873 10.765-10.273 38.775-10.273 47.209 0 9.276 4.779 14.461 11.101 15.554l-.001.001c.079.014.163.009.242.021v12.885a2.354 2.354 0 0 0 4.71 0v-12.886c6.438-1.006 11.34-6.186 11.34-15.576z" fill="#d6eb76"/><path d="M25.441 367.033C66.779 452.789 154.422 512 256 512c104.79 0 194.779-63.004 234.375-153.168-117.143-9.37-369.581-5.279-464.934 8.201z" fill="#d0d75b"/><path d="M426.797 446.582c-83.437-21.76-254.704-52.148-377.695-40.267C95.599 470.296 170.844 512 256 512c65.668 0 125.513-24.754 170.797-65.418z" fill="#d8c34a"/><path d="M110.597 466.46C151.861 495.13 201.914 512 256 512c55.782 0 107.324-17.911 149.348-48.213-81.094-5.316-213.366-8.648-294.751 2.673z" fill="#d0b459"/><path fill="#ab8240" d="M81.234 321.667h237.531V328H81.234z"/><circle cx="183.406" cy="426.21" r="6.667" fill="#d0d75b"/><circle cx="211.016" cy="482.833" r="6.667" fill="#d8c34a"/><circle cx="299.271" cy="489.5" r="6.667" fill="#d8c34a"/><circle cx="329.51" cy="446.21" r="6.667" fill="#d0b459"/><circle cx="263.788" cy="478.774" r="6.667" fill="#d0d75b"/><circle cx="285.938" cy="437.333" r="6.667" fill="#d0d75b"/><circle cx="237.949" cy="439.543" r="6.667" fill="#d0b459"/><circle cx="171.339" cy="386.667" r="4" fill="#cce16b"/><circle cx="296.605" cy="400" r="4" fill="#cce16b"/><circle cx="384.609" cy="417.333" r="4" fill="#cce16b"/><circle cx="357.993" cy="378.667" r="4" fill="#d8c34a"/><circle cx="250.017" cy="370.667" r="4" fill="#d8c34a"/><circle cx="132" cy="439.543" r="6.667" fill="#d0b459"/><path d="M104.267 317.591c-1.582 0-3.077.311-4.509.763-4.538-6.524-12.067-10.814-20.617-10.814s-16.078 4.289-20.617 10.814c-1.433-.452-2.928-.763-4.509-.763-8.326 0-15.076 6.75-15.076 15.076h80.403c.001-8.326-6.749-15.076-15.075-15.076zm28.055 15.002c0-7.478 6.062-13.54 13.54-13.54 1.129 0 2.208.178 3.256.439 3.533-3.815 8.543-6.242 14.153-6.242 10.683 0 19.343 8.66 19.343 19.343h-50.292z" fill="#9dc85c"/><path d="M94.601 317.591c-1.582 0-3.077.312-4.509.763-3.652-5.25-9.284-8.926-15.783-10.21-6.5 1.285-12.131 4.96-15.783 10.21-1.433-.452-2.928-.763-4.509-.763-8.326 0-15.076 6.75-15.076 15.076h70.736c-.001-8.327-6.75-15.076-15.076-15.076zm65.286-3.978a19.317 19.317 0 0 0-10.769 5.878c-1.048-.26-2.127-.438-3.256-.438-7.478 0-13.54 6.062-13.54 13.54h43.303c0-9.448-6.783-17.287-15.738-18.98z" fill="#69be5d"/><path d="M390.051 332.593c0-8.674 7.031-15.705 15.705-15.705 1.309 0 2.561.207 3.776.509 4.098-4.426 9.909-7.24 16.416-7.24 12.391 0 22.436 10.045 22.436 22.436h-58.333z" fill="#9dc85c"/><path d="M322.844 324.603c0-5.422 4.396-9.818 9.818-9.818.818 0 1.601.129 2.361.318 2.562-2.767 6.194-4.526 10.262-4.526 7.746 0 14.025 6.279 14.025 14.025h-36.466z" fill="#cce16b"/><path d="M422.023 310.578a22.404 22.404 0 0 0-12.491 6.818c-1.216-.301-2.468-.509-3.776-.509-8.674 0-15.705 7.031-15.705 15.705h50.227c0-10.958-7.867-20.051-18.255-22.014z" fill="#69be5d"/></svg>