<svg xmlns="http://www.w3.org/2000/svg" viewBox="0 0 512 512"><circle cx="256" cy="256" r="256" fill="#95c4f8"/><path d="M21.502 153.291a254.005 254.005 0 0 0-17.041 55.258A734.464 734.464 0 0 0 4 234.001c0 23.422 3.421 46.084 9.705 67.638 46.625 2.358 120.428 2.362 120.428 2.362l40.533-62-26.666-.668c-49.983 0-84.143-69.947-126.498-88.042zm417.965 52.042c-27.467 0-38.8 36.267-75.467 36.267l12 84.4s94 7.88 102 9.94c4.53 1.167 14.826-2.174 22.911-5.292C508.101 307.027 512 281.972 512 256c0-1.826-.1-3.626-.138-5.443-1.485-1.185-56.742-45.224-72.395-45.224z" fill="#7e7e92"/><path d="M338.667 460l136.077-70.951c15.673-25.713 26.885-54.424 32.697-85.049 0 0-53.941 1.5-75.44-8-26.436-11.681-86.354-94.344-123.83-143.968-6.968-8.764-13.73-16.901-20.17-24.032-11.113-12.306-43.567-16-48-16-3.841 0-34.938 36.584-57.636 64.003C148.147 217.787 107.86 268.14 88 288l-33.275 68 283.942 104z" fill="#6e6e84"/><path d="M480.667 319.321c-39.333 0-78.38 5.879-124.667-33.321-18-15.244-35.798-29.902-51-11.5-9.5 11.5-27.098 49.5-49 33.5s-31.127-65.45-52-66c-17-.448-31 24.342-43.522 10.667C152.234 243.664 76.5 296.5 76.5 296.5s77.5 68.812 88.5 68.156 75.902 9.256 75.902 9.256 23.023 27.117 34.847 22.755c11.824-4.362 40.716 4.735 57.279-2.606 16.563-7.34 95.561-40.061 97.266-44.061s50.373-30.679 50.373-30.679z" fill="#5f5f74"/><path d="M175.75 304.001c-12.704-5.801-9.941-20.9-24-25.501-13.75-4.5-15.5-7.75-23.25-14.5s-18.28 2.316-25.25-11.5C99.214 244.499 82 241 74.75 234s-20.192-4.684-25.75-7c-12-5-7.25-12.25-21.5-10.75-9.968 1.049-15.265-6.946-22.721-9.482a256.158 256.158 0 0 0-4.342 34.694L63 275.5s61 19.75 65.5 21.5 73.284 31.466 71.252 28.74c-3.627-4.865-13.877-17.115-24.002-21.739z" fill="#36b294"/><path d="M230.691 359.286c-3.732-1.861-12.422-6.552-20.024-16.619S203 326 194 321.5c-10.119-5.06-10-5.5-22-11.5s-12-10-19.25-18.5c-7.954-9.325-20.299-8.813-32.299-14.146S103.372 262.543 96 259c-7.372-3.543-12 .333-18.667-3.066-9.035-4.607-9.564-17.685-20.839-16.352-11.275 1.333-14.082 5.314-21.828-1.582-12.917-11.5-18.917-4.25-33.282-8.67A259.073 259.073 0 0 0 0 256c0 21.609 2.707 42.582 7.748 62.626 11.393 2.223 23.875 4.591 36.309 7.374 38.723 8.667 140.61 40.667 176.61 46.667s13.757-11.52 10.024-13.381z" fill="#00a07d"/><path d="M.955 277.354C7.113 351.849 45.116 417.289 101.378 460h92.409L320 384C215.033 384 156.522 277.795.955 277.354z" fill="#52c883"/><path d="M256 512c124.97 0 228.963-89.569 251.44-207.999C412.781 304.029 296.992 422.482 192 408c-58-8-73-24.033-147.943-8.396C90.103 467.431 167.842 512 256 512z" fill="#34be71"/><path d="M221.022 445.779a2.417 2.417 0 0 1-2.419-2.417v-26.035a2.417 2.417 0 0 1 2.419-2.417 2.417 2.417 0 0 1 2.419 2.417v26.035a2.417 2.417 0 0 1-2.419 2.417z" fill="#674447"/><path d="M236.257 415.109c0 8.414-6.821 15.235-15.235 15.235s-15.235-6.821-15.235-15.235 6.821-34.279 15.235-34.279 15.235 25.865 15.235 34.279z" fill="#00a07d"/><path d="M221.021 380.83c-2.112 0-4.123 1.633-5.952 4.207 7.701 0 13.944 23.673 13.944 31.374 0 6.699-4.728 12.284-11.026 13.627a15.31 15.31 0 0 0 3.033.306c8.414 0 15.235-6.821 15.235-15.235.002-8.414-6.819-34.279-15.234-34.279z" fill="#36b294"/><path d="M417.67 373.912a3.338 3.338 0 0 1-3.34-3.337V334.63a3.338 3.338 0 0 1 3.34-3.337 3.338 3.338 0 0 1 3.34 3.337v35.945a3.338 3.338 0 0 1-3.34 3.337z" fill="#674447"/><path d="M438.704 331.568c0 11.617-9.417 21.034-21.035 21.034s-21.034-9.417-21.034-21.034 9.417-47.328 21.034-47.328 21.035 35.711 21.035 47.328z" fill="#00a07d"/><path d="M417.669 284.24c-2.916 0-5.693 2.254-8.218 5.809h.001c10.633 0 19.252 32.684 19.252 43.317 0 9.249-6.527 16.96-15.223 18.814 1.354.274 2.753.422 4.188.422 11.617 0 21.035-9.417 21.035-21.034 0-11.617-9.418-47.328-21.035-47.328z" fill="#36b294"/><path d="M471.837 378.596a3.338 3.338 0 0 1-3.34-3.337v-35.945c0-1.843 1.494-3.337 3.34-3.337s3.34 1.494 3.34 3.337v35.945a3.339 3.339 0 0 1-3.34 3.337z" fill="#674447"/><path d="M492.87 336.251c0 11.617-9.417 21.034-21.035 21.034s-21.034-9.417-21.034-21.034c0-11.617 9.417-47.328 21.034-47.328s21.035 35.711 21.035 47.328z" fill="#00a07d"/><path d="M471.836 288.924c-2.916 0-5.693 2.254-8.218 5.809h.001c10.633 0 19.252 32.684 19.252 43.317 0 9.249-6.527 16.96-15.223 18.814 1.354.274 2.753.422 4.188.422 11.617 0 21.035-9.417 21.035-21.034 0-11.618-9.418-47.328-21.035-47.328z" fill="#36b294"/><path d="M292.213 424.264a3.338 3.338 0 0 1-3.34-3.337v-35.945c0-1.843 1.494-3.337 3.34-3.337s3.34 1.494 3.34 3.337v35.945a3.338 3.338 0 0 1-3.34 3.337z" fill="#674447"/><path d="M313.247 381.92c0 11.617-9.417 21.035-21.034 21.035s-21.035-9.417-21.035-21.035 9.417-47.328 21.035-47.328 21.034 35.711 21.034 47.328z" fill="#00a07d"/><path d="M292.212 334.592c-2.916 0-5.693 2.254-8.218 5.809h.001c10.633 0 19.252 32.684 19.252 43.317 0 9.249-6.527 16.96-15.223 18.814 1.354.273 2.753.422 4.188.422 11.617 0 21.035-9.417 21.035-21.034 0-11.617-9.418-47.328-21.035-47.328z" fill="#36b294"/><path d="M248.215 440.113a3.108 3.108 0 0 1-3.11-3.107v-33.469c0-1.716 1.391-3.107 3.11-3.107s3.11 1.391 3.11 3.107v33.469a3.108 3.108 0 0 1-3.11 3.107z" fill="#674447"/><path d="M267.8 400.685c0 10.817-8.769 19.586-19.586 19.586s-19.586-8.769-19.586-19.586c0-10.817 8.769-44.068 19.586-44.068s19.586 33.251 19.586 44.068z" fill="#00a07d"/><path d="M248.214 356.617c-2.715 0-5.301 2.099-7.652 5.409h.001c9.9 0 17.926 30.433 17.926 40.333 0 8.612-6.078 15.792-14.174 17.518 1.261.255 2.564.393 3.9.393 10.817 0 19.586-8.769 19.586-19.586-.001-10.816-8.77-44.067-19.587-44.067z" fill="#36b294"/><path d="M485.73 368.878C344 342 313.99 452.245 91.811 452.272 136.264 489.504 193.478 512 256 512c100.857 0 188.021-58.356 229.73-143.122z" fill="#44a67d"/><path d="M355.042 164.924c0-12.511 10.142-22.653 22.653-22.653 1.888 0 3.694.299 5.447.734 5.911-6.383 14.292-10.442 23.678-10.442 17.873 0 32.361 14.489 32.361 32.361h-84.139z" fill="#fff"/><path d="M308.17 152.032c-6.968-8.764-13.73-16.901-20.17-24.032-11.113-12.306-43.567-16-48-16-3.841 0-34.938 36.584-57.636 64.003-8.701 10.625-17.794 21.803-26.844 32.895 3.913 5.46 11.484 13.15 22.694 12.057 22.061-2.152 26.365-27.979 43.045-25.828C243.981 198.059 240.532 264 264.305 264c23.137 0 7.092-50.01 34.436-60.264 20.142-7.553 27.568 14.102 61.51 16.915-18.565-23.734-37.113-48.799-52.081-68.619z" fill="#c3e1f5"/><path d="M317.75 164.765c-3.311-4.41-6.535-8.702-9.579-12.733-6.968-8.764-13.73-16.901-20.17-24.032-11.113-12.306-43.567-16-48-16-2.677 0-18.595 17.775-35.68 37.827 18.68-14.827 28.872-8.726 32.346 8.618 8.023 40.055 16.667 72.221 26.667 46.888s5.605-39.841 34.938-36.833c11.578 1.187 13.963-2.203 19.478-3.735z" fill="#edf5fb"/><path d="M120.451 176c0-13.574 11.004-24.577 24.577-24.577 2.049 0 4.007.324 5.91.796 6.413-6.926 15.506-11.329 25.689-11.329 19.391 0 35.11 15.719 35.11 35.11h-91.286zm247.028-16.354c-1.716 0-3.338.338-4.892.828-4.923-7.077-13.091-11.731-22.365-11.731s-17.442 4.653-22.365 11.731c-1.554-.49-3.176-.828-4.892-.828-9.032 0-16.354 7.322-16.354 16.354h87.223c-.001-9.032-7.323-16.354-16.355-16.354z" fill="#fff"/><path d="M126.467 146.035c-1.302 0-2.533.256-3.712.628-3.736-5.37-9.933-8.901-16.971-8.901s-13.235 3.531-16.971 8.901c-1.179-.372-2.41-.628-3.712-.628-6.854 0-12.41 5.556-12.41 12.41h66.184c.001-6.854-5.555-12.41-12.408-12.41z" fill="#fff"/><path d="M310.94 63.001c-1.215 0-2.363.239-3.463.586-3.485-5.01-9.268-8.305-15.834-8.305s-12.349 3.294-15.834 8.305c-1.101-.347-2.249-.586-3.463-.586-2.22 0-4.274.656-6.037 1.74-3.736-8.099-11.875-13.751-21.38-13.751-6.842 0-12.952 2.959-17.26 7.612-1.278-.317-2.594-.535-3.971-.535-9.12 0-16.513 7.394-16.513 16.513h115.333c.001-6.395-5.183-11.579-11.578-11.579z" fill="#fff" opacity=".6"/><path d="M313.888 63.001c-1.215 0-2.363.239-3.463.586-3.485-5.01-9.268-8.305-15.834-8.305s-12.349 3.294-15.834 8.305c-1.101-.347-2.249-.586-3.463-.586-2.22 0-4.274.656-6.037 1.74-3.736-8.099-11.875-13.751-21.38-13.751-6.842 0-12.952 2.959-17.26 7.612-1.278-.317-2.594-.535-3.971-.535-9.12 0-16.513 7.394-16.513 16.513h115.333c.001-6.395-5.183-11.579-11.578-11.579zM182.3 95.136c-.99 0-1.926.195-2.823.478-2.841-4.084-7.554-6.77-12.906-6.77-3.947 0-7.532 1.476-10.29 3.88-3.764-5.432-10.025-9.003-17.134-9.003-6.048 0-11.449 2.615-15.257 6.729-1.13-.281-2.293-.473-3.51-.473-8.062 0-14.597 6.535-14.597 14.597h85.955a9.438 9.438 0 0 0-9.438-9.438zM449.072 88c-3.746-4.301-7.589-8.514-11.61-12.555-.319.239-.665.444-.965.706-3.764-5.432-10.025-9.003-17.134-9.003-6.048 0-11.449 2.615-15.257 6.729-1.13-.281-2.293-.473-3.51-.473C392.535 73.403 386 79.938 386 88h63.072z" fill="#fff" opacity=".6"/><path d="M480.665 227.286c-15.876-11.083-33.422-21.953-41.198-21.953-17.39 0-28.327 14.523-43.307 25.19l.011.007c24.829-4.197 26.642 27.805 38.142 27.805 13.457 0 13.824-17.163 27.02-11.335 25.667 11.335 6.334-15.166 19.332-19.714z" fill="#c3e1f5"/><path d="M465.063 216.949c-10.631-6.625-20.349-11.616-25.597-11.616-11.887 0-20.767 6.808-29.976 14.509 13.101 5.712 23.494 22.357 39.582 11.657 10.662-7.091 12.597-11.414 15.991-14.55z" fill="#edf5fb"/><path d="M389.139 388.929a4.154 4.154 0 0 1-4.156-4.152v-44.725c0-2.293 1.859-4.152 4.156-4.152s4.156 1.859 4.156 4.152v44.725a4.154 4.154 0 0 1-4.156 4.152z" fill="#674447"/><path d="M415.31 336.242c0 14.455-11.718 26.172-26.172 26.172s-26.172-11.718-26.172-26.172 11.718-58.888 26.172-58.888 26.172 44.433 26.172 58.888z" fill="#00a07d"/><path d="M389.138 277.354c-3.629 0-7.084 2.805-10.225 7.228h.001c13.23 0 23.954 40.668 23.954 53.898 0 11.508-8.122 21.103-18.941 23.41 1.685.34 3.426.525 5.211.525 14.455 0 26.173-11.718 26.173-26.172-.001-14.456-11.719-58.889-26.173-58.889z" fill="#36b294"/><path d="M446.273 382.474a3.924 3.924 0 0 1-3.926-3.923v-42.257c0-2.167 1.757-3.923 3.926-3.923s3.926 1.757 3.926 3.923v42.257a3.923 3.923 0 0 1-3.926 3.923z" fill="#674447"/><path d="M471.001 332.693c0 13.657-11.071 24.728-24.728 24.728-13.657 0-24.728-11.071-24.728-24.728s11.071-55.639 24.728-55.639c13.656 0 24.728 41.982 24.728 55.639z" fill="#00a07d"/><path d="M446.272 277.054c-3.428 0-6.693 2.65-9.661 6.829h.001c12.5 0 22.633 38.424 22.633 50.924 0 10.873-7.673 19.938-17.896 22.118 1.592.322 3.237.496 4.924.496 13.657 0 24.729-11.071 24.729-24.728-.001-13.657-11.073-55.639-24.73-55.639z" fill="#36b294"/><path d="M357.062 393.673a3.427 3.427 0 0 1-3.428-3.426v-36.899c0-1.892 1.534-3.426 3.428-3.426s3.428 1.534 3.428 3.426v36.899a3.427 3.427 0 0 1-3.428 3.426z" fill="#674447"/><path d="M378.654 350.205c0 11.925-9.667 21.593-21.593 21.593-11.925 0-21.593-9.667-21.593-21.593s9.667-48.584 21.593-48.584c11.925 0 21.593 36.659 21.593 48.584z" fill="#00a07d"/><path d="M357.061 301.621c-2.994 0-5.844 2.314-8.436 5.963h.001c10.915 0 19.763 33.552 19.763 44.467 0 9.494-6.701 17.41-15.627 19.314 1.39.281 2.826.433 4.299.433 11.925 0 21.593-9.667 21.593-21.593 0-11.925-9.668-48.584-21.593-48.584z" fill="#36b294"/><path d="M327.975 432.458a4.87 4.87 0 0 1-4.873-4.869v-52.446c0-2.689 2.18-4.869 4.873-4.869s4.873 2.18 4.873 4.869v52.446a4.87 4.87 0 0 1-4.873 4.869z" fill="#674447"/><path d="M358.664 370.675c0 16.95-13.741 30.691-30.691 30.691s-30.691-13.741-30.691-30.691 13.741-69.054 30.691-69.054c16.951 0 30.691 52.104 30.691 69.054z" fill="#00a07d"/><path d="M327.974 301.621c-4.255 0-8.306 3.289-11.99 8.475h.001c15.514 0 28.09 47.688 28.09 63.202 0 13.495-9.524 24.746-22.211 27.451 1.976.399 4.017.616 6.111.616 16.95 0 30.691-13.741 30.691-30.69-.002-16.95-13.743-69.054-30.692-69.054z" fill="#36b294"/><path d="M256 512c67.364 0 128.603-26.056 174.294-68.599C402.5 448 360.251 401 316.293 418.146c-19.586 7.64-81.895 60.496-136.192 82.33C204.091 507.919 229.562 512 256 512z" fill="#5f5f74"/><path d="M316.293 418.146c-19.586 7.64-81.895 60.496-136.192 82.33 1.829.567 3.722.979 5.568 1.506C240.563 489 305.198 431 326.667 430.344c6.128-.187 45.667 29.655 67.928 40.827 12.712-8.214 24.668-17.499 35.7-27.771-27.795 4.6-70.044-42.4-114.002-25.254z" fill="#6e6e84"/></svg>