<svg xmlns="http://www.w3.org/2000/svg" viewBox="0 0 512 512"><circle cx="256" cy="256" r="256" fill="#9af4ef"/><path d="M435.872 73.886c-14.7 5.281-25.875 17.951-29.025 33.544-.305-.005-.6-.046-.906-.046-24.241 0-44.755 15.907-51.707 37.846-3.717-.989-7.549-1.684-11.577-1.684-24.965 0-45.203 20.238-45.203 45.203l25.594 80.518s148.317 11.155 151.365 10.626c1.433-.249 19.037-17.458 37.283-35.926-3.078-66.466-31.498-126.297-75.824-170.081z" fill="#c5f8f1"/><path d="M303.084 190.363c.047-.972.147-1.93.147-2.914 0-32.898-26.669-59.567-59.567-59.567-2.644 0-5.229.232-7.782.565-12.431-25.5-38.527-43.114-68.805-43.114-30.832 0-57.339 18.259-69.481 44.519-11.571-11.717-27.631-18.991-45.399-18.991-2.5 0-4.953.182-7.377.461C16.564 152.486 0 202.301 0 256c0 1.607.092 3.192.121 4.792 6.827 2.59 15.624 4.138 26.969 4.012 60.952-.677 248.825-20.187 252.312-19.616 3.487.571 54.962 10.341 54.962 10.341a50.98 50.98 0 0 0 2.906-17.022c0-22.277-14.29-41.17-34.186-48.144z" fill="#defbf2"/><path d="M6.544 198.588C2.311 217.053 0 236.251 0 256c0 141.385 114.615 256 256 256s256-114.615 256-256c0-15.189-1.399-30.043-3.936-44.505-46.099 1.993-47.903 36.381-105.615 36.381l-81.434.941c-19.862 0-104.538-66.904-158.897-66.904-53.434 0-90.772 16.125-155.574 16.675z" fill="#94d75b"/><path d="M337.27 285.353c11.175-39.511-41.651 7.219-43.683 11.282-1.513 3.027-69.532 137.938-104.138 206.575A256.205 256.205 0 0 0 256 512c57.487 0 110.545-18.951 153.276-50.942l13.327-62.383c-20.317-43.119-96.508-73.81-85.333-113.322zM41.785 396.113l206.407-37.172 31.21-100.824c-52.523 9.395-114.905 33.099-192.037 11.15-25.338-7.21-63.661-11.15-87.115-3.359 1.829 47.965 16.841 92.529 41.535 130.205z" fill="#71be63"/><path d="M158.475 460.19c-4.559 5.961-10.812 15.198-17.046 24.729 29.308 14.698 61.817 23.913 96.216 26.353C294.9 470.23 326.54 291.845 345.248 269.267c0 0-173.565 173.654-186.773 190.923z" fill="#ffefc6"/><path d="M217.778 418.54a8.085 8.085 0 0 1-5.46-2.107 8.122 8.122 0 0 1-.563-11.476c6.19-6.829 12.254-14.536 18.524-23.56 2.556-3.686 7.611-4.599 11.317-2.032a8.126 8.126 0 0 1 2.032 11.31c-6.683 9.603-13.167 17.845-19.825 25.194a8.11 8.11 0 0 1-6.025 2.671zm34.809-48.762a8.081 8.081 0 0 1-4.167-1.155c-3.849-2.31-5.103-7.302-2.794-11.151 5.159-8.615 10.063-17.266 14.817-25.655 6.341-11.19 12.333-21.762 18.436-31.405 2.397-3.794 7.421-4.929 11.214-2.524 3.786 2.401 4.921 7.421 2.516 11.214-5.889 9.31-11.786 19.714-18.024 30.726-4.817 8.504-9.786 17.27-15.024 26a8.114 8.114 0 0 1-6.974 3.95zM109.706 418.54a8.133 8.133 0 0 1-8.087-7.401 8.128 8.128 0 0 1 7.373-8.821 167.42 167.42 0 0 0 15.492-2.127c4.389-.802 8.651 2.099 9.476 6.512a8.128 8.128 0 0 1-6.508 9.472 183.26 183.26 0 0 1-17.016 2.333 9.07 9.07 0 0 1-.73.032zm48.77-11.734a8.133 8.133 0 0 1-7.524-5.06 8.122 8.122 0 0 1 4.452-10.595c14.429-5.893 27.357-13.694 38.413-23.19a8.134 8.134 0 0 1 11.46.865 8.13 8.13 0 0 1-.873 11.46c-12.381 10.643-26.802 19.361-42.857 25.913a8.091 8.091 0 0 1-3.071.607z" fill="#646464"/><path d="M318.225 248.347c-23.817-4.832-103.873-66.434-156.106-66.434-52.244 0-89.17 15.374-151.349 16.575 6.979.339 17.484-.21 32.453-1.93 184.144-21.151 155.89 51.789 275.002 51.789z" fill="#b0eb81"/><path d="M17.291 348.477a255.326 255.326 0 0 0 30.593 56.509l147.163-27.532 90.698-107.91-6.344-11.427c-54.574 17.766-147.755 99.555-262.11 90.36z" fill="#ffefc6"/><path d="M402.163 247.879l-81.147.938c-.776 0-1.821-.274-2.79-.47-99.848 8.244-124.753 128.322-287.418 129.501 30.036 55.394 79.935 98.41 140.121 119.616C315.23 422.396 288.095 248.01 402.163 247.879z" fill="#57b9e7"/><path d="M112.15 305.261c-.282-5.498-4.74-9.9-10.309-9.9-4.685 0-8.498 3.151-9.806 7.407-1.803-6.137-7.411-10.645-14.131-10.645-6.524 0-11.998 4.251-13.965 10.113a17.263 17.263 0 0 0-9.173-8.826c-1.71-7.727-8.578-13.515-16.819-13.515-6.87 0-12.751 4.046-15.526 9.857-1.953-.613-3.991-1.035-6.146-1.035-5.097 0-9.703 1.917-13.306 4.977 1.937 13.104 4.8 25.897 8.643 38.273 51.457 2.385 113.107-12.843 142.801-30.591 0-.001-18.914 3.087-42.263 3.885zm368.166 74.13c-9.009-11.331-22.886-18.618-38.487-18.618-27.158 0-49.175 22.016-49.175 49.175 0 .552.064 1.087.082 1.635a44.53 44.53 0 0 0-22.188 12.159 47.254 47.254 0 0 0-18.38-3.699c-26.182 0-47.407 21.225-47.407 47.408-16.575 0-30.012 13.437-30.012 30.012 0 4.892 1.282 9.442 3.358 13.523 87.251-7.469 161.998-58.649 202.209-131.595z" fill="#43ab5f"/><path d="M236.956 304.757c-33.618 40.813-21.708 66.313 6.382 39.624 49.29-46.834 109.788-94.522 144.043-96.331l-66.365.767c-29.892 4.883-51.847 16.834-84.06 55.94z" fill="#79ceea"/><path d="M312.072 316.014c-14.702 27.951-98.871 135.219-200.784 151.065 18.316 12.57 38.315 22.871 59.64 30.384 85.66-44.56 110.909-124.118 141.144-181.449zm.077-.144c.177-.336.36-.652.538-.987h-.008c-.148.296-.364.67-.53.987zm-68.346-36.797c-52.2 38.179-98.442 97.944-212.996 98.775 4.124 7.606 8.656 14.952 13.504 22.067 98.588-1.691 161.462-91.404 199.492-120.842z" fill="#3c9bd4"/><path d="M508.064 211.495c-46.099 1.993-47.903 36.381-105.615 36.381l-3.301.038c11.732 4.621 25.998 7.673 41.232 5.038 45.566-7.88 63.13-7.421 71.478-3.157a259.016 259.016 0 0 0-3.794-38.3z" fill="#b0eb81"/></svg>