<svg xmlns="http://www.w3.org/2000/svg" viewBox="0 0 512 512"><circle cx="256" cy="256" r="256" fill="#fff9bb"/><path d="M275 330.012c-18 0-110-74.012-147-74.012S12 308.219 12 308.219l165.555 76.871 103.779-12.118-6.334-42.96z" fill="#ffea96"/><path d="M288 224h-96v16h8v64c0 4.422 3.578 8 8 8s8-3.578 8-8v-64h16v64c0 4.422 3.578 8 8 8s8-3.578 8-8v-64h16v64c0 4.422 3.578 8 8 8s8-3.578 8-8v-64h8v-16zm-191.336 0v16H104v64c0 4.422 3.578 8 8 8s8-3.578 8-8v-64h16v64c0 4.422 3.578 8 8 8s8-3.578 8-8v-64h7.336v-16H96.664z" fill="#b8ab90"/><path d="M97.07 337.573h185.597v-31.328a1 1 0 0 0-1-1H98.07a1 1 0 0 0-1 1v31.328z" fill="#b09b81"/><path d="M499.18 336a254.633 254.633 0 0 0 11.63-55.562c-18.796 3.399-27.515 26.703-47.727 15.562-12.523-6.903-53.339 40-87.083 40h123.18z" fill="#ffea96"/><path d="M402.348 337.988c-31.656 3.329-61.806-.265-93.348 1.262-8.705.421-15.895-1.549-21.646-5.063H87V371h397.7c4.974-9.871 9.183-20.171 12.869-30.719-32.219-1.97-62.907-5.692-95.221-2.293z" fill="#d0d75b"/><path d="M499.723 334.381H275v9.783h221.151c1.199-3.257 2.504-6.463 3.572-9.783z" fill="#d6eb76"/><path d="M408.769 334.973c0-4.28-3.416-20.973-5.577-20.973-.194 0-.4.175-.611.423-.041.049-.082.093-.123.15-.21.287-.425.662-.644 1.142-.006.013-.011.018-.017.03l.001.004c-1.985 4.384-4.183 15.79-4.183 19.224 0 3.841 2.047 5.868 4.686 6.264-.059.015-.106.058-.166.071.088.015.182.013.271.024v4.693h1.574v-4.768c2.689-.355 4.789-2.391 4.789-6.284z" fill="#d0d75b"/><path d="M83.737 360.328H296V329a1 1 0 0 0-1-1H84.737a1 1 0 0 0-1 1v31.328z" fill="#938c82"/><path d="M384.403 368.497v-29.106c0-1.493-1.211-2.705-2.707-2.705s-2.707 1.211-2.707 2.705v29.106h5.414z" fill="#828240"/><path d="M400.886 330.47c0 14.728-8.592 22.121-19.192 22.121s-19.192-7.393-19.192-22.121c0-14.728 11.756-72.165 19.192-72.165s19.192 57.437 19.192 72.165z" fill="#69be5d"/><path d="M381.695 258.305c-1.473 0-3.116 2.277-4.802 6.005 6.066 9.186 13.913 54.574 13.913 67.181 0 12.317-5.477 19.251-12.749 20.774 1.18.204 2.392.326 3.638.326 10.599 0 19.192-7.393 19.192-22.121s-11.757-72.165-19.192-72.165z" fill="#9dc85c"/><path d="M440.352 331.952c0-5.451-4.35-26.707-7.102-26.707-.247 0-.51.222-.778.538-.052.062-.104.118-.157.191-.268.366-.541.843-.82 1.454-.007.016-.014.022-.022.039l.002.005c-2.527 5.583-5.327 20.107-5.327 24.48 0 4.891 2.607 7.472 5.967 7.976-.075.019-.135.074-.211.09.112.019.231.016.345.031v5.976h2.004v-6.072c3.425-.452 6.099-3.045 6.099-8.001zm38.5 0c0-5.451-4.35-26.707-7.102-26.707-.247 0-.51.222-.778.538-.052.062-.104.118-.157.191-.268.366-.541.843-.82 1.454-.007.016-.014.022-.022.039l.002.005c-2.527 5.583-5.327 20.107-5.327 24.48 0 4.891 2.607 7.472 5.967 7.976-.075.019-.135.074-.211.09.112.019.231.016.345.031v5.976h2.004v-6.072c3.425-.452 6.099-3.045 6.099-8.001zm-23.775 3.021c0-4.28-3.416-20.973-5.578-20.973-.194 0-.4.175-.611.423-.041.049-.081.093-.123.15-.21.287-.425.662-.644 1.142-.006.013-.011.018-.017.03l.002.005c-1.986 4.383-4.184 15.789-4.184 19.223 0 3.841 2.047 5.868 4.686 6.264-.059.015-.106.058-.166.071.088.015.182.013.271.024v4.693h1.574v-4.768c2.691-.355 4.79-2.391 4.79-6.284z" fill="#d0d75b"/><path d="M482.905 334.973c0-4.28-3.416-20.973-5.577-20.973-.194 0-.4.175-.611.423-.041.049-.081.093-.123.15-.21.287-.425.662-.644 1.142-.006.013-.011.018-.017.03l.001.004c-1.985 4.384-4.183 15.79-4.183 19.224 0 3.841 2.047 5.868 4.686 6.264-.059.015-.106.058-.166.071.088.015.182.013.271.024v4.693h1.574v-4.768c2.689-.355 4.789-2.391 4.789-6.284z" fill="#d0d75b"/><path d="M256 512c101.216 0 188.691-58.753 230.238-144.004-40.923-.167-377.438-5.935-482.718-69.816C23.64 419.485 128.99 512 256 512z" fill="#d0b459"/><path d="M276.812 130.5c0-15.464 12.536-28 28-28 2.334 0 4.565.369 6.733.907 7.306-7.89 17.666-12.907 29.267-12.907 22.091 0 40 17.909 40 40h-104z" fill="#ffeb97"/><path d="M335.45 143.46c0-10.021 8.124-18.144 18.144-18.144 1.512 0 2.958.239 4.363.588 4.734-5.113 11.447-8.364 18.965-8.364 14.315 0 25.92 11.605 25.92 25.92H335.45z" fill="#ffeb97"/><path d="M351.195 188.5c0-8.803 7.136-15.938 15.938-15.938 1.329 0 2.599.21 3.833.516 4.159-4.491 10.056-7.347 16.66-7.347 12.575 0 22.769 10.194 22.769 22.769h-59.2z" fill="#fff1a9"/><path d="M469 241.333c0-10.156-8.233-18.39-18.39-18.39-1.533 0-2.998.242-4.422.596-4.799-5.182-11.602-8.477-19.222-8.477-14.509 0-26.271 11.762-26.271 26.271H469zm-364.49-123.18c0-9.282 7.412-16.806 16.555-16.806 1.38 0 2.699.222 3.981.545 4.32-4.736 10.445-7.747 17.304-7.747 13.061 0 23.65 10.749 23.65 24.009h-61.49zM232 161.731c-2.518 0-4.898.496-7.179 1.215-7.225-10.386-19.21-17.215-32.821-17.215s-25.596 6.829-32.821 17.215c-2.281-.719-4.661-1.215-7.179-1.215-13.255 0-24 10.745-24 24h128c0-13.255-10.745-24-24-24z" fill="#ffeb97"/><path d="M203.991 78.855h72.821c0-7.541-6.113-13.654-13.654-13.654-1.433 0-2.786.282-4.084.691-4.11-5.909-10.929-9.794-18.672-9.794-1.171 0-2.27.251-3.393.423-3.5-5.116-9.376-8.48-16.043-8.48-5.637 0-10.671 2.438-14.221 6.271-1.053-.261-2.138-.441-3.271-.441-7.514 0-13.605 6.091-13.605 13.605h20.246c-3.688 2.446-6.124 6.625-6.124 11.379z" fill="#fff1a9"/><path d="M345.941 366.191v-40.975c0-2.103-1.705-3.808-3.811-3.808s-3.811 1.705-3.811 3.808v40.975h7.622z" fill="#828240"/><path d="M369.146 312.658c0 20.735-12.096 31.142-27.018 31.142s-27.018-10.408-27.018-31.142c0-20.735 16.55-101.594 27.018-101.594s27.018 80.859 27.018 101.594z" fill="#69be5d"/><path d="M342.129 211.063c-2.073 0-4.386 3.206-6.76 8.454 8.539 12.933 19.587 76.829 19.587 94.578 0 17.34-7.711 27.102-17.948 29.246a29.91 29.91 0 0 0 5.122.459c14.922 0 27.018-10.408 27.018-31.142s-16.552-101.595-27.019-101.595z" fill="#9dc85c"/><path d="M486.238 367.996c-40.923-.167-377.438-5.935-482.718-69.816a254.84 254.84 0 0 0 5.022 23.33c130.235 83.094 314.385 98.852 434.333 109.233 17.37-18.572 32.102-39.64 43.363-62.747z" fill="#d8c34a"/><circle cx="177.555" cy="427.333" r="6.667" fill="#d8c34a"/><circle cx="238.212" cy="479.333" r="6.667" fill="#d8c34a"/><circle cx="288" cy="453.333" r="6.667" fill="#d8c34a"/><circle cx="145.555" cy="450.667" r="6.667" fill="#d0d75b"/><circle cx="233.333" cy="437.409" r="6.667" fill="#d0d75b"/><circle cx="321.777" cy="475.333" r="6.667" fill="#d0d75b"/><circle cx="281.333" cy="385.09" r="4.475" fill="#d0b459"/><circle cx="319.586" cy="398.423" r="4.475" fill="#d0d75b"/><circle cx="362.503" cy="396.232" r="4.475" fill="#d0d75b"/><circle cx="400.886" cy="409.565" r="4.475" fill="#d0b459"/><circle cx="231.142" cy="389.565" r="4.475" fill="#d0d75b"/><circle cx="159.336" cy="368.497" r="4.475" fill="#d0b459"/><circle cx="96.664" cy="398.423" r="6.667" fill="#d0d75b"/></svg>