<svg xmlns="http://www.w3.org/2000/svg" viewBox="0 0 512 512"><circle cx="256" cy="256" r="256" fill="#9af4ef"/><path d="M491.532 155.579c-8.513.899-15.987 5.164-20.941 11.616-1.85-.44-3.754-.734-5.739-.734-3.865 0-7.478.961-10.739 2.539-4.063-8.146-12.392-13.793-22.113-13.793-6.671 0-12.699 2.666-17.155 6.951-2.42-.789-4.956-1.324-7.639-1.324-3.692 0-7.164.86-10.313 2.308-4.526-4.854-10.927-7.935-18.087-7.935-4.814 0-9.269 1.431-13.072 3.805-4.541-5.084-11.075-8.348-18.428-8.348-13.694 0-24.794 11.101-24.794 24.794s11.101 24.794 24.794 24.794c4.813 0 9.269-1.431 13.072-3.805 4.541 5.084 11.075 8.348 18.428 8.348 3.692 0 7.164-.86 10.313-2.308 4.526 4.854 17.721 26.886 24.882 26.886 6.671 0 5.905-21.617 10.361-25.902 2.42.789 4.956 1.324 7.639 1.324 3.865 0 7.478-.961 10.739-2.539 4.063 8.146 12.392 13.794 22.113 13.794 5.263 0 10.123-1.664 14.137-4.46 4.586 2.772 9.904 4.46 15.654 4.46 4.929 0 9.517-1.283 13.634-3.364-3.396-19.909-9.036-39.049-16.746-57.107zm-321.38-4.916c-6.635 0-12.628 2.643-17.078 6.887-4.45-4.244-10.443-6.887-17.078-6.887-5.704 0-10.893 2.003-15.082 5.24-4.189-3.237-9.378-5.24-15.082-5.24-7.825 0-14.718 3.697-19.262 9.358-2.188-.631-4.453-1.077-6.843-1.077-3.833 0-7.419.943-10.659 2.496-4.635-4.24-10.75-6.891-17.527-6.891-7.208 0-13.729 2.928-18.447 7.658-3.99-2.019-8.435-3.263-13.212-3.263-.281 0-.541.075-.819.083a254.114 254.114 0 0 0-15.389 53.928c4.652 3.076 10.213 4.89 16.208 4.89 9.92 0 27.125 7.517 32.46 0 2.44.756 4.249-4.345 6.938-4.345 4.718 0 1.342-8.185 5.159-10.377 4.223 3.336 9.488 5.41 15.288 5.41 7.825 0 14.718-3.696 19.262-9.358 2.188.631 4.452 1.077 6.843 1.077 5.704 0 10.893-2.003 15.082-5.24 4.189 3.237 9.378 5.24 15.082 5.24 6.635 0 12.627-2.643 17.077-6.887 4.45 4.244 10.443 6.887 17.078 6.887 13.694 0 24.794-11.101 24.794-24.794.001-13.695-11.099-24.795-24.793-24.795z" fill="#00c8b4"/><path d="M.029 257.143C.648 397.999 114.999 512 256 512s255.352-114.001 255.971-254.857H.029z" fill="#52c883"/><path d="M37.069 388.687C96.667 384.571 176.618 435.5 248 435.5c141.801 0 160.667-52.846 230.422-52.846 21.138-37.049 33.349-79.85 33.549-125.512H.029c.211 48.15 13.727 93.152 37.04 131.545z" fill="#34be71"/><path d="M28.426 373.221c60.968-2.547 173.453-8.104 257.712 4.383 71.333 10.571 151.195.112 202.046-14.107 15.031-32.376 23.62-68.347 23.787-106.354H.029c.183 41.829 10.431 81.269 28.397 116.078z" fill="#00a07d"/><path d="M12.364 334.461c38.969 20.959 103.28 26.923 179.636 18.93 83.333-8.724 167.366-10.177 228.016-5.45 33.474 2.608 58.983.861 75.167-1.227 10.627-27.868 16.649-58 16.788-89.571H.029a255.208 255.208 0 0 0 12.335 77.318z" fill="#00827e"/><path d="M492.365 354.321c3.1-7.444 5.867-15.06 8.264-22.84l-3.408-74.338h-2.717l-2.139 97.178zM24.453 365.156l-4.752-103.645h-2.64l-1.796 81.593a254.388 254.388 0 0 0 9.188 22.052z" fill="#4f6e6e"/><path d="M488.273 188.542c-8.368 0-16.07 10.438-22.313 24.182-2.398 14.075-3.716 28.518-3.716 43.276 0 16.324 1.593 32.268 4.514 47.743 6.1 4.283 13.495 6.841 21.515 6.841 6.94 0 13.359-2.013 18.937-5.296C510.323 289.334 512 272.866 512 256a257.14 257.14 0 0 0-5.003-50.482c-5.516-10.007-11.897-16.976-18.724-16.976zM4.514 303.743c6.1 4.283 13.495 6.841 21.515 6.841 20.739 0 37.552-16.813 37.552-37.551 0-20.739-16.813-84.491-37.552-84.491-8.368 0-16.07 10.438-22.313 24.182C1.318 226.799 0 241.242 0 256c0 16.324 1.593 32.268 4.514 47.743z" fill="#00a07d"/><path fill="#00827e" d="M246.826 364.283h-10.152l2.436-110.712h2.64zm-30.25 2.429h-10.152L208.86 256h2.64zm63.758-2.429h-8.696l2.087-94.831h2.261zm-13.423-5.512h-8.696l2.087-94.831h2.261zm56.848 5.512h-8.696l2.087-94.831h2.261zm87.742-3.725h-8.695l2.087-94.831h2.26zm44.94-1.787h-8.696l2.087-94.831h2.261zm20-2.429h-8.696l2.087-94.831h2.261zm-412.811 5.42h-8.696l2.087-94.831h2.261zm-26.657-1.204h-8.696l2.087-94.831h2.261zm158.598 3.725h-10.152l2.436-110.712h2.64zm-34.692 0h-10.152l2.436-110.712h2.64zm-24.882 0h-10.152l2.436-110.712h2.64zm-35.82-1.594H90.025l2.437-110.712h2.639z"/><path fill="#4f6e6e" d="M286.138 377.604h-10.152l2.437-110.711h2.639zm23.735-2.018h-10.152l2.436-110.711h2.64zm37.432 0h-10.152l2.437-110.711h2.639zm31.5-2.091h-10.152l2.437-110.712h2.639zm38.5-3.793h-10.152l2.437-110.712h2.639zm44.94-5.464h-10.152l2.436-110.712h2.64zm20 4.261h-10.152l2.436-110.712h2.64zm-408.513 4.996H63.58l2.437-110.712h2.639zm-30.955 2.091H32.625l2.437-110.711h2.639z"/><path fill="#6c5f59" d="M190.495 397.915h-13.877l3.33-151.333h3.608zm42.368 0h-13.877l3.331-151.333h3.607zm62.076-1.267h-13.877l3.331-151.333h3.608zm38.349 0h-13.877l3.33-151.333h3.608zm67.479 1.267H386.89l3.331-151.333h3.608zm38.171-4.476h-13.876l3.33-151.334H432zm-308.017-4.629h-13.877l3.33-151.334h3.608z"/><path fill="#4f6e6e" d="M107.116 375.586H96.964L99.4 264.875h2.64zm63.036.751H160l2.436-110.711h2.64zm41.348 1.267h-10.152l2.437-110.711h2.639zm41.576 0h-10.152l2.436-110.711H248z"/><path fill="#6c5f59" d="M59.282 390.013H45.405l3.33-151.334h3.608z"/><path d="M489.016 295.785c0 27.439-22.243 49.682-49.682 49.682s-49.682-22.243-49.682-49.682S411.895 184 439.334 184s49.682 84.346 49.682 111.785z" fill="#34be71"/><path fill="#805f59" d="M436.758 307.333l-2.369 100h14.586l-4.935-100z"/><path fill="#805f59" d="M439.334 322.409l22.784-18.532 2.734 5.005-25.518 22.785z"/><path d="M439.333 184c-6.852 0-13.379 5.261-19.317 13.58 1.822-.743 3.671-1.171 5.547-1.171 27.438 0 49.682 84.346 49.682 111.785 0 11.295-3.813 21.675-10.162 30.021 14.33-8.716 23.933-24.431 23.933-42.43 0-27.439-22.244-111.785-49.683-111.785z" fill="#52c883"/><path d="M130.921 291.518c0 28.488-23.094 51.583-51.583 51.583s-51.583-23.094-51.583-51.583S50.85 175.457 79.338 175.457s51.583 87.573 51.583 116.061z" fill="#34be71"/><path fill="#805f59" d="M76.664 303.508l-2.46 103.825h15.145l-5.125-103.825z"/><path fill="#805f59" d="M79.338 319.16l23.656-19.24 2.839 5.196-26.495 23.656z"/><path d="M79.338 175.457c-7.114 0-13.891 5.462-20.056 14.1 1.891-.772 3.811-1.216 5.759-1.216 28.488 0 51.583 87.573 51.583 116.061 0 11.727-3.959 22.504-10.551 31.169 14.878-9.05 24.848-25.366 24.848-44.053 0-28.488-23.094-116.061-51.583-116.061z" fill="#52c883"/><path d="M219.536 97.841c-2.989 0-5.813.588-8.52 1.442-8.575-12.327-22.8-20.431-38.954-20.431s-30.379 8.104-38.954 20.431c-2.707-.854-5.531-1.442-8.52-1.442-15.731 0-28.484 12.753-28.484 28.484H248.02c0-15.731-12.753-28.484-28.484-28.484z" fill="#fff"/><path d="M360.683 109.351c-1.901 0-3.698.374-5.421.917-5.456-7.843-14.506-12.999-24.784-12.999-10.278 0-19.328 5.156-24.783 12.999-1.722-.543-3.519-.917-5.421-.917-10.009 0-18.122 8.114-18.122 18.122h96.653c0-10.008-8.113-18.122-18.122-18.122z" fill="#fff" opacity=".6"/><path d="M301.218 238.964c-.766-3.075-1.217-6.276-1.217-9.591 0-21.717 17.461-39.323 39-39.323 2.262 0 4.465.236 6.621.609C352.441 186.462 360.426 184 369 184c24.853 0 45 20.314 45 45.372 0 1.124-.087 2.227-.167 3.33C425.101 245.516 432 262.323 432 280.795c0 40.093-32.235 72.596-72 72.596s-72-32.503-72-72.596c.001-15.592 4.921-30.001 13.218-41.831z" fill="#00a07d"/><path fill="#805f59" d="M366.554 407.333h-12.603l3.024-127.673h3.277z"/><path fill="#805f59" d="M358.11 328.922l-28.358-23.065-3.403 1.891 31.761 28.358zm1.89-27.939l-19.242-15.651-2.31 1.283L360 305.857zm0 15.839l28.358-23.064 3.403 1.891L360 324.006z"/><path d="M413.833 232.703c.08-1.104.167-2.206.167-3.33C414 204.314 393.853 184 369 184c-8.574 0-16.559 2.461-23.379 6.658-2.156-.373-4.359-.609-6.621-.609-11.646 0-21.982 5.252-29.128 13.413 4.12-1.493 8.498-2.448 13.127-2.448 2.262 0 4.465.236 6.621.608 6.82-4.196 14.805-6.658 23.379-6.658 24.853 0 45 20.314 45 45.373 0 1.125-.086 2.227-.167 3.33C409.101 256.48 416 273.288 416 291.759c0 21.468-9.297 40.699-23.988 53.99C415.691 333.86 432 309.277 432 280.794c0-18.471-6.898-35.278-18.167-48.091z" fill="#36b294"/><path d="M213.844 221.952c.85-3.386 1.351-6.911 1.351-10.56 0-23.912-19.384-43.296-43.296-43.296-2.511 0-4.957.26-7.35.67-7.571-4.62-16.436-7.331-25.954-7.331-27.59 0-49.957 22.366-49.957 49.957 0 1.238.096 2.451.185 3.667-12.509 14.108-20.168 32.613-20.168 52.951 0 44.144 35.786 79.931 79.931 79.931s79.931-35.786 79.931-79.931c0-17.167-5.462-33.032-14.673-46.058z" fill="#00a07d"/><path d="M213.844 221.952c.85-3.386 1.351-6.911 1.351-10.56 0-23.912-19.384-43.296-43.296-43.296-2.511 0-4.957.26-7.35.67-7.571-4.62-16.436-7.331-25.954-7.331-20.527 0-38.144 12.39-45.829 30.091 8.899-10.253 22.045-16.769 36.748-16.769 9.246 0 17.856 2.614 25.21 7.069 2.325-.396 4.701-.646 7.14-.646 23.227 0 42.056 18.692 42.056 41.749 0 3.519-.487 6.918-1.313 10.183 8.947 12.56 14.253 27.858 14.253 44.412 0 24.358-11.411 46.041-29.183 60.166 24.358-13.696 40.84-39.747 40.84-69.681 0-17.166-5.462-33.031-14.673-46.057z" fill="#36b294"/><path fill="#805f59" d="M155.803 407.333h-13.877L145.256 256h3.608z"/><path fill="#805f59" d="M146.505 314.339l-31.223-25.395-3.746 2.082 34.969 31.222zm2.082-13.322l31.223-25.395 3.746 2.082-34.969 31.223z"/><path d="M334.377 184.683c1.021-4.066 1.623-8.3 1.623-12.683 0-28.719-23.281-52-52-52-3.016 0-5.953.312-8.828.805-9.093-5.55-19.74-8.805-31.172-8.805-33.137 0-60 26.863-60 60 0 1.487.116 2.944.222 4.404C169.198 193.348 160 215.574 160 240c0 53.019 42.98 96 96 96s96-42.981 96-96c0-20.619-6.56-39.672-17.623-55.317z" fill="#34be71"/><path d="M334.377 184.683c1.021-4.066 1.623-8.3 1.623-12.683 0-28.719-23.281-52-52-52-3.016 0-5.953.312-8.828.805-9.093-5.55-19.74-8.805-31.172-8.805-24.654 0-45.813 14.881-55.042 36.141C199.646 135.827 215.436 128 233.094 128c11.104 0 21.446 3.139 30.279 8.49 2.793-.475 5.646-.776 8.575-.776 27.896 0 50.511 22.45 50.511 50.143 0 4.227-.584 8.309-1.577 12.23C331.628 213.173 338 231.546 338 251.428c0 29.255-13.706 55.297-35.05 72.262C332.205 307.241 352 275.952 352 240c0-20.619-6.56-39.672-17.623-55.317zm-159.349 5.421c-.032-.439-.037-.885-.067-1.325-1.025 1.613-1.969 3.277-2.899 4.952.981-1.215 1.926-2.462 2.966-3.627z" fill="#52c883"/><g fill="#805f59"><path d="M264.667 407.333H248l4-168.833h4.333z"/><path d="M253.5 303.643l-37.5-30.5-4.5 2.5 42 37.5zm2.5-36.947L230.554 246l-3.054 1.696 28.5 25.447zm0 20.947l37.5-30.5 4.5 2.5-42 37.5z"/></g><path d="M206.559 66.155c0-11.096 8.995-20.091 20.091-20.091 1.675 0 3.276.265 4.831.651 5.242-5.661 12.675-9.261 21-9.261 15.851 0 28.701 12.85 28.701 28.701h-74.623z" fill="#fff" opacity=".6"/><path d="M309.871 70.155c0-6.724-5.443-12.175-12.157-12.175-1.013 0-1.982.161-2.923.394-3.172-3.431-7.67-5.613-12.708-5.613-9.592 0-17.368 7.787-17.368 17.393h45.156zM360 97.269c0-7.801 6.315-14.125 14.104-14.125 1.176 0 2.3.186 3.391.458 3.68-3.98 8.898-6.511 14.742-6.511 11.128 0 20.148 9.034 20.148 20.178H360z" fill="#fff"/></svg>