<svg xmlns="http://www.w3.org/2000/svg" viewBox="0 0 512 512"><path d="M511.959 256c2.506 141.385-110.059 256-251.421 256S2.547 397.385.041 256 110.1 0 251.462 0s257.991 114.615 260.497 256z" fill="#fff9bb"/><path d="M478.048 248h-18.955v-27.75H312.866l-22.467-22.125L256 232H118.405v-24H62.173v13.789H45.75l-14.617-14.395-27.674 27.252 97.683 26.02 206.393 26.211 203.798-8.681c.499-7.322.759-14.712.626-22.197-.121-6.837-.589-13.59-1.234-20.292h-32.677V248z" fill="#ffeb97"/><path d="M20.42 352h89.354v-88H.385c1.506 31.045 8.493 60.689 20.035 88z" fill="#fad2a3"/><path d="M1.084 273.871h92.442v-9.75H.394c.16 3.268.41 6.513.69 9.75z" fill="#ff8562" opacity=".25"/><path fill="#fff4db" d="M109.773 184h148.92v168h-148.92z"/><path fill="#f26e64" d="M109.773 184h148.92v32h-148.92z"/><path d="M510.396 288.627h-79.568V352h64.155c7.742-19.995 12.988-41.239 15.413-63.373z" fill="#fff4db"/><path fill="#fad2a3" d="M301.865 224h128.964v128H301.865z"/><path fill="#ff8562" d="M301.865 224h128.964v9.75H301.865z" opacity=".25"/><path fill="#fffcec" d="M199.134 264h113.732v88H199.134z"/><path d="M52.754 408c47.738 63.078 123.336 104 207.783 104 84.448 0 158.595-40.922 204.096-104H52.754z" fill="#e8a271"/><path d="M484.23 376H32.024a262.398 262.398 0 0 0 20.73 32h411.88a250.103 250.103 0 0 0 19.596-32z" fill="#d8c34a"/><path d="M21.428 354.449A260.29 260.29 0 0 0 32.024 376H484.23a249.902 249.902 0 0 0 10.754-24H21.428v2.449z" fill="#e5af7c"/><path d="M21.428 354.449c1.254 2.886 2.605 5.721 3.962 8.551h465.008c1.602-3.627 3.148-7.286 4.585-11H21.428v2.449z" fill="#d0d75b"/><path d="M223.505 69.796c0-11.474 9.445-20.776 21.097-20.776 1.759 0 3.44.274 5.073.673 5.505-5.854 13.31-9.577 22.052-9.577 16.645 0 30.138 13.288 30.138 29.679h-78.36z" fill="#fff1a9"/><path d="M259.469 79c0-9.295 7.652-16.831 17.091-16.831 1.425 0 2.787.222 4.11.545 4.46-4.743 10.783-7.758 17.864-7.758 13.484 0 24.416 10.765 24.416 24.044h-63.481zm156 98.837c0-7.026 5.784-12.721 12.918-12.721 1.077 0 2.106.168 3.106.412 3.371-3.585 8.15-5.864 13.503-5.864 10.192 0 18.454 8.137 18.454 18.173h-47.981zM163.67 159c0-6.867 5.653-12.433 12.626-12.433 1.052 0 2.059.164 3.036.403 3.294-3.504 7.966-5.731 13.197-5.731 9.961 0 18.036 7.952 18.036 17.762H163.67z" fill="#fff1a9"/><path d="M123.01 122.077c0-16.653 13.709-30.154 30.62-30.154 2.552 0 4.993.398 7.363.977 7.99-8.497 19.319-13.9 32.006-13.9 24.158 0 43.743 19.286 43.743 43.077H123.01zm249.43-1.06c-2.557 0-4.974.496-7.29 1.215-7.337-10.386-19.508-17.215-33.329-17.215s-25.992 6.829-33.329 17.215c-2.316-.719-4.733-1.215-7.29-1.215-13.46 0-24.371 10.745-24.371 24H396.81c.001-13.255-10.91-24-24.37-24z" fill="#ffeb97"/><path d="M403.623 115.426c-1.665 0-3.238.323-4.746.791a26.504 26.504 0 0 0-21.698-11.208 26.503 26.503 0 0 0-21.698 11.208c-1.508-.468-3.081-.791-4.746-.791-8.763 0-15.867 6.996-15.867 15.625h84.622c-.001-8.629-7.104-15.625-15.867-15.625zm-262.8 1.06c-1.665 0-3.238.323-4.746.791-4.777-6.762-12.7-11.208-21.698-11.208s-16.922 4.446-21.698 11.208c-1.508-.468-3.081-.791-4.746-.791-8.763 0-15.867 6.996-15.867 15.625h84.622c-.001-8.629-7.105-15.625-15.867-15.625z" fill="#ffeb97"/><path fill="#f26e64" d="M403.957 192h-75.22l-30.088 32h135.395z"/><path d="M62.419 420h392.975a250.809 250.809 0 0 0 9.24-12H52.754a264.235 264.235 0 0 0 9.665 12z" fill="#d29672"/><path fill="#63a0b5" d="M223.505 288.627h24.371v32h-24.371z"/><path d="M249.907 322.629h-28.433v-36h28.433v36zm-24.371-4h20.309v-28h-20.309v28z" fill="#4185a6"/><path fill="#4185a6" d="M223.505 294.629h24.371v4h-24.371z"/><path fill="#63a0b5" d="M264.124 288.627h24.371v32h-24.371z"/><path d="M290.526 322.629h-28.433v-36h28.433v36zm-24.371-4h20.309v-28h-20.309v28z" fill="#4185a6"/><path fill="#4185a6" d="M264.124 294.629h24.371v4h-24.371z"/><path fill="#f26e64" d="M280.371 220.25h-48.742l-40.619 48h129.98z"/><path fill="#ebd7bd" d="M199.134 342h113.732v10H199.134z"/><path fill="#e8a271" d="M109.773 330.377h89.361V352h-89.361z"/><path fill="#ff8562" d="M199.134 268.25h113.732V278H199.134zm-89.361-52.875h148.92v9.75h-148.92z" opacity=".25"/><path fill="#63a0b5" d="M329.452 288.627h18.278v32h-18.278z"/><path d="M349.764 322.629h-22.34v-36h22.34v36zm-18.279-4h14.216v-28h-14.216v28z" fill="#4185a6"/><path fill="#4185a6" d="M329.454 294.629h18.278v4h-18.278z"/><path fill="#63a0b5" d="M357.208 288.627h18.278v32h-18.278z"/><path d="M377.514 322.629h-22.34v-36h22.34v36zm-18.278-4h14.216v-28h-14.216v28z" fill="#4185a6"/><path fill="#4185a6" d="M357.205 294.629h18.278v4h-18.278z"/><path fill="#63a0b5" d="M384.964 288.627h18.278v32h-18.278z"/><path d="M405.273 322.629h-22.34v-36h22.34v36zm-18.278-4h14.216v-28h-14.216v28z" fill="#4185a6"/><path fill="#4185a6" d="M384.964 294.629h18.278v4h-18.278z"/><path fill="#63a0b5" d="M17.994 288.627h18.278v32H17.994z"/><path d="M38.302 322.629h-22.34v-36h22.34v36zm-18.278-4H34.24v-28H20.024v28z" fill="#4185a6"/><path fill="#4185a6" d="M17.993 294.629h18.278v4H17.993z"/><path fill="#63a0b5" d="M45.75 288.627h18.278v32H45.75z"/><path d="M66.061 322.629h-22.34v-36h22.34v36zm-18.278-4h14.216v-28H47.783v28z" fill="#4185a6"/><path fill="#4185a6" d="M45.752 294.629H64.03v4H45.752z"/><path fill="#63a0b5" d="M73.506 288.627h18.278v32H73.506z"/><path d="M93.812 322.629h-22.34v-36h22.34v36zm-18.279-4H89.75v-28H75.533v28z" fill="#4185a6"/><path fill="#4185a6" d="M73.502 294.629H91.78v4H73.502z"/><path fill="#63a0b5" d="M329.452 244h18.278v24h-18.278z"/><path d="M349.764 270h-22.34v-28h22.34v28zm-18.279-4h14.216v-20h-14.216v20z" fill="#4185a6"/><path fill="#4185a6" d="M329.454 250h18.278v4h-18.278z"/><path fill="#63a0b5" d="M357.208 244h18.278v24h-18.278z"/><path d="M377.514 270h-22.34v-28h22.34v28zm-18.278-4h14.216v-20h-14.216v20z" fill="#4185a6"/><path fill="#4185a6" d="M357.205 250h18.278v4h-18.278z"/><path fill="#63a0b5" d="M384.964 244h18.278v24h-18.278z"/><path d="M405.273 270h-22.34v-28h22.34v28zm-18.278-4h14.216v-20h-14.216v20z" fill="#4185a6"/><path fill="#4185a6" d="M384.964 250h18.278v4h-18.278z"/><path fill="#b66e64" d="M312.866 336.667h117.963V352H312.866z"/><path d="M372.752 347.203c-1.343 0-2.613.26-3.83.638a21.389 21.389 0 0 0-17.511-9.045 21.389 21.389 0 0 0-17.511 9.045c-1.217-.378-2.487-.638-3.83-.638-7.072 0-12.804 5.645-12.804 12.609h68.29c0-6.963-5.733-12.609-12.804-12.609z" fill="#69be5d"/><path d="M381.496 347.203c-1.343 0-2.613.26-3.83.638a21.389 21.389 0 0 0-17.511-9.045c-1.51 0-2.953.242-4.372.537 5.409 1.123 10.086 4.185 13.139 8.508 1.217-.378 2.487-.638 3.83-.638 7.072 0 12.804 5.646 12.804 12.609h8.744c0-6.963-5.732-12.609-12.804-12.609z" fill="#9dc85c"/><path d="M511.866 268.25h-81.038v20.377h79.568c.737-6.72 1.268-13.503 1.47-20.377z" fill="#f26e64"/><path fill="#63a0b5" d="M441.576 306.25h48.488v23.028h-48.488z"/><path d="M492.095 331.277h-52.55V304.25h52.55v27.027zm-48.488-4h44.426V308.25h-44.426v19.027z" fill="#4185a6"/><path fill="#4185a6" d="M463.789 306.25h4.062v23.027h-4.062z"/><path fill="#f26e64" d="M430.829 256h8.632v32.627h-8.632zm-321.056-81.211h8.632v27.838h-8.632zm-8.631 47h8.632v27.838h-8.632z"/><path fill="#b66e64" d="M142.98 168.75h11.424v27.307H142.98zm71.083 0h11.424v27.307h-11.424z"/><path fill="#f26e64" d="M250.062 174.789h8.632v27.838h-8.632z"/><path d="M510.396 288.627h-79.568v9.75h78.177c.484-3.243 1.031-6.465 1.391-9.75z" fill="#ff8562" opacity=".25"/><path fill="#63a0b5" d="M136.852 286.877h18.278v32h-18.278z"/><path d="M157.159 320.879h-22.34v-36h22.34v36zm-18.278-4h14.216v-28h-14.216v28z" fill="#4185a6"/><path fill="#4185a6" d="M136.85 292.879h18.278v4H136.85z"/><path fill="#63a0b5" d="M169.686 286.877h18.278v32h-18.278z"/><path d="M189.995 320.879h-22.34v-36h22.34v36zm-18.278-4h14.216v-28h-14.216v28z" fill="#4185a6"/><path fill="#4185a6" d="M169.686 292.879h18.278v4h-18.278z"/><path fill="#63a0b5" d="M136.852 242.25h18.278v24h-18.278z"/><path d="M157.159 268.25h-22.34v-28h22.34v28zm-18.278-4h14.216v-20h-14.216v20z" fill="#4185a6"/><path fill="#4185a6" d="M136.85 248.25h18.278v4H136.85z"/><path fill="#63a0b5" d="M169.686 242.25h18.278v24h-18.278z"/><path d="M189.995 268.25h-22.34v-28h22.34v28zm-18.278-4h14.216v-20h-14.216v20z" fill="#4185a6"/><path fill="#4185a6" d="M169.686 248.25h18.278v4h-18.278z"/><path d="M109.773 232H.772c-.595 7.905-.874 15.902-.731 24 .048 2.683.215 5.337.344 8h109.388v-32z" fill="#f26e64"/><path d="M20.42 352h89.354v-15.333H14.572c1.81 5.177 3.724 10.307 5.848 15.333z" fill="#b66e64"/><path d="M106.779 357.756V316.78c0-2.103-1.731-3.808-3.869-3.808s-3.869 1.705-3.869 3.808v40.975h7.738z" fill="#996459"/><path d="M130.344 304.222c0 20.735-12.283 31.142-27.436 31.142s-27.436-10.408-27.436-31.142 16.806-101.594 27.436-101.594 27.436 80.859 27.436 101.594z" fill="#69be5d"/><path d="M102.908 202.627c-2.105 0-4.454 3.206-6.865 8.454 8.671 12.933 19.89 76.83 19.89 94.578 0 17.34-7.83 27.102-18.226 29.246 1.687.288 3.419.459 5.201.459 15.152 0 27.436-10.408 27.436-31.142 0-20.735-16.806-101.595-27.436-101.595z" fill="#9dc85c"/><path d="M140.185 357.756v-31.5c0-1.616-1.331-2.927-2.975-2.927-1.644 0-2.975 1.311-2.975 2.927v31.5h5.95z" fill="#996459"/><path d="M158.3 316.601c0 15.94-9.443 23.941-21.091 23.941s-21.091-8.001-21.091-23.941 12.92-78.102 21.091-78.102 21.091 62.162 21.091 78.102z" fill="#69be5d"/><path d="M137.209 238.499c-1.618 0-3.424 2.465-5.278 6.499 6.666 9.942 15.29 59.063 15.29 72.708 0 13.33-6.019 20.835-14.011 22.483a23.75 23.75 0 0 0 3.998.353c11.648 0 21.091-8.001 21.091-23.941s-12.919-78.102-21.09-78.102z" fill="#9dc85c"/><path d="M359.873 344.438c-1.638 0-3.186.317-4.67.778a26.078 26.078 0 0 0-21.351-11.028 26.08 26.08 0 0 0-21.351 11.028c-1.484-.461-3.032-.778-4.67-.778-8.623 0-15.613 6.884-15.613 15.375h83.268c0-8.492-6.99-15.375-15.613-15.375z" fill="#69be5d"/><path d="M333.556 344.438c-1.638 0-3.186.317-4.67.778a26.078 26.078 0 0 0-21.351-11.028 26.08 26.08 0 0 0-21.351 11.028c-1.484-.461-3.032-.778-4.67-.778-8.623 0-15.613 6.884-15.613 15.375h83.268c0-8.492-6.99-15.375-15.613-15.375z" fill="#69be5d"/><path d="M344.218 344.437c-1.638 0-3.186.317-4.67.778a26.079 26.079 0 0 0-21.352-11.028c-1.841 0-3.6.295-5.331.655 6.596 1.369 12.298 5.103 16.02 10.374 1.484-.461 3.032-.778 4.67-.778 8.623 0 15.613 6.884 15.613 15.375h10.662c.001-8.492-6.989-15.376-15.612-15.376z" fill="#9dc85c"/></svg>