<svg xmlns="http://www.w3.org/2000/svg" viewBox="0 0 512 512"><circle cx="256" cy="256" r="256" fill="#95c4f8"/><path d="M230.667 220c-14 0-34.667-4.532-48-16.266C169.333 192 148 178.667 143.333 178.667c-4.667 0-18.167 10.667-28.417 13.333s-17.583 4.667-28.25 7.333C76 202 55.333 210.667 55.333 210.667s.49 10.03 0 13.667c-.49 3.636 59.333 10.333 87.667 7C171.333 228 230.667 220 230.667 220zm245.666-23.667c-17-5.5-25-9-41.5-3s-39 15.653-53.5 16.077c-14.5.423-68.167 14.923-68.167 14.923l173.667-2.5-10.5-25.5z" fill="#926e79"/><path fill="#ddf9ff" d="M60.058 220H466v92H60.058z"/><path d="M466 220H65.2c-2.119 1.258-3.956 2.457-5.142 3.43v2.327c3.276.767 11.787-.11 11.787-.11 6.905 0 7.455 11.103 13.655 11.103 4.75 0 5.755-5.25 11.75-5.25 4.798 0 2 18.5 8.75 18.5 3.409 0 8.583-11.46 11.333-4.126S118.514 264 123 264c5.75 0 8.333-28.667 12-22 3.667 6.667 7.892 7.886 9.5.25 2-9.5 5.5-17.25 8.834-7.917 3.333 9.333 3.76 21.667 8.167 21.667 3.312 0 7.167-23.333 10.5-18 3.333 5.333 6.333 30.333 8.667 22.667 2.333-7.667 8.667-35.333 12-28.667 3.333 6.667 6 4.667 10 1s6.333 19.667 9.333 16.667 8-22 11-17 9 31 11.667 27.333c2.667-3.667 5-30.667 9-26.333S247 245 253.333 245c2.667 0 10.333-21 12.667-14.333s5.159 27.01 9.667 27.01c3.604 0 2-28.01 9.667-28.01 5 0 5.245 15.333 10.333 15.333 3.667 0 9.667-23.667 11.667-16 2 7.667 1.333 47 6.333 47 4.638 0 5.667-48 9-44.333 3.333 3.667 7.667 4.333 11.333-1s3 21.062 7 18.031c4-3.031 4.667-23.031 9.667-17.698 5 5.333 7.986 18.545 11.554 18.545 6.546 0 4.195-15.628 9.71-15.628 7.403 0 5.736 38.536 10.917 38.536 5.819 0 7.818-46.453 13.818-40.12 6 6.333 6.001 15.667 10.334 15.667s7.666-23.333 10-11.667c2.334 11.667 4 30 10.666 15.667 6.668-14.333 5.875-13.199 8.438-8.766 1.699 2.938 18.643-10.807 29.896-20.425V220z" fill="#fff"/><path d="M.116 260.571c.31 17.638 2.397 34.833 6.103 51.429H120c0-20-33.556-36.667-43.532-64-7.138-19.557-2.32-33.705-10.883-40-16.225-11.927-31.423-21.483-55.375-23.555C4.094 205.487.619 227.637.137 250.536l-.021 10.035z" fill="#86646a"/><path d="M6.218 312C31.768 426.438 133.86 512 256 512s224.232-85.563 249.781-200H6.218z" fill="#b3f4ef"/><path d="M282.193 133.039c-1.909 0-3.714.376-5.443.921-5.478-7.875-14.566-13.053-24.887-13.053s-19.408 5.178-24.887 13.053c-1.729-.545-3.534-.921-5.443-.921-10.051 0-18.198 8.148-18.198 18.198h97.056c0-10.05-8.147-18.198-18.198-18.198z" fill="#fff" opacity=".5"/><path d="M348.276 144.154c-2.334 0-4.541.459-6.655 1.126-6.698-9.628-17.809-15.959-30.427-15.959s-23.729 6.33-30.427 15.959c-2.114-.667-4.321-1.126-6.655-1.126-12.288 0-22.249 9.961-22.249 22.249h118.661c.001-12.288-9.961-22.249-22.248-22.249zm60.548-26.68c-1.311 0-2.55.258-3.737.632-3.761-5.407-10.001-8.962-17.087-8.962s-13.325 3.555-17.087 8.962c-1.187-.374-2.426-.632-3.737-.632-6.9 0-12.494 5.594-12.494 12.494h66.637c-.001-6.901-5.595-12.494-12.495-12.494zm-320.313 3.433c0-9.095 7.373-16.469 16.469-16.469 1.373 0 2.685.217 3.96.534 4.297-4.641 10.39-7.592 17.214-7.592 12.993 0 23.527 10.533 23.527 23.527h-61.17z" fill="#fff"/><path d="M128.159 110.238c0-10.308 8.357-18.665 18.665-18.665 1.556 0 3.043.246 4.488.605 4.87-5.26 11.776-8.604 19.51-8.604 14.726 0 26.664 11.938 26.664 26.664h-69.327z" fill="#fff"/><path d="M208.071 75.648h78.858c0-8.166-6.62-14.786-14.786-14.786-1.551 0-3.017.306-4.422.749-4.451-6.399-11.835-10.606-20.221-10.606-4.091 0-7.928 1.031-11.318 2.799-3.458-6.636-10.321-11.217-18.322-11.217-6.015 0-11.386 2.601-15.174 6.692-1.124-.279-2.281-.471-3.491-.471-8.018 0-14.518 6.5-14.518 14.518h30.025c-3.991 2.648-6.631 7.173-6.631 12.322z" fill="#fff" opacity=".5"/><path d="M361.304 85.604c0-13.085-10.607-23.692-23.692-23.692-1.975 0-3.863.312-5.697.768-6.182-6.676-14.948-10.922-24.764-10.922-18.693 0-33.846 15.154-33.846 33.846h87.999z" fill="#fff"/><path d="M35.867 386.667H176c0-10.31-8.357-18.667-18.667-18.667-2.223 0-4.326.455-6.303 1.167-5.133-6.355-12.892-10.501-21.697-10.501-6.352 0-12.141 2.195-16.838 5.758-6.807-9.111-17.58-15.092-29.829-15.092-10.536 0-20.012 4.401-26.8 11.421-3.255-1.325-6.802-2.087-10.533-2.087-3.732 0-7.278.762-10.534 2.087-4.474-4.627-10.187-7.953-16.53-9.794a255 255 0 0 0 17.598 35.708z" fill="#52c883"/><path d="M512 256c0-24.517-3.519-48.199-9.953-70.648-19.074 3.035-32.774 11.227-45.354 22.648-18.174 16.5-37.645 96-72.693 96l-10.485 8 69.243 18 63.024-18c4.026-18.032 6.218-36.755 6.218-56z" fill="#86646a"/><path d="M512 256c0-13.56-1.074-26.866-3.105-39.855-18.386.949-27.257-7.338-31.895 3.855-9.667 23.333-20.181 8.667-25 36-2.645 15-38 49.295-47 54.647S406 335 424 330c11.373-3.159 51.872-7.913 80.163-10.987A256.43 256.43 0 0 0 512 256zM68.667 272.453c-9.333-8.213-8-29.787-8.608-35.216-.609-5.43-7.696-10.97-10.725-17.237C44.5 210 34 203.734 5.506 203.734 2.36 218.897.475 234.519.138 250.537l-.022 10.035c.31 17.638 2.397 34.833 6.103 51.429h111.115c-.001-8.668-39.334-31.334-48.667-39.548z" fill="#745154"/><path d="M373.515 302.667c-2.14 0-4.017.843-5.591 2.054-1.574-1.21-3.451-2.054-5.59-2.054-2.631 0-4.985 1.104-6.682 2.855-1.696-1.75-4.051-2.855-6.681-2.855a9.333 9.333 0 1 0 0 18.666c2.63 0 4.985-1.104 6.681-2.855 1.696 1.75 4.051 2.855 6.682 2.855 2.139 0 4.016-.844 5.59-2.054 1.574 1.21 3.451 2.054 5.591 2.054a9.333 9.333 0 0 0 9.333-9.333 9.332 9.332 0 0 0-9.333-9.333zm-56.346 10c.017-.232.135-.43.135-.667a9.333 9.333 0 0 0-9.333-9.333c-2.765 0-5.181 1.255-6.89 3.165-1.818-2.234-4.476-3.748-7.581-3.748-3.436 0-6.316 1.856-8.095 4.512-1.698-2.321-4.309-3.928-7.405-3.928-2.231 0-4.197.891-5.803 2.197-2.135-2.738-5.427-4.53-9.168-4.53-3.365 0-6.374 1.446-8.503 3.725-1.38-.805-2.896-1.392-4.609-1.392-1.642 0-3.105.537-4.446 1.282-1.589-1.083-3.402-1.865-5.471-1.865-2.873 0-5.41 1.262-7.221 3.214-1.678-1.613-3.936-2.63-6.446-2.63-3.192 0-5.871 1.705-7.554 4.149-1.598-2.111-4.012-3.565-6.863-3.565-2.79 0-5.166 1.39-6.768 3.424-1.771-2.701-4.678-4.591-8.149-4.591-1.942 0-3.649.704-5.179 1.668-1.265-.641-2.64-1.085-4.155-1.085-2.467 0-4.676.999-6.345 2.563-1.488-1.17-3.281-1.979-5.321-1.979-2.503 0-4.727 1.078-6.321 2.762-1.712-2.005-4.169-3.346-7.012-3.346-2.743 0-5.15 1.232-6.857 3.117a8.716 8.716 0 0 0-6.143-2.533c-1.912 0-3.587.74-5.027 1.781-2.128-2.836-5.487-4.698-9.306-4.698-3.297 0-6.262 1.38-8.384 3.58a8.693 8.693 0 0 0-3.283-.663 8.75 8.75 0 0 0-8.75 8.75c0 .236.116.435.135.667h202.118z" fill="#fff"/><path d="M507.029 306.301c-7.602-7.133-17.781-11.551-29.029-11.551-15.752 0-29.346 8.669-36.687 21.401A25.374 25.374 0 0 0 427 311.75c-3.398 0-6.628.694-9.593 1.901-6.183-6.393-14.812-10.401-24.407-10.401s-18.225 4.008-24.406 10.401c-2.965-1.207-6.195-1.901-9.594-1.901s-6.628.694-9.593 1.901c-6.182-6.393-14.812-10.401-24.407-10.401-11.154 0-20.965 5.446-27.165 13.744-4.278-3.245-9.551-5.244-15.335-5.244-8.019 0-15.085 3.776-19.76 9.563-1.801-.649-3.716-1.063-5.74-1.063-9.389 0-17 7.611-17 17h258.757c3.366-10.06 6.165-20.376 8.272-30.949z" fill="#52c883"/><path d="M65.925 302.417c-10.502 0-19.015 6.082-19.015 13.583h38.03c0-7.502-8.513-13.583-19.015-13.583z" fill="#86646a"/><path d="M429.706 323.964c-11.029 0-32.667 23.351-49.132 23.351h81.489c-15.468-11.967-9.854-23.351-32.357-23.351z" fill="#745154"/><path d="M41.043 307.625c-10.502 0-19.015 6.082-19.015 13.583h38.031c-.001-7.502-8.514-13.583-19.016-13.583zM388.348 330c-12.272 0-36.348 25.981-54.668 25.981h90.669C407.139 342.667 413.386 330 388.348 330z" fill="#86646a"/><path d="M134.119 389.146c-2.518 0-4.9.515-7.14 1.323-5.815-7.199-14.604-11.896-24.579-11.896-7.195 0-13.753 2.486-19.075 6.523C75.614 374.774 63.41 368 49.535 368c-7.62 0-14.74 2.048-20.901 5.587a256.24 256.24 0 0 0 23.17 36.705h103.461c0-11.679-9.467-21.146-21.146-21.146z" fill="#43ab5f"/></svg>