<svg xmlns="http://www.w3.org/2000/svg" viewBox="0 0 512 512"><path d="M256 0C114.844 0 0 114.84 0 256s114.844 256 256 256 256-114.84 256-256S397.156 0 256 0z" fill="#ffda9c"/><path d="M325.333 248c-13.333 0-25.667-12.641-43.667-12.641S248.335 248 235.835 248 216 256 216 256h99.667l9.666-8z" fill="#e0b587"/><path d="M288 248c-12.5 0-46-16-64-16s-43.5 16-56 16-16 8-16 8h136v-8z" fill="#ca9f7c"/><path d="M416 168c-18-4.5-47.995-6.646-72 16-26.5 25-46.333 72-88 72h144l24-72-8-16" fill="#a07766"/><path d="M416 168a99.343 99.343 0 0 0-10.606-2.035C392.897 167.807 379.735 172.929 368 184c-26.5 25-46.333 72-88 72h120l24-72-8-16z" fill="#795552"/><path d="M44.162 112.431a255.21 255.21 0 0 0-31.826 65.146L96 208l84.589 27.359c-66.994-40.202-52.291-108.546-136.427-122.928z" fill="#a07766"/><path d="M41.361 116.739a254.82 254.82 0 0 0-31.073 67.58L75.411 208 160 235.359c-61.807-37.089-54.14-98.097-118.639-118.62z" fill="#795552"/><path d="M256 512c141.156 0 256-114.84 256-256H0c0 141.16 114.844 256 256 256z" fill="#e9b668"/><path d="M256 320c100.281 0 193.335-35.256 254.957-41.548C511.604 271.046 512 263.57 512 256H0c0 7.57.396 15.046 1.043 22.452C62.665 284.744 155.719 320 256 320z" fill="#ffda9c" opacity=".5"/><path d="M380.278 479.701L256 256 131.722 479.701C168.551 500.244 210.919 512 256 512s87.449-11.756 124.278-32.299z" fill="#674447"/><path d="M290.79 318.621L256 256l-34.79 62.621C232.687 319.48 244.288 320 256 320s23.313-.52 34.79-1.379zM123.5 400c-4.422 0-8-3.582-8-8v-80c0-4.418 3.578-8 8-8 4.422 0 8 3.582 8 8v80c0 4.418-3.578 8-8 8z" fill="#8c665b"/><path d="M131.5 376h-16c-13.234 0-24-10.766-24-24v-16c0-4.418 3.578-8 8-8 4.422 0 8 3.582 8 8v16c0 4.41 3.586 8 8 8h16c4.414 0 8-3.59 8-8v-24c0-4.418 3.578-8 8-8 4.422 0 8 3.582 8 8v24c0 13.234-10.766 24-24 24z" fill="#8c665b"/><path d="M325.333 304a2.958 2.958 0 0 1-2.958-2.958v-29.583a2.957 2.957 0 1 1 5.916 0v29.583a2.956 2.956 0 0 1-2.958 2.958z" fill="#a07766"/><path d="M328.292 295.125h-5.917c-4.894 0-8.875-3.981-8.875-8.875v-5.917a2.957 2.957 0 1 1 5.916 0v5.917a2.96 2.96 0 0 0 2.958 2.958h5.917a2.961 2.961 0 0 0 2.958-2.958v-8.875a2.957 2.957 0 1 1 5.916 0v8.875c.002 4.894-3.979 8.875-8.873 8.875z" fill="#a07766"/><path d="M416 352c-4.422 0-8 3.582-8 8v16c0 4.41-3.586 8-8 8v-56c0-4.418-3.578-8-8-8s-8 3.582-8 8v40c-4.414 0-8-3.59-8-8v-8c0-4.418-3.578-8-8-8s-8 3.582-8 8v8c0 13.234 10.766 24 24 24v16c0 4.418 3.578 8 8 8s8-3.582 8-8c13.234 0 24-10.766 24-24v-16c0-4.418-3.578-8-8-8z" fill="#8c665b"/><path d="M205.493 96.215c-1.522 0-2.961.3-4.339.734-4.367-6.278-11.612-10.406-19.839-10.406-8.227 0-15.472 4.128-19.839 10.406-1.379-.435-2.817-.734-4.339-.734-8.012 0-14.507 6.495-14.507 14.507H220c0-8.012-6.495-14.507-14.507-14.507zm93.346-27.463c-1.087 0-2.115.214-3.099.525-3.119-4.484-8.294-7.433-14.171-7.433s-11.051 2.948-14.171 7.433c-.985-.311-2.012-.525-3.099-.525-5.723 0-10.362 4.639-10.362 10.362h55.264c0-5.723-4.639-10.362-10.362-10.362z" fill="#edc08e"/><path d="M126.278 98.633c0-8.267 6.702-14.969 14.969-14.969 1.248 0 2.441.197 3.599.485 3.906-4.218 9.444-6.9 15.646-6.9 11.81 0 21.384 9.574 21.384 21.384h-55.598zm182.923 13.72c0-10.65 8.634-19.284 19.284-19.284 1.607 0 3.144.254 4.637.625 5.032-5.434 12.167-8.89 20.157-8.89 15.215 0 27.549 12.334 27.549 27.549h-71.627z" fill="#edc08e"/><path d="M356.658 102.701c0-7.188 5.827-13.015 13.015-13.015 1.085 0 2.122.172 3.13.422 3.396-3.668 8.211-6 13.604-6 10.269 0 18.593 8.324 18.593 18.593h-48.342z" fill="#edc08e"/><path d="M32 160H18.747A254.53 254.53 0 0 0 0 256h240c-64.5 0-135-96-208-96zm272 96h208c0-49.771-14.327-96.237-39.001-135.584C380.69 156.18 401.388 256 304 256z" fill="#8c665b"/><path d="M279.167 510.829L256 256l7.75 255.748c5.18-.156 10.318-.457 15.417-.919zm-30.917.919L256 256l-23.167 254.829c5.099.462 10.237.763 15.417.919z" fill="#e9b668"/><path d="M256 256L131.722 479.701c4.264 2.378 8.619 4.61 13.027 6.748L256 256zm0 0l124.278 223.701c-4.264 2.378-8.619 4.61-13.027 6.748L256 256z" fill="#ffda9c"/><path d="M17.315 163.625C6.178 192.303 0 223.435 0 256h200c-57.012 0-118.714-74.96-182.685-92.375z" fill="#674447"/><path d="M185.705 283.148a3.234 3.234 0 0 0-3.235 3.235v6.47a3.238 3.238 0 0 1-3.235 3.235v-22.644a3.235 3.235 0 1 0-6.47 0v16.174a3.238 3.238 0 0 1-3.235-3.235v-3.235a3.235 3.235 0 1 0-6.47 0v3.235c0 5.351 4.353 9.705 9.705 9.705v6.47a3.235 3.235 0 1 0 6.47 0c5.351 0 9.705-4.353 9.705-9.705v-6.47a3.235 3.235 0 0 0-3.235-3.235z" fill="#a07766"/><path d="M462.182 298.909a4.726 4.726 0 0 0-4.727 4.727v9.455a4.732 4.732 0 0 1-4.727 4.727v-33.091c0-2.611-2.114-4.727-4.727-4.727s-4.727 2.117-4.727 4.727v23.636a4.732 4.732 0 0 1-4.727-4.727v-4.727a4.725 4.725 0 0 0-4.727-4.727 4.726 4.726 0 0 0-4.727 4.727v4.727c0 7.82 6.362 14.182 14.182 14.182v9.455c0 2.611 2.114 4.727 4.727 4.727s4.727-2.117 4.727-4.727c7.82 0 14.182-6.362 14.182-14.182v-9.455a4.729 4.729 0 0 0-4.729-4.727zm-392 0a4.726 4.726 0 0 0-4.727 4.727v9.455a4.732 4.732 0 0 1-4.727 4.727v-33.091c0-2.611-2.114-4.727-4.727-4.727s-4.727 2.117-4.727 4.727v23.636a4.732 4.732 0 0 1-4.727-4.727v-4.727a4.725 4.725 0 0 0-4.727-4.727 4.726 4.726 0 0 0-4.727 4.727v4.727c0 7.82 6.362 14.182 14.182 14.182v9.455c0 2.611 2.114 4.727 4.727 4.727s4.727-2.117 4.727-4.727c7.82 0 14.182-6.362 14.182-14.182v-9.455a4.729 4.729 0 0 0-4.729-4.727z" fill="#8c665b"/><path d="M328 256h184c0-46.049-12.283-89.257-33.653-126.631C407.17 170.432 418.187 256 328 256z" fill="#674447"/></svg>