<svg xmlns="http://www.w3.org/2000/svg" viewBox="0 0 512 512"><circle cx="256" cy="256" r="256" fill="#8dd9ff"/><path d="M495.931 166.622C463.736 80.238 386.245 15.959 292.329 2.612 232.709 23.743 189.93 80.471 189.93 147.333c0 84.87 68.8 153.67 153.67 153.67 78.322 0 142.824-58.637 152.331-134.381z" fill="#fffff4" opacity=".3"/><circle cx="343.6" cy="147.333" r="39.6" fill="#fff"/><path d="M55.802 96.541L119 145.73l45.298 7.001a52.767 52.767 0 0 0 3.008-17.619c0-19.755-10.859-36.949-26.915-46.018.29-2.241.491-4.509.491-6.83 0-17.517-8.575-32.977-21.699-42.593a257.269 257.269 0 0 0-63.381 56.87z" fill="#fff" opacity=".5"/><path d="M256 512c141.385 0 256-114.615 256-256H0c0 141.385 114.615 256 256 256z" fill="#52c883"/><path d="M256 256H0c0 18.763 2.075 37.033 5.906 54.647L256 256z" fill="#ff4f70"/><path d="M167.307 161.536c-.301 0-.579.081-.879.089-4.048-20.144-21.825-35.321-43.161-35.321-1.015 0-1.964.231-2.962.298-7.177-20.669-26.772-35.53-49.885-35.53-3.909 0-7.667.559-11.334 1.364C27.001 131.02 6.07 179.181 1.156 232h166.15c19.458 0 35.232-15.774 35.232-35.232.001-19.458-15.773-35.232-35.231-35.232z" fill="#fff"/><circle cx="343.6" cy="147.333" r="83.885" fill="#fffff4" opacity=".5"/><path d="M455.509 95.663c-16.623 5.455-29.818 18.449-35.598 34.935-1.07-.061-2.13-.163-3.215-.163-24.644 0-45.538 15.846-53.189 37.883-1.059-.089-2.076-.318-3.159-.318-20.747 0-37.565 16.818-37.565 37.565-10.374 0-18.783 8.409-18.783 18.783 0 10.373 8.409 18.783 18.783 18.783h188.892c-2.759-55.713-23.363-106.704-56.166-147.468z" fill="#fff"/><path d="M256 256v256c34.712 0 67.794-6.942 97.979-19.46L256 256z" fill="#ff4f70"/><path d="M158.022 492.54C188.207 505.058 221.288 512 256 512V256l-97.978 236.54z" fill="#ffefa1"/><path d="M74.981 437.019a256.357 256.357 0 0 0 83.041 55.521L256 256 74.981 437.019z" fill="#ffc56e"/><path d="M437.019 437.019L256 256l97.979 236.54a256.363 256.363 0 0 0 83.04-55.521zM19.46 353.978a256.357 256.357 0 0 0 55.521 83.041L256 256 19.46 353.978z" fill="#b26483"/><path d="M3.251 296.675a254.125 254.125 0 0 0 16.208 57.303L256 256 3.251 296.675zM437.02 437.019a256.354 256.354 0 0 0 55.52-83.041L256 256l181.02 181.019z" fill="#6597ff"/><path d="M256 256h256c0 18.763-2.075 37.033-5.906 54.647L256 256z" fill="#ffc56e"/><path d="M256 256l236.54 97.978.001-.002a254.152 254.152 0 0 0 16.208-57.3L256 256z" fill="#44beff"/><path d="M256 336.968c108.139 0 202.459-16.664 252.949-41.414 2-12.893 3.051-26.1 3.051-39.554H0c0 13.454 1.051 26.661 3.051 39.554 50.49 24.75 144.81 41.414 252.949 41.414z" fill="#fff" opacity=".25"/><path d="M511.457 272c.346-5.291.543-10.622.543-16H0c0 5.378.197 10.709.543 16h510.914z" fill="#fff" opacity=".44"/></svg>