<svg xmlns="http://www.w3.org/2000/svg" viewBox="0 0 512 512"><circle cx="256" cy="256" r="256" fill="#fff9bb"/><path d="M381.989 68.886c-1.698 0-3.302.334-4.84.819-4.871-7.003-12.952-11.607-22.129-11.607-9.177 0-17.258 4.604-22.129 11.607-1.538-.485-3.142-.819-4.84-.819-8.937 0-16.182 7.245-16.182 16.182h86.302c0-8.937-7.245-16.182-16.182-16.182z" fill="#ffeb97"/><path d="M303.302 142.694c-1.368 0-2.661.269-3.901.66-3.926-5.643-10.438-9.354-17.834-9.354-7.396 0-13.908 3.71-17.834 9.354-1.239-.391-2.532-.66-3.901-.66-7.202 0-13.041 5.838-13.041 13.041h69.549c.003-7.203-5.836-13.041-13.038-13.041z" fill="#fff1a9"/><path d="M155.056 88.179c0-15.963 12.941-28.903 28.903-28.903 2.409 0 4.713.381 6.95.936 7.542-8.145 18.235-13.324 30.211-13.324 22.804 0 41.29 18.486 41.29 41.29H155.056z" fill="#ffeb97"/><path d="M215.443 102.726c0-12.152 9.675-22.004 21.61-22.004 1.801 0 3.523.29 5.196.713 5.639-6.201 13.634-10.143 22.588-10.143 17.049 0 30.871 14.074 30.871 31.434h-80.265z" fill="#ffeb97"/><path d="M200.985 139.05c0-6.076 4.838-11.002 10.805-11.002.901 0 1.762.145 2.598.356 2.819-3.1 6.817-5.072 11.294-5.072 8.525 0 15.435 7.037 15.435 15.717h-40.132z" fill="#fff1a9"/><path d="M512 256c0-21.093-2.603-41.57-7.414-61.18l-2.912-1.781c-94.341 0-181.341 62.961-292.341 62.961-90.437 0 155.709 10.33 302.385 11.149.159-3.7.282-7.41.282-11.149z" fill="#ffea96"/><path d="M.959 256c0-21.093 2.603-41.57 7.414-61.18l2.912-1.781c94.341 0 100.387 62.961 211.387 62.961 90.438 0-74.755 10.33-221.431 11.149-.159-3.7-.282-7.41-.282-11.149z" fill="#ffeb97"/><path d="M168.079 264.117a3.414 3.414 0 0 1-3.416-3.413V223.94c0-1.885 1.528-3.413 3.416-3.413s3.416 1.528 3.416 3.413v36.764a3.414 3.414 0 0 1-3.416 3.413z" fill="#828240"/><path d="M192.298 214.405c0 18.587-10.843 27.917-24.219 27.917s-24.219-9.33-24.219-27.917 14.836-91.072 24.219-91.072 24.219 72.485 24.219 91.072z" fill="#69be5d"/><path d="M168.078 123.333c-1.858 0-3.932 2.874-6.06 7.578 7.655 11.593 17.558 68.872 17.558 84.782 0 15.544-6.912 24.295-16.089 26.217 1.489.258 3.018.411 4.591.411 13.376 0 24.22-9.33 24.22-27.917s-14.837-91.071-24.22-91.071z" fill="#9dc85c"/><path d="M256 512c141.385 0 256-114.615 256-256H0c0 141.385 114.615 256 256 256z" fill="#d6eb76"/><path d="M43.338 291.396c-65.347 9.264 134.11 46.806 134.11 46.806s292.612 27.512 301.219 27.512c1.422 0 4.378.463 8.17 1.091 12.413-25.813 20.608-54.031 23.73-83.761C385.333 308 246 262.667 43.338 291.396z" fill="#cce16b"/><path d="M256 512c116.391 0 214.575-77.701 245.674-184.041-199.883-.868-316.766-55.612-498.662-32.622C21.938 418.046 127.993 512 256 512z" fill="#d0d75b"/><path d="M14.825 341.925c17.598 49.386 49.932 91.744 91.709 121.85l338.887-35.568a256.228 256.228 0 0 0 45.3-69.992c-151.793-3.691-365.152-29.472-475.896-16.29z" fill="#d8c34a"/><path d="M256 512c102.109 0 190.193-59.809 231.274-146.286-153.878 0-304.532.122-436.266 43.632C97.699 471.667 172.135 512 256 512z" fill="#d0b459"/><path d="M360.002 277.5a4.974 4.974 0 0 1-4.976-4.972v-53.555a4.973 4.973 0 0 1 4.976-4.972 4.973 4.973 0 0 1 4.976 4.972v53.555a4.974 4.974 0 0 1-4.976 4.972z" fill="#828240"/><path d="M395.281 205.083c0 27.076-15.796 40.667-35.281 40.667s-35.281-13.591-35.281-40.667S346.331 72.416 360 72.416s35.281 105.591 35.281 132.667z" fill="#69be5d"/><path d="M360 72.416c-2.707 0-5.728 4.187-8.828 11.04 11.151 16.888 25.578 100.328 25.578 123.504 0 22.643-10.069 35.391-23.438 38.191 2.169.375 4.397.599 6.688.599 19.485 0 35.281-13.591 35.281-40.667S373.669 72.416 360 72.416z" fill="#9dc85c"/><path d="M112.003 267.45a4.384 4.384 0 0 1-4.386-4.383v-47.21c0-2.42 1.963-4.383 4.386-4.383s4.386 1.963 4.386 4.383v47.21a4.383 4.383 0 0 1-4.386 4.383z" fill="#828240"/><path d="M143.102 203.614c0 23.868-13.924 35.849-31.101 35.849S80.9 227.482 80.9 203.614 99.952 86.666 112.001 86.666s31.101 93.08 31.101 116.948z" fill="#69be5d"/><path d="M112.002 86.666c-2.386 0-5.049 3.69-7.782 9.732 9.83 14.887 22.547 88.44 22.547 108.871 0 19.96-8.876 31.197-20.66 33.666 1.912.331 3.876.528 5.896.528 17.177 0 31.101-11.98 31.101-35.849S124.051 86.666 112.002 86.666z" fill="#9dc85c"/><path d="M460.203 101.637c-.059 0-.115-.011-.174-.011-10.06 0-18.919 5.047-24.259 12.724-1.686-.532-3.445-.898-5.306-.898-9.797 0-17.739 7.942-17.739 17.739h66.776a256.172 256.172 0 0 0-19.298-29.554z" fill="#fff1a9"/><circle cx="177.158" cy="456.933" r="6.667" fill="#d8c34a"/><circle cx="197.504" cy="425.667" r="6.667" fill="#d8c34a"/><circle cx="294.667" cy="420.989" r="6.667" fill="#d8c34a"/><circle cx="324.719" cy="395.713" r="6.667" fill="#d8c34a"/><circle cx="266.106" cy="470.442" r="6.667" fill="#d0d75b"/><circle cx="232.667" cy="414.322" r="6.667" fill="#d0d75b"/><circle cx="100.503" cy="303.783" r="3.717" fill="#d6eb76"/><circle cx="51.008" cy="317.471" r="3.717" fill="#cce16b"/><circle cx="146.819" cy="324.138" r="3.717" fill="#cce16b"/><circle cx="80.901" cy="321.188" r="3.717" fill="#cce16b"/><circle cx="197.504" cy="327.854" r="3.717" fill="#d6eb76"/><circle cx="177.158" cy="311.217" r="3.717" fill="#d6eb76"/><circle cx="263.156" cy="321.188" r="3.717" fill="#d6eb76"/><circle cx="239.333" cy="327.854" r="3.717" fill="#cce16b"/><circle cx="291.717" cy="327.854" r="3.717" fill="#cce16b"/><circle cx="355.026" cy="338.203" r="3.717" fill="#d6eb76"/><circle cx="404.742" cy="336.5" r="3.717" fill="#cce16b"/><circle cx="435" cy="341.919" r="3.717" fill="#d6eb76"/><circle cx="338.667" cy="450.266" r="6.667" fill="#d8c34a"/><circle cx="401.026" cy="419" r="6.667" fill="#d8c34a"/><circle cx="373.227" cy="396.667" r="6.667" fill="#d0d75b"/><circle cx="421.026" cy="389.047" r="6.667" fill="#d0d75b"/><circle cx="131.374" cy="420.989" r="6.667" fill="#d0d75b"/></svg>