<svg xmlns="http://www.w3.org/2000/svg" width="1200" height="250" viewBox="0 0 1200 250"><path d="M628.65 135.332a4.333 4.333 0 0 1-4.334 4.333h-18a4.333 4.333 0 0 1 0-8.666h18a4.333 4.333 0 0 1 4.334 4.333zm49.999-.333a4.332 4.332 0 0 1-4.332 4.333h-18.001a4.333 4.333 0 0 1 0-8.666h18.001a4.332 4.332 0 0 1 4.332 4.333zm46.833-.333a4.332 4.332 0 0 1-4.332 4.333h-18.001a4.332 4.332 0 1 1 0-8.666h18.001a4.332 4.332 0 0 1 4.332 4.333zm48.168.666a4.333 4.333 0 0 1-4.334 4.333h-18a4.333 4.333 0 0 1 0-8.666h18a4.333 4.333 0 0 1 4.334 4.333zm49.999-.333a4.332 4.332 0 0 1-4.332 4.333h-18.001a4.333 4.333 0 0 1 0-8.666h18.001a4.332 4.332 0 0 1 4.332 4.333zm47.333-.333a4.332 4.332 0 0 1-4.332 4.333h-18.001a4.332 4.332 0 1 1 0-8.666h18.001a4.332 4.332 0 0 1 4.332 4.333zm47.667.666a4.332 4.332 0 0 1-4.332 4.333h-18.001a4.332 4.332 0 1 1 0-8.666h18.001a4.332 4.332 0 0 1 4.332 4.333zm50-.333a4.332 4.332 0 0 1-4.332 4.333h-18.001a4.332 4.332 0 1 1 0-8.666h18.001a4.332 4.332 0 0 1 4.332 4.333zm47.333-.333a4.332 4.332 0 0 1-4.332 4.333h-18.001a4.333 4.333 0 0 1 0-8.666h18.001a4.332 4.332 0 0 1 4.332 4.333zm48 0a4.332 4.332 0 0 1-4.332 4.333h-18.001a4.333 4.333 0 0 1 0-8.666h18.001a4.332 4.332 0 0 1 4.332 4.333zm47.667.666a4.332 4.332 0 0 1-4.332 4.333h-18.001a4.332 4.332 0 1 1 0-8.666h18.001a4.332 4.332 0 0 1 4.332 4.333zm50-.333a4.332 4.332 0 0 1-4.332 4.333h-18.001a4.332 4.332 0 1 1 0-8.666h18.001a4.332 4.332 0 0 1 4.332 4.333zm-1113.972.333a4.333 4.333 0 0 1-4.333 4.333h-18a4.333 4.333 0 0 1 0-8.666h18a4.333 4.333 0 0 1 4.333 4.333zm50-.333a4.332 4.332 0 0 1-4.332 4.333H75.344a4.333 4.333 0 0 1 0-8.666h18.001a4.333 4.333 0 0 1 4.332 4.333zm47.333-.333a4.332 4.332 0 0 1-4.332 4.333h-18.001a4.333 4.333 0 0 1 0-8.666h18.001a4.333 4.333 0 0 1 4.332 4.333zm47.667.666a4.333 4.333 0 0 1-4.333 4.333h-18a4.333 4.333 0 0 1 0-8.666h18a4.333 4.333 0 0 1 4.333 4.333zm50-.333a4.332 4.332 0 0 1-4.332 4.333h-18.001a4.333 4.333 0 0 1 0-8.666h18.001a4.333 4.333 0 0 1 4.332 4.333zm47.333-.333a4.332 4.332 0 0 1-4.332 4.333h-18.001a4.333 4.333 0 0 1 0-8.666h18.001a4.333 4.333 0 0 1 4.332 4.333zm47.667.666a4.332 4.332 0 0 1-4.332 4.333h-18.001a4.332 4.332 0 1 1 0-8.666h18.001a4.333 4.333 0 0 1 4.332 4.333zm50-.333a4.332 4.332 0 0 1-4.332 4.333h-18.001a4.332 4.332 0 1 1 0-8.666h18.001a4.333 4.333 0 0 1 4.332 4.333zm47.333-.333a4.332 4.332 0 0 1-4.332 4.333h-18.001a4.333 4.333 0 0 1 0-8.666h18.001a4.333 4.333 0 0 1 4.332 4.333zm48 0a4.332 4.332 0 0 1-4.332 4.333h-18.001a4.333 4.333 0 0 1 0-8.666h18.001a4.333 4.333 0 0 1 4.332 4.333zm47.667.666a4.332 4.332 0 0 1-4.332 4.333h-18.001a4.332 4.332 0 1 1 0-8.666h18.001a4.333 4.333 0 0 1 4.332 4.333zm50-.333a4.332 4.332 0 0 1-4.332 4.333h-18.001a4.332 4.332 0 1 1 0-8.666h18.001a4.333 4.333 0 0 1 4.332 4.333z" stroke="#000"/></svg>