<?xml version="1.0" encoding="utf-8"?>
<!-- Generator: Adobe Illustrator 13.0.0, SVG Export Plug-In . SVG Version: 6.00 Build 14948)  -->
<!DOCTYPE svg PUBLIC "-//W3C//DTD SVG 1.1//EN" "http://www.w3.org/Graphics/SVG/1.1/DTD/svg11.dtd">
<svg version="1.1" xmlns="http://www.w3.org/2000/svg" xmlns:xlink="http://www.w3.org/1999/xlink" x="0px" y="0px" width="600px"
	 height="250px" viewBox="0 0 600 250" enable-background="new 0 0 600 250" xml:space="preserve">
<g id="Layer_1_copy">
	<g>
		<path fill="#8EC127" d="M27.259,81.25c0-2.9,0.64-5.413,1.92-7.538c1.28-2.125,3.145-3.188,5.6-3.188h69.12
			c2.453,0,4.32,1.063,5.6,3.188s1.92,4.638,1.92,7.538c0,3.11-0.667,5.725-2,7.85c-1.335,2.125-3.175,3.185-5.52,3.185h-22.08
			v87.468c0,2.47-1.228,4.378-3.68,5.72c-2.455,1.343-5.388,2.013-8.8,2.013c-3.415,0-6.347-0.67-8.8-2.013
			c-2.455-1.342-3.68-3.25-3.68-5.72V92.285h-22.08c-2.347,0-4.188-1.06-5.52-3.185C27.924,86.976,27.259,84.36,27.259,81.25z"/>
		<path fill="#8EC127" d="M104.7,179.805v-60.959c0-2.24,1.145-4.052,3.44-5.44c2.292-1.385,5.2-2.08,8.72-2.08
			c3.093,0,5.705,0.7,7.84,2.098c2.132,1.397,3.2,3.225,3.2,5.482v5.968c1.705-3.868,4.345-7.253,7.92-10.155
			c3.573-2.9,7.28-4.353,11.12-4.353h4.64c2.345,0,4.4,1.075,6.16,3.225c1.76,2.15,2.64,4.675,2.64,7.575
			c0,3.01-0.88,5.587-2.64,7.737c-1.76,2.15-3.815,3.223-6.16,3.223h-4.64c-4.587,0-8.64,2.208-12.16,6.623s-5.28,10.13-5.28,17.15
			v23.93c0,1.914-1.255,3.67-3.76,5.265c-2.508,1.595-5.468,2.393-8.88,2.393c-3.415,0-6.295-0.772-8.64-2.319
			C105.873,183.62,104.7,181.833,104.7,179.805z"/>
		<path fill="#8EC127" d="M170.78,93.335c-2.56-2.18-3.84-4.743-3.84-7.685s1.28-5.48,3.84-7.61c2.56-2.13,5.652-3.195,9.28-3.195
			c3.52,0,6.56,1.065,9.12,3.195c2.56,2.13,3.84,4.667,3.84,7.61s-1.28,5.505-3.84,7.685c-2.56,2.18-5.6,3.27-9.12,3.27
			C176.432,96.605,173.339,95.515,170.78,93.335z M167.74,179.805v-60.959c0-2.24,1.145-4.052,3.44-5.44
			c2.292-1.385,5.252-2.08,8.88-2.08c3.52,0,6.48,0.695,8.88,2.08c2.4,1.388,3.6,3.2,3.6,5.44v60.959
			c0,1.921-1.228,3.681-3.68,5.281c-2.455,1.6-5.387,2.399-8.8,2.399c-3.52,0-6.455-0.772-8.8-2.319
			C168.912,183.62,167.74,181.833,167.74,179.805z"/>
		<path fill="#8EC127" d="M206.938,214.525v-95.68c0-2.24,1.145-4.052,3.44-5.44c2.292-1.385,5.093-2.08,8.4-2.08
			c3.305,0,6.025,0.7,8.16,2.098c2.133,1.397,3.2,3.225,3.2,5.482v3.71c2.025-3.438,4.96-6.337,8.8-8.702
			c3.84-2.365,8.105-3.548,12.8-3.548c8,0,14.772,3.28,20.32,9.84c5.545,6.56,8.32,14.48,8.32,23.759v11.201
			c0,8.959-2.801,16.854-8.4,23.68c-5.6,6.827-12.08,10.24-19.439,10.24c-4.48,0-8.668-1.264-12.561-3.788
			c-3.895-2.524-6.64-5.56-8.24-9.107v38.319c0,1.923-1.255,3.686-3.76,5.291c-2.507,1.602-5.467,2.404-8.88,2.404
			c-3.415,0-6.295-0.775-8.64-2.32C208.11,218.338,206.938,216.551,206.938,214.525z M231.738,157.178c0,1.692,1.2,3.808,3.6,6.343
			c2.4,2.537,5.201,3.805,8.4,3.805c3.093,0,5.84-1.239,8.24-3.725s3.6-5.313,3.6-8.485v-11.098c0-3.064-1.199-5.814-3.6-8.244
			c-2.4-2.431-5.255-3.648-8.56-3.648c-3.096,0-5.815,1.086-8.16,3.25c-2.348,2.168-3.52,5.048-3.52,8.643V157.178z"/>
		<path fill="#D41243" d="M287.896,168.285c0-2.984,1.093-5.973,3.28-8.96c2.185-2.985,4.72-4.479,7.6-4.479
			c1.6,0,3.385,0.646,5.36,1.939c1.973,1.295,3.785,2.728,5.439,4.301c1.652,1.574,3.973,3.007,6.96,4.299
			c2.985,1.295,6.133,1.94,9.44,1.94c4.16,0,7.785-0.88,10.88-2.64c3.093-1.76,4.64-4.4,4.64-7.92c0-3.521-1.734-6.613-5.199-9.28
			c-3.468-2.665-7.681-5.093-12.641-7.28c-4.96-2.185-9.947-4.64-14.96-7.359c-5.015-2.721-9.255-6.586-12.72-11.601
			c-3.468-5.012-5.2-10.985-5.2-17.92c0-11.307,4-19.76,12-25.36s17.652-8.4,28.96-8.4c2.772,0,5.68,0.165,8.72,0.495
			c3.04,0.33,6.453,0.962,10.24,1.897c3.785,0.935,6.88,2.445,9.28,4.532c2.399,2.09,3.6,4.618,3.6,7.583
			c0,2.82-0.88,5.745-2.64,8.78c-1.76,3.035-4.188,4.552-7.28,4.552c-1.28,0-4-1.012-8.16-3.04c-4.159-2.025-8.747-3.04-13.76-3.04
			c-5.335,0-9.335,0.935-12,2.8c-2.667,1.867-4,4.135-4,6.8c0,2.455,1.253,4.695,3.76,6.72c2.505,2.027,5.625,3.76,9.36,5.2
			c3.732,1.44,7.813,3.308,12.24,5.6c4.425,2.295,8.505,4.8,12.24,7.52c3.732,2.721,6.852,6.535,9.359,11.44
			c2.505,4.907,3.76,10.508,3.76,16.8c0,11-3.68,19.563-11.04,25.69c-7.359,6.128-17.015,9.19-28.96,9.19
			c-10.347,0-19.359-2.133-27.04-6.4C291.736,178.42,287.896,173.62,287.896,168.285z"/>
		<path fill="#D41243" d="M377.334,179.805v-60.959c0-2.24,1.145-4.052,3.439-5.44c2.293-1.385,5.253-2.08,8.88-2.08
			c2.985,0,5.546,0.7,7.681,2.098c2.132,1.397,3.2,3.225,3.2,5.482v3.71c1.705-3.438,4.452-6.337,8.239-8.702
			c3.785-2.365,8.186-3.548,13.2-3.548c7.36,0,13.732,3.308,19.12,9.92c5.385,6.615,8.08,14.508,8.08,23.68v35.84
			c0,2.455-1.228,4.348-3.68,5.681c-2.455,1.335-5.388,2-8.801,2c-3.199,0-6.055-0.69-8.56-2.072
			c-2.508-1.383-3.76-3.245-3.76-5.585V144.09c0-3.082-1.147-5.848-3.44-8.295c-2.295-2.444-4.987-3.67-8.08-3.67
			c-2.774,0-5.255,1.09-7.439,3.271c-2.188,2.18-3.28,5.08-3.28,8.694v35.738c0,1.914-1.255,3.67-3.76,5.265
			c-2.508,1.595-5.415,2.393-8.721,2.393c-3.52,0-6.454-0.772-8.8-2.319C378.506,183.62,377.334,181.833,377.334,179.805z"/>
		<path fill="#D41243" d="M465.813,93.335c-2.561-2.18-3.84-4.743-3.84-7.685s1.279-5.48,3.84-7.61
			c2.56-2.13,5.652-3.195,9.279-3.195c3.521,0,6.561,1.065,9.12,3.195c2.561,2.13,3.841,4.667,3.841,7.61s-1.28,5.505-3.841,7.685
			c-2.56,2.18-5.6,3.27-9.12,3.27C471.466,96.605,468.373,95.515,465.813,93.335z M462.773,179.805v-60.959
			c0-2.24,1.145-4.052,3.439-5.44c2.293-1.385,5.253-2.08,8.88-2.08c3.521,0,6.48,0.695,8.881,2.08c2.399,1.388,3.6,3.2,3.6,5.44
			v60.959c0,1.921-1.228,3.681-3.68,5.281c-2.455,1.6-5.388,2.399-8.801,2.399c-3.52,0-6.454-0.772-8.8-2.319
			C463.945,183.62,462.773,181.833,462.773,179.805z"/>
		<path fill="#D41243" d="M501.973,214.525v-95.68c0-2.24,1.145-4.052,3.439-5.44c2.293-1.385,5.093-2.08,8.4-2.08
			c3.305,0,6.024,0.7,8.16,2.098c2.132,1.397,3.199,3.225,3.199,5.482v3.71c2.025-3.438,4.96-6.337,8.801-8.702
			c3.84-2.365,8.104-3.548,12.8-3.548c8,0,14.772,3.28,20.32,9.84c5.545,6.56,8.319,14.48,8.319,23.759v11.201
			c0,8.959-2.8,16.854-8.399,23.68c-5.601,6.827-12.08,10.24-19.44,10.24c-4.479,0-8.667-1.264-12.56-3.788
			c-3.896-2.524-6.641-5.56-8.24-9.107v38.319c0,1.923-1.255,3.686-3.76,5.291c-2.508,1.602-5.468,2.404-8.881,2.404
			c-3.414,0-6.295-0.775-8.64-2.32C503.145,218.338,501.973,216.551,501.973,214.525z M526.772,157.178c0,1.692,1.2,3.808,3.6,6.343
			c2.4,2.537,5.2,3.805,8.4,3.805c3.093,0,5.84-1.239,8.24-3.725c2.399-2.485,3.6-5.313,3.6-8.485v-11.098
			c0-3.064-1.2-5.814-3.6-8.244c-2.4-2.431-5.256-3.648-8.561-3.648c-3.095,0-5.814,1.086-8.16,3.25
			c-2.348,2.168-3.52,5.048-3.52,8.643V157.178z"/>
	</g>
</g>
<g id="Layer_1">
	<path stroke="#000000" d="M57.167,146.833c0,2.393-1.94,4.333-4.333,4.333h-18c-2.393,0-4.333-1.94-4.333-4.333l0,0
		c0-2.393,1.94-4.333,4.333-4.333h18C55.227,142.5,57.167,144.44,57.167,146.833L57.167,146.833z"/>
	<path stroke="#000000" d="M107.166,146.5c0,2.393-1.939,4.333-4.332,4.333H84.833c-2.393,0-4.333-1.94-4.333-4.333l0,0
		c0-2.393,1.94-4.333,4.333-4.333h18.001C105.227,142.167,107.166,144.107,107.166,146.5L107.166,146.5z"/>
	<path stroke="#000000" d="M154.499,146.167c0,2.393-1.939,4.333-4.332,4.333h-18.001c-2.393,0-4.333-1.94-4.333-4.333l0,0
		c0-2.393,1.94-4.333,4.333-4.333h18.001C152.56,141.834,154.499,143.774,154.499,146.167L154.499,146.167z"/>
	<path stroke="#000000" d="M202.167,146.833c0,2.393-1.94,4.333-4.333,4.333h-18c-2.393,0-4.333-1.94-4.333-4.333l0,0
		c0-2.393,1.94-4.333,4.333-4.333h18C200.227,142.5,202.167,144.44,202.167,146.833L202.167,146.833z"/>
	<path stroke="#000000" d="M252.166,146.5c0,2.393-1.939,4.333-4.332,4.333h-18.001c-2.393,0-4.333-1.94-4.333-4.333l0,0
		c0-2.393,1.94-4.333,4.333-4.333h18.001C250.227,142.167,252.166,144.107,252.166,146.5L252.166,146.5z"/>
	<path stroke="#000000" d="M299.499,146.167c0,2.393-1.939,4.333-4.332,4.333h-18.001c-2.393,0-4.333-1.94-4.333-4.333l0,0
		c0-2.393,1.94-4.333,4.333-4.333h18.001C297.56,141.834,299.499,143.774,299.499,146.167L299.499,146.167z"/>
	<path stroke="#000000" d="M347.166,146.833c0,2.393-1.939,4.333-4.332,4.333h-18.001c-2.394,0-4.333-1.94-4.333-4.333l0,0
		c0-2.393,1.939-4.333,4.333-4.333h18.001C345.227,142.5,347.166,144.44,347.166,146.833L347.166,146.833z"/>
	<path stroke="#000000" d="M397.166,146.5c0,2.393-1.939,4.333-4.332,4.333h-18.001c-2.394,0-4.333-1.94-4.333-4.333l0,0
		c0-2.393,1.939-4.333,4.333-4.333h18.001C395.227,142.167,397.166,144.107,397.166,146.5L397.166,146.5z"/>
	<path stroke="#000000" d="M444.499,146.167c0,2.393-1.939,4.333-4.332,4.333h-18.001c-2.393,0-4.333-1.94-4.333-4.333l0,0
		c0-2.393,1.94-4.333,4.333-4.333h18.001C442.56,141.834,444.499,143.774,444.499,146.167L444.499,146.167z"/>
	<path stroke="#000000" d="M492.499,146.167c0,2.393-1.939,4.333-4.332,4.333h-18.001c-2.393,0-4.333-1.94-4.333-4.333l0,0
		c0-2.393,1.94-4.333,4.333-4.333h18.001C490.56,141.834,492.499,143.774,492.499,146.167L492.499,146.167z"/>
	<path stroke="#000000" d="M540.166,146.833c0,2.393-1.939,4.333-4.332,4.333h-18.001c-2.394,0-4.333-1.94-4.333-4.333l0,0
		c0-2.393,1.939-4.333,4.333-4.333h18.001C538.227,142.5,540.166,144.44,540.166,146.833L540.166,146.833z"/>
	<path stroke="#000000" d="M590.166,146.5c0,2.393-1.939,4.333-4.332,4.333h-18.001c-2.394,0-4.333-1.94-4.333-4.333l0,0
		c0-2.393,1.939-4.333,4.333-4.333h18.001C588.227,142.167,590.166,144.107,590.166,146.5L590.166,146.5z"/>
</g>
<g id="Layer_3" display="none">
	<rect x="-2.5" y="151.5" display="inline" fill="#561010" stroke="#000000" width="634" height="14"/>
</g>
</svg>
