<?xml version="1.0" encoding="utf-8"?>
<!-- Generator: Adobe Illustrator 13.0.0, SVG Export Plug-In . SVG Version: 6.00 Build 14948)  -->
<!DOCTYPE svg PUBLIC "-//W3C//DTD SVG 1.1//EN" "http://www.w3.org/Graphics/SVG/1.1/DTD/svg11.dtd">
<svg version="1.1" xmlns="http://www.w3.org/2000/svg" xmlns:xlink="http://www.w3.org/1999/xlink" x="0px" y="0px" width="1200px"
	 height="250px" viewBox="0 0 1200 250" enable-background="new 0 0 1200 250" xml:space="preserve">
<g id="Layer_1" display="none">
	<rect x="-56.5" y="141.5" display="inline" fill="#161515" stroke="#000000" width="1230" height="26"/>
</g>
<g id="Layer_2" display="none">
	<path display="inline" stroke="#000000" d="M31.435,134.59c0,2.393-1.94,4.333-4.333,4.333h-18c-2.393,0-4.333-1.94-4.333-4.333
		l0,0c0-2.393,1.94-4.333,4.333-4.333h18C29.495,130.257,31.435,132.197,31.435,134.59L31.435,134.59z"/>
	<path display="inline" stroke="#000000" d="M81.434,134.257c0,2.393-1.939,4.333-4.332,4.333H59.101
		c-2.393,0-4.333-1.94-4.333-4.333l0,0c0-2.393,1.94-4.333,4.333-4.333h18.001C79.495,129.924,81.434,131.864,81.434,134.257
		L81.434,134.257z"/>
	<path display="inline" stroke="#000000" d="M128.767,133.924c0,2.393-1.939,4.333-4.332,4.333h-18.001
		c-2.393,0-4.333-1.94-4.333-4.333l0,0c0-2.393,1.94-4.333,4.333-4.333h18.001C126.828,129.591,128.767,131.531,128.767,133.924
		L128.767,133.924z"/>
	<path display="inline" stroke="#000000" d="M176.435,133.59c0,2.393-1.94,4.333-4.333,4.333h-18c-2.393,0-4.333-1.94-4.333-4.333
		l0,0c0-2.393,1.94-4.333,4.333-4.333h18C174.495,129.257,176.435,131.197,176.435,133.59L176.435,133.59z"/>
	<path display="inline" stroke="#000000" d="M226.434,133.257c0,2.393-1.939,4.333-4.332,4.333h-18.001
		c-2.393,0-4.333-1.94-4.333-4.333l0,0c0-2.393,1.94-4.333,4.333-4.333h18.001C224.495,128.924,226.434,130.864,226.434,133.257
		L226.434,133.257z"/>
	<path display="inline" stroke="#000000" d="M273.767,132.924c0,2.393-1.939,4.333-4.332,4.333h-18.001
		c-2.393,0-4.333-1.94-4.333-4.333l0,0c0-2.393,1.94-4.333,4.333-4.333h18.001C271.828,128.591,273.767,130.531,273.767,132.924
		L273.767,132.924z"/>
	<path display="inline" stroke="#000000" d="M321.434,132.59c0,2.393-1.939,4.333-4.332,4.333h-18.001
		c-2.394,0-4.333-1.94-4.333-4.333l0,0c0-2.393,1.939-4.333,4.333-4.333h18.001C319.495,128.257,321.434,130.197,321.434,132.59
		L321.434,132.59z"/>
	<path display="inline" stroke="#000000" d="M371.434,132.257c0,2.393-1.939,4.333-4.332,4.333h-18.001
		c-2.394,0-4.333-1.94-4.333-4.333l0,0c0-2.393,1.939-4.333,4.333-4.333h18.001C369.495,127.924,371.434,129.864,371.434,132.257
		L371.434,132.257z"/>
	<path display="inline" stroke="#000000" d="M418.767,131.924c0,2.393-1.939,4.333-4.332,4.333h-18.001
		c-2.393,0-4.333-1.94-4.333-4.333l0,0c0-2.393,1.94-4.333,4.333-4.333h18.001C416.828,127.591,418.767,129.531,418.767,131.924
		L418.767,131.924z"/>
	<path display="inline" stroke="#000000" d="M466.767,130.924c0,2.393-1.939,4.333-4.332,4.333h-18.001
		c-2.393,0-4.333-1.94-4.333-4.333l0,0c0-2.393,1.94-4.333,4.333-4.333h18.001C464.828,126.591,466.767,128.531,466.767,130.924
		L466.767,130.924z"/>
	<path display="inline" stroke="#000000" d="M514.434,130.59c0,2.393-1.939,4.333-4.332,4.333h-18.001
		c-2.394,0-4.333-1.94-4.333-4.333l0,0c0-2.393,1.939-4.333,4.333-4.333h18.001C512.495,126.257,514.434,128.197,514.434,130.59
		L514.434,130.59z"/>
	<path display="inline" stroke="#000000" d="M564.434,130.257c0,2.393-1.939,4.333-4.332,4.333h-18.001
		c-2.394,0-4.333-1.94-4.333-4.333l0,0c0-2.393,1.939-4.333,4.333-4.333h18.001C562.495,125.924,564.434,127.864,564.434,130.257
		L564.434,130.257z"/>
</g>
<g id="Layer_3">
	<path stroke="#000000" d="M628.65,135.332c0,2.393-1.94,4.333-4.334,4.333h-18c-2.393,0-4.333-1.94-4.333-4.333l0,0
		c0-2.393,1.94-4.333,4.333-4.333h18C626.71,130.999,628.65,132.939,628.65,135.332L628.65,135.332z"/>
	<path stroke="#000000" d="M678.649,134.999c0,2.393-1.939,4.333-4.332,4.333h-18.001c-2.393,0-4.333-1.94-4.333-4.333l0,0
		c0-2.393,1.94-4.333,4.333-4.333h18.001C676.71,130.666,678.649,132.606,678.649,134.999L678.649,134.999z"/>
	<path stroke="#000000" d="M725.482,134.666c0,2.393-1.939,4.333-4.332,4.333h-18.001c-2.394,0-4.333-1.94-4.333-4.333l0,0
		c0-2.393,1.939-4.333,4.333-4.333h18.001C723.543,130.333,725.482,132.273,725.482,134.666L725.482,134.666z"/>
	<path stroke="#000000" d="M773.65,135.332c0,2.393-1.94,4.333-4.334,4.333h-18c-2.393,0-4.333-1.94-4.333-4.333l0,0
		c0-2.393,1.94-4.333,4.333-4.333h18C771.71,130.999,773.65,132.939,773.65,135.332L773.65,135.332z"/>
	<path stroke="#000000" d="M823.649,134.999c0,2.393-1.939,4.333-4.332,4.333h-18.001c-2.393,0-4.333-1.94-4.333-4.333l0,0
		c0-2.393,1.94-4.333,4.333-4.333h18.001C821.71,130.666,823.649,132.606,823.649,134.999L823.649,134.999z"/>
	<path stroke="#000000" d="M870.982,134.666c0,2.393-1.939,4.333-4.332,4.333h-18.001c-2.394,0-4.333-1.94-4.333-4.333l0,0
		c0-2.393,1.939-4.333,4.333-4.333h18.001C869.043,130.333,870.982,132.273,870.982,134.666L870.982,134.666z"/>
	<path stroke="#000000" d="M918.649,135.332c0,2.393-1.939,4.333-4.332,4.333h-18.001c-2.394,0-4.333-1.94-4.333-4.333l0,0
		c0-2.393,1.939-4.333,4.333-4.333h18.001C916.71,130.999,918.649,132.939,918.649,135.332L918.649,135.332z"/>
	<path stroke="#000000" d="M968.649,134.999c0,2.393-1.939,4.333-4.332,4.333h-18.001c-2.394,0-4.333-1.94-4.333-4.333l0,0
		c0-2.393,1.939-4.333,4.333-4.333h18.001C966.71,130.666,968.649,132.606,968.649,134.999L968.649,134.999z"/>
	<path stroke="#000000" d="M1015.982,134.666c0,2.393-1.939,4.333-4.332,4.333h-18.001c-2.393,0-4.333-1.94-4.333-4.333l0,0
		c0-2.393,1.94-4.333,4.333-4.333h18.001C1014.043,130.333,1015.982,132.273,1015.982,134.666L1015.982,134.666z"/>
	<path stroke="#000000" d="M1063.982,134.666c0,2.393-1.939,4.333-4.332,4.333h-18.001c-2.393,0-4.333-1.94-4.333-4.333l0,0
		c0-2.393,1.94-4.333,4.333-4.333h18.001C1062.043,130.333,1063.982,132.273,1063.982,134.666L1063.982,134.666z"/>
	<path stroke="#000000" d="M1111.649,135.332c0,2.393-1.939,4.333-4.332,4.333h-18.001c-2.394,0-4.333-1.94-4.333-4.333l0,0
		c0-2.393,1.939-4.333,4.333-4.333h18.001C1109.71,130.999,1111.649,132.939,1111.649,135.332L1111.649,135.332z"/>
	<path stroke="#000000" d="M1161.649,134.999c0,2.393-1.939,4.333-4.332,4.333h-18.001c-2.394,0-4.333-1.94-4.333-4.333l0,0
		c0-2.393,1.939-4.333,4.333-4.333h18.001C1159.71,130.666,1161.649,132.606,1161.649,134.999L1161.649,134.999z"/>
</g>
<g id="Layer_4">
	<path stroke="#000000" d="M47.677,135.332c0,2.393-1.94,4.333-4.333,4.333h-18c-2.393,0-4.333-1.94-4.333-4.333l0,0
		c0-2.393,1.94-4.333,4.333-4.333h18C45.737,130.999,47.677,132.939,47.677,135.332L47.677,135.332z"/>
	<path stroke="#000000" d="M97.677,134.999c0,2.393-1.939,4.333-4.332,4.333H75.344c-2.393,0-4.333-1.94-4.333-4.333l0,0
		c0-2.393,1.94-4.333,4.333-4.333h18.001C95.737,130.666,97.677,132.606,97.677,134.999L97.677,134.999z"/>
	<path stroke="#000000" d="M145.01,134.666c0,2.393-1.939,4.333-4.332,4.333h-18.001c-2.393,0-4.333-1.94-4.333-4.333l0,0
		c0-2.393,1.94-4.333,4.333-4.333h18.001C143.07,130.333,145.01,132.273,145.01,134.666L145.01,134.666z"/>
	<path stroke="#000000" d="M192.677,135.332c0,2.393-1.94,4.333-4.333,4.333h-18c-2.393,0-4.333-1.94-4.333-4.333l0,0
		c0-2.393,1.94-4.333,4.333-4.333h18C190.737,130.999,192.677,132.939,192.677,135.332L192.677,135.332z"/>
	<path stroke="#000000" d="M242.677,134.999c0,2.393-1.939,4.333-4.332,4.333h-18.001c-2.393,0-4.333-1.94-4.333-4.333l0,0
		c0-2.393,1.94-4.333,4.333-4.333h18.001C240.737,130.666,242.677,132.606,242.677,134.999L242.677,134.999z"/>
	<path stroke="#000000" d="M290.01,134.666c0,2.393-1.939,4.333-4.332,4.333h-18.001c-2.393,0-4.333-1.94-4.333-4.333l0,0
		c0-2.393,1.94-4.333,4.333-4.333h18.001C288.07,130.333,290.01,132.273,290.01,134.666L290.01,134.666z"/>
	<path stroke="#000000" d="M337.677,135.332c0,2.393-1.939,4.333-4.332,4.333h-18.001c-2.394,0-4.333-1.94-4.333-4.333l0,0
		c0-2.393,1.939-4.333,4.333-4.333h18.001C335.737,130.999,337.677,132.939,337.677,135.332L337.677,135.332z"/>
	<path stroke="#000000" d="M387.677,134.999c0,2.393-1.939,4.333-4.332,4.333h-18.001c-2.394,0-4.333-1.94-4.333-4.333l0,0
		c0-2.393,1.939-4.333,4.333-4.333h18.001C385.737,130.666,387.677,132.606,387.677,134.999L387.677,134.999z"/>
	<path stroke="#000000" d="M435.01,134.666c0,2.393-1.939,4.333-4.332,4.333h-18.001c-2.393,0-4.333-1.94-4.333-4.333l0,0
		c0-2.393,1.94-4.333,4.333-4.333h18.001C433.07,130.333,435.01,132.273,435.01,134.666L435.01,134.666z"/>
	<path stroke="#000000" d="M483.01,134.666c0,2.393-1.939,4.333-4.332,4.333h-18.001c-2.393,0-4.333-1.94-4.333-4.333l0,0
		c0-2.393,1.94-4.333,4.333-4.333h18.001C481.07,130.333,483.01,132.273,483.01,134.666L483.01,134.666z"/>
	<path stroke="#000000" d="M530.677,135.332c0,2.393-1.939,4.333-4.332,4.333h-18.001c-2.394,0-4.333-1.94-4.333-4.333l0,0
		c0-2.393,1.939-4.333,4.333-4.333h18.001C528.737,130.999,530.677,132.939,530.677,135.332L530.677,135.332z"/>
	<path stroke="#000000" d="M580.677,134.999c0,2.393-1.939,4.333-4.332,4.333h-18.001c-2.394,0-4.333-1.94-4.333-4.333l0,0
		c0-2.393,1.939-4.333,4.333-4.333h18.001C578.737,130.666,580.677,132.606,580.677,134.999L580.677,134.999z"/>
</g>
</svg>
