<svg xmlns="http://www.w3.org/2000/svg" viewBox="0 0 512 512"><circle cx="256" cy="256" r="256" fill="#9da6ed"/><circle cx="256" cy="250.199" r="158.634" fill="#ffc8a9" opacity=".3"/><circle cx="256" cy="250.199" r="84.31" fill="#ffd7a8" opacity=".3"/><path d="M508.242 299.51c-5.469-8.825-28.003-43.51-44.353-43.51-20.604 0-48.39 56-66.602 56-14.569 0-32.78-32-41.626-32-8.325 0-44.228 48-58.276 48H180.833c-24.976 0-58.993-53.765-66.602-64-6.938-9.333-24.976-8-24.976-8S42.08 328 14.33 328h-3.992C41.451 434.318 139.624 512 256 512c126.544 0 231.573-91.842 252.242-212.49z" fill="#a17988"/><path d="M366.942 288.094C360 286.5 358.75 300.5 351 301.5c-10.888 1.405-14 24-18 31.5s-15 14.5-25.5 14.5-22.198 16.573-34.75 23.75c0 0 117.25 35.75 156.75 35.75 17.875 0 31.62-5.651 42.231-13.253 17.994-28.141 30.651-60.026 36.512-94.237-3.598-5.805-14.585-22.76-26.334-33.711-6.916-1.004-13.269-1.619-14.909-.799-4 2-8.5 4-11.5 12.865s-18 15.135-26 21.635-7.5 22-14.866 23.5-8.634-5-17.346-11c-9.79 0-21.213-14.426-30.346-23.906zM176.667 348c-11.56 3.287-17.417-1.25-21.333-10-7.239-16.172-44.592-55.461-52.667-55-11.667.667-14.5-5.833-20.667-.728-4.668 3.865-42.134 31.254-53.312 34.964-5.313 1.764-16.123 3.317-20.32 3.826 6.828 26.055 17.695 50.457 31.831 72.574 7.367 1.321 16.408 2.047 27.802 1.696C111.333 394 211.5 373 211.5 373c-9.941-10.555-17.25-30-34.833-25z" fill="#926e79"/><path d="M97.852 336c-10.601 0-36.398 32-59.367 32H25.843C67.384 453.239 154.796 512 256 512c107.551 0 199.526-66.359 237.412-160.343C477.927 348.28 471.01 320 462.537 320c-7.421 0-49.826 32-59.368 32-14.842 0-17.669-24-33.924-24s-15.902 40-33.924 40c-13.782 0-11.308-8-25.442-8-5.631 0-8.482 8-16.96 8h-50.89c-12.015 0-25.796-16-33.924-16-8.746 0-21.91 16-42.405 16-43.819 0-50.886-32-67.848-32z" fill="#86646a"/><path d="M256 512c105.34 0 195.784-63.644 235.071-154.56C479.75 355 471.75 349.25 467.25 340c-3.039-6.246-11.033-3.865-12.75-2.14-10.75 10.8-29.365 46.106-39.866 46.106-5.384 0-33.419-37.485-37.634-37.967-8.75-1-13.5 16.5-33 23.5-8.165 2.931-11.5 13.434-21 14.467-9.5 1.034-24.5-3.466-34 4.034s-50.96 31.796-61.329 29.152c-9.421-2.402-7.083-16.198-8.171-21.731-2-10.171-6.5-23.671-14-18.921-5.491 3.478-20.667.219-29.167 1.5s-34 27.333-48.333 22c-6.374-2.372-19-37.5-25-38s-8.271 1.076-12.5 3c-10.428 4.745-37.857 14.635-54.973 21.075C80.082 461.431 162.116 512 256 512z" fill="#745154"/><circle cx="256" cy="250.199" r="37.532" fill="#fff"/><path d="M152.764 166.731h63.119c0-22.091-17.909-40-40-40-11.602 0-21.961 5.017-29.267 12.907-2.167-.538-4.399-.907-6.733-.907-9.529 0-17.92 4.782-22.978 12.054-5.259-2.561-11.132-4.054-17.378-4.054-13.611 0-25.596 6.829-32.821 17.215-2.281-.719-4.661-1.215-7.179-1.215-13.255 0-24 10.745-24 24h128c0-8.359-4.283-15.702-10.763-20zM445.634 160c-11.602 0-21.961 5.017-29.267 12.907-2.167-.538-4.399-.907-6.733-.907-10.721 0-19.923 6.093-24.628 14.942-3.244-3.093-7.613-5.02-12.449-5.02-5.243 0-9.924 2.268-13.226 5.833-.979-.243-1.988-.41-3.043-.41-6.988 0-12.654 5.665-12.654 12.654h142c0-22.09-17.909-39.999-40-39.999z" fill="#fff" opacity=".5"/><path d="M272.25 150.192c0-9.07 7.353-16.423 16.423-16.423 1.369 0 2.678.217 3.949.532 4.285-4.628 10.362-7.571 17.166-7.571 12.957 0 23.462 10.504 23.462 23.462h-61z" fill="#fff" opacity=".3"/><path d="M256 512c64.907 0 124.039-24.283 169.135-64.107C366.188 446.731 324.094 400 301.088 400c-37.738 0-87.17 54.667-108.211 56-21.041 1.333-51.851-32.667-72.14-24a1431.37 1431.37 0 0 0-34.569 15.308C131.35 487.491 190.766 512 256 512z" fill="#674447"/><circle cx="213.75" cy="57.333" r="6" fill="#fff" opacity=".5"/><circle cx="263.299" cy="39.333" r="6" fill="#fff" opacity=".15"/><circle cx="314.532" cy="72" r="6" fill="#fff" opacity=".15"/><circle cx="375.333" cy="108" r="6" fill="#fff" opacity=".15"/><circle cx="262" cy="102" r="6" fill="#fff" opacity=".5"/><circle cx="369.333" cy="66" r="6" fill="#fff" opacity=".5"/><circle cx="161.69" cy="51.333" r="6" fill="#fff" opacity=".15"/><circle cx="219.75" cy="114" r="6" fill="#fff" opacity=".15"/><circle cx="115.934" cy="96" r="6" fill="#fff" opacity=".5"/></svg>