<svg xmlns="http://www.w3.org/2000/svg" viewBox="0 0 512 512"><circle cx="256" cy="256" r="256" fill="#9af4ef"/><path d="M4.117 210.478C1.463 225.259 0 240.455 0 256s1.463 30.741 4.117 45.522c56.15 21.145 150.29 35.02 256.996 35.02 100.085 0 189.083-12.214 246.083-31.176C510.319 289.388 512 272.893 512 256s-1.681-33.388-4.803-49.366c-57-18.962-145.998-31.177-246.083-31.177-106.707 0-200.846 13.876-256.997 35.021z" fill="#4cd3cb"/><path d="M451.591 90.907c-11.88 2.939-22.068 10.155-28.861 19.92-2.833-.893-5.79-1.509-8.917-1.509-16.465 0-29.813 13.347-29.813 29.813h99.743a256.334 256.334 0 0 0-32.152-48.224z" fill="#fff"/><path d="M439.349 434.576c40.389-41.462 66.8-96.552 71.735-157.736l-9.579-14.369h10.332c.053-2.158.163-4.301.163-6.471 0-6.144-.293-12.216-.719-18.251L484 196.828l-43.762 65.643h26.257l-35.01 52.515h26.257l-35.01 52.515h26.257l-35.01 52.515h26.257l-9.488 14.232c2.874.074 5.73.231 8.601.328zM59.01 367.5h26.257l-35.01-52.515h26.257l-35.01-52.515h26.257L24 196.828 1.234 230.976A259.003 259.003 0 0 0 0 256c0 2.17.11 4.313.164 6.471h6.332l-5.989 8.983C4.37 336.276 32.32 394.603 75.571 437.582l3.958.083-11.767-17.65h26.257L59.01 367.5zm103.161 21.711l-9.488 14.232c24.344.63 48.684 2.196 72.439 2.649 12.042.23 24.176.51 36.34.768l-11.767-17.65h26.257l-35.01-52.515H267.2l-35.01-52.515h26.257l-35.01-52.515h26.257l-43.762-65.643-43.762 65.643h26.257l-35.01 52.515h26.257l-35.01 52.515h26.257l-35.01 52.515 26.26.001z" fill="#00bdb3"/><path d="M259.504 389.211l-9.488 14.232c24.344.63 48.684 2.196 72.439 2.649 12.042.23 24.176.51 36.34.768l-11.767-17.65h26.257l-35.01-52.515h26.257l-35.01-52.515h26.257l-35.01-52.515h26.257l-43.762-65.643-43.762 65.643h26.257l-35.01 52.515h26.257l-35.01 52.515h26.257l-35.01 52.515 26.261.001z" fill="#00bdb3"/><path fill="#00bdb3" d="M433.871 232l-134.109-18.357L152 222.822l-42.667-8.047-59.497 30.868L85.267 367.5h265.999L433.871 264z"/><path d="M348.238 403.188l-9.488 14.232c24.344.63 48.684 2.196 72.439 2.649 12.042.23 24.176.51 36.34.768l-11.767-17.65h26.257l-35.01-52.515h26.257l-35.01-52.515h26.257l-35.01-52.515h26.257L392 180l-43.762 65.643h26.257l-35.01 52.515h26.257l-35.01 52.515h26.257l-35.01 52.515h26.259zm-282.667 0l-9.488 14.232c24.344.63 48.684 2.196 72.439 2.649 12.042.23 24.176.51 36.34.768l-11.767-17.65h26.257l-35.01-52.515H170.6l-35.01-52.515h26.257l-35.01-52.515h26.257L109.333 180l-43.762 65.643h26.257l-35.01 52.515h26.257l-35.01 52.515h26.257l-35.01 52.515h26.259z" fill="#00bdb3"/><path d="M488.29 363.593l-8.614-12.92h14.167a254.45 254.45 0 0 0 4.317-11.659l-27.237-40.856h26.257l-35.01-52.515h26.257L444.666 180l-43.762 65.643h26.257l-35.01 52.515h26.257l-35.01 52.515h26.257l-35.01 52.515h26.257l-35.01 52.515h26.257l-18.388 27.583c50.197-26.063 90.651-68.23 114.529-119.693zm-464.572 0l8.614-12.92H18.164a254.45 254.45 0 0 1-4.317-11.659l27.237-40.856H14.826l35.01-52.515H23.579L67.341 180l43.762 65.643H84.846l35.01 52.515H93.598l35.01 52.515h-26.257l35.01 52.515h-26.257l35.01 52.515h-26.257l18.388 27.583c-50.196-26.063-90.649-68.23-114.527-119.693z" fill="#00a07d"/><path d="M416.369 455.483l-11.855-17.782 26.257.001-35.01-52.515h26.257l-35.01-52.515h26.257l-35.01-52.515h26.257l-35.01-52.515h26.257L352 162l-43.762 65.643h26.257l-35.01 52.515h26.257l-35.01 52.515h26.257l-35.01 52.515h26.257l-35.01 52.515h26.257l-35.01 52.515h26.257l-13.913 20.869c52.622-4.241 100.734-24.357 139.552-55.604zm-320.806 0l11.855-17.782-26.257.001 35.01-52.515H89.914l35.01-52.515H98.666l35.01-52.515h-26.257l35.01-52.515h-26.257L159.933 162l43.762 65.643h-26.257l35.01 52.515H186.19l35.01 52.515h-26.257l35.01 52.515h-26.257l35.01 52.515h-26.257l35.01 52.515H221.2l13.913 20.869c-52.62-4.241-100.732-24.357-139.55-55.604z" fill="#36b294"/><path d="M223.953 106.162c0-14.576 11.816-26.392 26.392-26.392 2.2 0 4.303.348 6.346.855 6.887-7.437 16.651-12.166 27.586-12.166 20.823 0 37.703 16.88 37.703 37.703h-98.027z" fill="#fff"/><path d="M287.266 148.352c0-9.516 7.715-17.231 17.231-17.231 1.436 0 2.809.227 4.143.558 4.496-4.855 10.871-7.943 18.011-7.943 13.595 0 24.615 11.021 24.615 24.615h-64zM357.5 78.131c0-9.774-7.923-17.697-17.697-17.697-1.475 0-2.886.233-4.256.573-4.618-4.987-11.166-8.158-18.498-8.158-13.963 0-25.282 11.319-25.282 25.282H357.5z" fill="#fff" opacity=".6"/><path d="M237.113 99.737c-2.518 0-4.898.496-7.179 1.215-7.225-10.386-19.21-17.215-32.821-17.215s-25.596 6.829-32.821 17.215c-2.281-.719-4.661-1.215-7.179-1.215-13.255 0-24 10.745-24 24h128c0-13.255-10.745-24-24-24z" fill="#fff"/><path d="M199.248 56.398c-1.388 0-2.699.273-3.956.67-3.982-5.724-10.587-9.487-18.088-9.487s-14.106 3.763-18.088 9.487c-1.257-.396-2.569-.67-3.956-.67-7.305 0-13.227 5.922-13.227 13.227h70.542c0-7.305-5.922-13.227-13.227-13.227z" fill="#fff" opacity=".6"/><path d="M308.514 423.701l26.257.001-35.01-52.515h26.257l-35.01-52.515h26.257l-35.01-52.515h26.257l-35.01-52.515h26.257L256 148l-43.762 65.643h26.257l-35.01 52.515h26.257l-35.01 52.515h26.257l-35.01 52.515h26.257l-35.01 52.515h26.257l-35.01 52.515h26.257l-15.939 23.908C203.159 507.824 229.089 512 256 512s52.841-4.176 77.206-11.875l-15.939-23.91h26.257l-35.01-52.514z" fill="#00a07d"/><path d="M104 139.131c0-13.255-10.745-24-24-24-2.518 0-4.898.496-7.179 1.215-4.958-7.127-12.188-12.51-20.615-15.23-9.054 11.895-17.06 24.617-23.949 38.015H104z" fill="#fff" opacity=".6"/></svg>