<svg xmlns="http://www.w3.org/2000/svg" viewBox="0 0 512 512"><circle cx="256" cy="256" r="256" fill="#8dd9ff"/><path d="M483.958 234.58s-.909-.61-2.301-1.466c-1.384-.873-3.274-1.948-5.156-3.039l-5.25-2.85c-.218-.017-.657.429-.779.26a2.7 2.7 0 0 0-1.216-1.928c-.006-.007-.02-.013-.021-.02-.106-.185.498-.384.579-.588l-.247-5.969c-.151-2.17-.283-4.34-.458-5.967-.156-1.627-.303-2.711-.303-2.711a1.154 1.154 0 0 0-2.287.017s-.13 1.086-.261 2.716c-.149 1.63-.248 3.802-.365 5.974l-.154 5.972c.082.198.641.383.576.565a2.7 2.7 0 0 0-1.234 1.94c-.123.169-.561-.276-.779-.26l-5.25 2.85c-1.882 1.091-3.772 2.166-5.156 3.039-1.392.856-2.301 1.466-2.301 1.466a1.154 1.154 0 0 0 1.023 2.046s1.033-.361 2.554-.961c1.529-.583 3.522-1.451 5.524-2.302l5.43-2.491c.13-.149.088-.626.231-.72.052.032.096.073.15.102l-.578 28.459h-.977l-.652 20.607h6.956l-.652-20.607h-.977l-.578-28.459c.054-.029.099-.07.15-.102.142.094.101.571.231.72l5.43 2.491c2.002.851 3.996 1.718 5.524 2.302 1.521.6 2.554.961 2.554.961a1.153 1.153 0 0 0 1.02-2.047zm-69.618 19.846s-.73-.49-1.849-1.177c-1.112-.701-2.63-1.565-4.142-2.441l-4.218-2.289c-.175-.013-.528.344-.626.209a2.17 2.17 0 0 0-.977-1.549s-.016-.011-.017-.016c-.085-.148.4-.309.465-.473l-.198-4.795c-.121-1.743-.228-3.486-.368-4.793-.125-1.307-.244-2.178-.244-2.178a.926.926 0 0 0-1.838.015s-.105.873-.21 2.182c-.12 1.309-.199 3.054-.293 4.799l-.124 4.797c.066.159.515.308.463.454a2.171 2.171 0 0 0-.992 1.558c-.098.136-.451-.222-.626-.209l-4.218 2.289c-1.512.876-3.03 1.74-4.142 2.441a64.014 64.014 0 0 0-1.849 1.177.927.927 0 0 0 .822 1.643s.83-.29 2.051-.772c1.228-.469 2.83-1.165 4.438-1.849l4.362-2.001c.105-.12.071-.503.186-.578.042.026.077.059.121.082l-.464 22.861h-.785l-.524 16.554h5.588l-.524-16.554h-.785l-.464-22.861c.044-.023.079-.056.121-.082.114.075.081.459.186.578l4.362 2.001c1.608.684 3.21 1.38 4.438 1.849 1.221.482 2.051.772 2.051.772a.926.926 0 0 0 .823-1.644zm-67.811 15.921s-.521-.35-1.32-.84c-.794-.501-1.878-1.117-2.957-1.742l-3.011-1.634c-.125-.01-.377.246-.447.149a1.547 1.547 0 0 0-.697-1.105c-.003-.004-.011-.008-.012-.011-.061-.106.285-.22.332-.337l-.142-3.423c-.087-1.244-.162-2.488-.263-3.421a42.57 42.57 0 0 0-.174-1.555.66.66 0 0 0-1.311.01s-.075.623-.15 1.557c-.086.935-.142 2.18-.209 3.425l-.088 3.424c.047.113.367.22.33.324a1.549 1.549 0 0 0-.708 1.112c-.07.097-.322-.158-.447-.149l-3.011 1.634c-1.079.625-2.163 1.242-2.957 1.742-.798.491-1.32.84-1.32.84a.661.661 0 0 0 .586 1.173s.592-.207 1.464-.551c.877-.335 2.02-.832 3.168-1.32l3.114-1.428c.075-.085.05-.359.132-.413.03.018.055.042.086.058l-.331 16.318h-.56L335.255 296h3.988l-.374-11.816h-.56l-.331-16.318c.031-.017.057-.04.086-.058.081.054.058.327.132.413l3.114 1.428c1.148.488 2.291.985 3.168 1.32.872.344 1.464.551 1.464.551a.66.66 0 0 0 .587-1.173z" fill="#fff"/><path d="M174.894 256.664s-.521-.35-1.32-.84c-.794-.501-1.878-1.117-2.957-1.742l-3.011-1.634c-.125-.01-.377.246-.447.149a1.547 1.547 0 0 0-.697-1.105c-.003-.004-.011-.008-.011-.008-.062-.11.284-.224.331-.341l-.142-3.423c-.087-1.244-.162-2.488-.263-3.421a42.57 42.57 0 0 0-.174-1.555.66.66 0 0 0-1.311.01s-.075.623-.15 1.557c-.086.935-.142 2.18-.209 3.425l-.088 3.424c.047.113.367.22.33.324a1.549 1.549 0 0 0-.708 1.112c-.07.097-.322-.158-.447-.149l-3.011 1.634c-1.079.625-2.163 1.242-2.957 1.742-.798.491-1.32.84-1.32.84a.661.661 0 0 0 .586 1.173s.592-.207 1.464-.551c.877-.335 2.02-.832 3.168-1.32l3.114-1.428c.075-.085.05-.359.132-.413.03.018.055.042.086.058l-.331 16.318h-.56l-.374 11.816h3.988l-.374-11.816h-.56l-.331-16.318c.031-.017.057-.04.086-.058.081.054.058.327.132.413l3.114 1.428c1.148.488 2.291.985 3.168 1.32.872.344 1.464.551 1.464.551a.66.66 0 0 0 .842-.406.656.656 0 0 0-.252-.766zm41.867 12.489s-.521-.35-1.32-.84c-.794-.501-1.877-1.117-2.957-1.742l-3.011-1.634c-.125-.01-.377.246-.447.149a1.547 1.547 0 0 0-.697-1.105c-.003-.004-.011-.008-.012-.011-.061-.106.285-.22.332-.337l-.142-3.423c-.087-1.244-.162-2.488-.263-3.421a42.57 42.57 0 0 0-.174-1.555.66.66 0 0 0-1.311.01s-.075.623-.15 1.557c-.086.935-.142 2.18-.209 3.425l-.088 3.424c.047.113.367.22.33.324a1.549 1.549 0 0 0-.708 1.112c-.07.097-.322-.158-.447-.149l-3.011 1.634c-1.079.625-2.163 1.242-2.957 1.742-.798.491-1.32.84-1.32.84a.661.661 0 0 0 .586 1.173s.592-.207 1.464-.551c.877-.335 2.02-.832 3.168-1.32l3.114-1.428c.075-.085.05-.359.132-.413.03.018.055.042.086.058l-.331 16.318h-.56l-.374 11.816h3.988l-.374-11.816h-.56l-.331-16.318c.031-.017.057-.04.086-.058.081.054.058.327.132.413l3.114 1.428c1.148.488 2.291.985 3.168 1.32.872.344 1.464.551 1.464.551a.66.66 0 0 0 .842-.406.655.655 0 0 0-.252-.767z" fill="#74ff9e"/><path d="M216.761 270.347s-.521-.35-1.32-.84c-.794-.501-1.878-1.117-2.957-1.742l-3.011-1.634c-.125-.01-.377.246-.447.149a1.547 1.547 0 0 0-.697-1.105c-.003-.004-.011-.008-.012-.011-.061-.106.285-.22.332-.337l-.142-3.423c-.087-1.244-.162-2.488-.263-3.421a42.57 42.57 0 0 0-.174-1.555.66.66 0 0 0-1.311.01s-.075.623-.15 1.557c-.086.935-.142 2.18-.209 3.425l-.088 3.424c.047.113.367.22.33.324a1.549 1.549 0 0 0-.708 1.112c-.07.097-.322-.158-.447-.149l-3.011 1.634c-1.079.625-2.163 1.242-2.957 1.742-.798.491-1.32.84-1.32.84a.661.661 0 0 0 .586 1.173s.592-.207 1.464-.551c.877-.335 2.02-.832 3.168-1.32l3.114-1.428c.075-.085.05-.359.132-.413.03.018.055.042.086.058l-.331 16.318h-.56L205.487 296h3.988l-.374-11.816h-.56l-.331-16.318c.031-.017.057-.04.086-.058.081.054.058.327.132.413l3.114 1.428c1.148.488 2.291.985 3.168 1.32.872.344 1.464.551 1.464.551a.66.66 0 0 0 .587-1.173zM70.897 227.255s-.687-.461-1.739-1.107c-1.046-.66-2.474-1.472-3.896-2.296l-3.967-2.153c-.165-.013-.496.324-.589.196a2.037 2.037 0 0 0-.919-1.456c-.004-.005-.015-.01-.016-.015-.08-.139.376-.29.438-.445l-.187-4.51c-.114-1.639-.214-3.279-.346-4.508-.118-1.23-.229-2.049-.229-2.049a.871.871 0 0 0-1.728.014s-.098.821-.197 2.052c-.113 1.231-.187 2.872-.276 4.513l-.117 4.512c.062.149.484.29.435.427-.506.324-.85.843-.933 1.466-.093.128-.424-.209-.589-.196l-3.967 2.153c-1.422.824-2.85 1.636-3.896 2.296a59.113 59.113 0 0 0-1.739 1.107.873.873 0 0 0 .773 1.546s.781-.273 1.929-.726c1.155-.441 2.661-1.096 4.174-1.739l4.103-1.882c.098-.113.066-.473.174-.544.039.024.073.055.114.077l-.436 21.501h-.738l-.493 15.569h5.255l-.493-15.569h-.738l-.436-21.501c.041-.022.075-.053.114-.077.107.071.076.431.174.544l4.103 1.882c1.512.643 3.019 1.298 4.174 1.739 1.149.453 1.929.726 1.929.726a.871.871 0 1 0 .775-1.547zm55.036 18.368s-.567-.381-1.436-.915c-.864-.545-2.043-1.215-3.217-1.896l-3.276-1.778c-.136-.01-.41.268-.486.162a1.686 1.686 0 0 0-.759-1.203c-.004-.004-.012-.008-.012-.008-.067-.119.31-.244.36-.371l-.154-3.725c-.094-1.354-.177-2.708-.286-3.723-.097-1.015-.189-1.692-.189-1.692a.719.719 0 0 0-1.427.011s-.081.678-.163 1.695c-.093 1.017-.155 2.372-.228 3.727l-.096 3.726c.051.123.4.239.36.352a1.684 1.684 0 0 0-.77 1.21c-.076.105-.35-.172-.486-.162l-3.276 1.778c-1.174.681-2.354 1.351-3.217 1.896-.869.534-1.436.915-1.436.915a.72.72 0 0 0 .638 1.276s.645-.225 1.593-.6c.954-.364 2.198-.905 3.447-1.436l3.388-1.554c.081-.093.055-.391.144-.449.032.02.06.046.094.063l-.36 17.757h-.61l-.407 12.858h4.34l-.407-12.858h-.61l-.36-17.757c.034-.018.062-.044.094-.063.089.059.063.356.144.449l3.388 1.554c1.249.531 2.493 1.072 3.447 1.436.949.374 1.593.6 1.593.6a.719.719 0 0 0 .638-1.275z" fill="#74ff9e"/><path d="M220.4 397.693L320 296C212.804 296 151.297 249.324.201 248.06.12 250.703 0 253.337 0 256c0 49.319 13.98 95.358 38.145 134.434 52.827 2.363 182.255 7.259 182.255 7.259z" fill="#53dc92"/><path d="M.201 248.06c-.005.155-.007.311-.012.466 136.875 9.013 169.893 52 231.811 60.839 0 0 44 5.635 72 2.971L320 296C212.804 296 151.297 249.324.201 248.06z" fill="#74ff9e"/><path d="M365.952 487.223c81.798-38.967 139.62-120.05 145.499-215.209-139.652.151-330.258 58.971-471.33 58.971.001 0 269.626 131.938 325.831 156.238z" fill="#52c883"/><path d="M58 334.185c35.36 13.495 288.64-29.409 449.598-31.593 1.843-10.014 3.212-20.193 3.854-30.579-132.449.144-310.653 52.967-449.041 58.426L58 334.185z" fill="#6bee97"/><path d="M141.747 201.017l-.698-16.83c-.425-6.118-.799-12.237-1.292-16.825-.439-4.588-.855-7.645-.855-7.645a3.25 3.25 0 0 0-6.449.05s-.368 3.064-.736 7.658c-.421 4.595-.7 10.718-1.03 16.843l-.436 16.838c.239.572 1.95 1.109 1.658 1.634-.007.04-.091.078-.121.117 2.843-.285 5.716-.307 8.566.047-.095-.076-.227-.151-.242-.228-.297-.521 1.405-1.084 1.635-1.659z" fill="#fff"/><path fill="#fffce5" d="M141.243 297.686h-10.486l1.748-86.051h6.99z"/><path fill="#e9dcb8" d="M145.806 354.317h-19.612l1.838-58.102h15.936z"/><path d="M128.459 208.009c-.022.044-.018.137-.05.161-.336.499-1.591-.782-2.209-.735l-14.804 8.035c-5.306 3.076-10.636 6.105-14.538 8.567-3.926 2.414-6.488 4.133-6.488 4.133a3.25 3.25 0 0 0 2.884 5.768s2.913-1.019 7.2-2.711c4.311-1.644 9.932-4.09 15.576-6.49l15.311-7.022c.408-.466.137-2.239.737-2.208.076-.022.203.062.313.112-1.609-2.377-2.895-4.948-3.932-7.61zm15.082 0c.022.044.018.137.05.161.336.499 1.591-.782 2.209-.735l14.804 8.035c5.306 3.076 10.636 6.105 14.538 8.567a214.705 214.705 0 0 1 6.488 4.133 3.25 3.25 0 0 1-2.884 5.768s-2.913-1.019-7.2-2.711c-4.311-1.644-9.932-4.09-15.576-6.49l-15.311-7.022c-.408-.466-.137-2.239-.737-2.208-.076-.022-.203.062-.313.112 1.609-2.377 2.895-4.948 3.932-7.61z" fill="#fff"/><circle cx="136" cy="209.154" r="7.801" fill="#e9dcb8"/><path d="M256 512c68.661 0 130.958-27.083 176.932-71.083-130.747-3.993-314.506-116.498-425.064-121.77C35.991 429.99 136.41 512 256 512z" fill="#43ab5f"/><path d="M432.932 440.917c-130.747-3.993-314.506-116.498-425.064-121.77 107.959 8.741 244.774 129.851 358.007 168.05a256.968 256.968 0 0 0 67.057-46.28z" fill="#34be69"/><path d="M263.814 166.563l-.948-22.883c-.578-8.319-1.086-16.638-1.756-22.876-.597-6.238-1.162-10.395-1.162-10.395a4.42 4.42 0 0 0-8.769.068s-.5 4.166-1 10.412c-.573 6.247-.952 14.573-1.4 22.9l-.592 22.894c.324.778 2.651 1.508 2.254 2.222-.01.054-.124.106-.164.16 3.866-.387 7.772-.417 11.647.064-.129-.103-.309-.205-.33-.31-.407-.707 1.907-1.473 2.22-2.256z" fill="#fff"/><path fill="#fffce5" d="M263.129 298h-14.258l2.377-117h9.504z"/><path fill="#e9dcb8" d="M269.333 375h-26.666l2.5-79h21.666z"/><path d="M245.746 176.071c-.029.06-.024.186-.067.219-.457.678-2.163-1.063-3.004-.999l-20.128 10.925c-7.215 4.182-14.461 8.301-19.767 11.648-5.338 3.283-8.822 5.62-8.822 5.62a4.42 4.42 0 0 0 3.922 7.843s3.96-1.385 9.789-3.686c5.861-2.236 13.504-5.561 21.178-8.824l20.817-9.547c.555-.634.186-3.044 1.002-3.003.103-.029.276.085.426.153-2.187-3.235-3.935-6.73-5.346-10.349zm20.508 0c.029.06.024.186.067.219.457.678 2.163-1.063 3.004-.999l20.128 10.925c7.215 4.182 14.461 8.301 19.767 11.648 5.338 3.283 8.822 5.62 8.822 5.62a4.42 4.42 0 0 1-3.922 7.843s-3.96-1.385-9.789-3.686c-5.861-2.236-13.504-5.561-21.178-8.824l-20.817-9.547c-.555-.634-.186-3.044-1.002-3.003-.103-.029-.276.085-.426.153 2.187-3.235 3.935-6.73 5.346-10.349z" fill="#fff"/><circle cx="256" cy="177.627" r="10.607" fill="#e9dcb8"/><path d="M381.747 201.017l-.698-16.83c-.425-6.118-.799-12.237-1.292-16.825-.439-4.588-.855-7.645-.855-7.645a3.25 3.25 0 0 0-6.449.05s-.368 3.064-.736 7.658c-.421 4.595-.7 10.718-1.03 16.843l-.436 16.838c.239.572 1.95 1.109 1.658 1.634-.007.04-.091.078-.121.117 2.843-.285 5.716-.307 8.566.047-.095-.076-.227-.151-.242-.228-.297-.521 1.405-1.084 1.635-1.659z" fill="#fff"/><path fill="#fffce5" d="M381.243 297.686h-10.486l1.748-86.051h6.99z"/><path fill="#e9dcb8" d="M385.806 354.317h-19.612l1.838-58.102h15.936z"/><path d="M368.459 208.009c-.022.044-.018.137-.05.161-.336.499-1.591-.782-2.209-.735l-14.804 8.035c-5.306 3.076-10.636 6.105-14.538 8.567-3.926 2.414-6.488 4.133-6.488 4.133a3.25 3.25 0 0 0 2.884 5.768s2.913-1.019 7.2-2.711c4.311-1.644 9.932-4.09 15.576-6.49l15.311-7.022c.408-.466.137-2.239.737-2.208.076-.022.203.062.313.112-1.609-2.377-2.895-4.948-3.932-7.61zm15.082 0c.022.044.018.137.05.161.336.499 1.591-.782 2.209-.735l14.804 8.035c5.306 3.076 10.636 6.105 14.538 8.567a214.705 214.705 0 0 1 6.488 4.133 3.25 3.25 0 0 1-2.884 5.768s-2.913-1.019-7.2-2.711c-4.311-1.644-9.932-4.09-15.576-6.49l-15.311-7.022c-.408-.466-.137-2.239-.737-2.208-.076-.022-.203.062-.313.112 1.609-2.377 2.895-4.948 3.932-7.61z" fill="#fff"/><circle cx="376" cy="209.154" r="7.801" fill="#e9dcb8"/><circle cx="66.667" cy="369.435" r="6.667" fill="#34be69"/><circle cx="156.042" cy="456.052" r="6.667" fill="#34be69"/><circle cx="256" cy="476.667" r="6.667" fill="#34be69"/><circle cx="145.806" cy="407.986" r="6.667" fill="#34be69"/><circle cx="98.752" cy="397.693" r="6.667" fill="#52c883"/><circle cx="118.752" cy="442" r="6.667" fill="#52c883"/><circle cx="194.148" cy="435.333" r="6.667" fill="#52c883"/><circle cx="357.327" cy="451.667" r="6.667" fill="#52c883"/><circle cx="282.453" cy="427.986" r="6.667" fill="#52c883"/><circle cx="315.333" cy="445" r="6.667" fill="#43ab5f"/><circle cx="207.482" cy="473.863" r="6.667" fill="#52c883"/><path d="M289.193 67.987c-2.09 0-4.064.411-5.957 1.008C277.24 60.376 267.295 54.71 256 54.71s-21.24 5.667-27.236 14.285c-1.893-.597-3.868-1.008-5.957-1.008-10.999 0-19.916 8.917-19.916 19.916h106.218c0-11-8.917-19.916-19.916-19.916zm-165.532 82.805c-1.295 0-2.518.255-3.691.625-3.715-5.34-9.876-8.85-16.874-8.85-6.997 0-13.159 3.511-16.874 8.85-1.173-.37-2.396-.625-3.691-.625-6.814 0-12.339 5.524-12.339 12.339H136c0-6.815-5.524-12.339-12.339-12.339z" fill="#fff" opacity=".6"/><path d="M337.356 152.718c-1.093 0-2.125.215-3.115.527-3.135-4.506-8.335-7.469-14.241-7.469s-11.106 2.963-14.241 7.469c-.99-.312-2.022-.527-3.115-.527-5.751 0-10.413 4.662-10.413 10.413h55.538c0-5.751-4.662-10.413-10.413-10.413zm-215.847-44.17c0-15.963 12.941-28.903 28.903-28.903 2.409 0 4.713.381 6.95.936 7.542-8.145 18.235-13.324 30.211-13.324 22.804 0 41.29 18.486 41.29 41.29H121.509z" fill="#fff"/><path d="M165.614 177.164c0-6.212 5.036-11.248 11.248-11.248.938 0 1.834.148 2.705.364 2.935-3.17 7.096-5.185 11.757-5.185 8.874 0 16.068 7.194 16.068 16.068h-41.778zm226.758-55.889c-9.158 0-16.582 7.424-16.582 16.582h61.591c0-13.083-10.606-23.689-23.689-23.689-2.869 0-5.562.621-8.095 1.564-1.587-3.392-4.977-5.777-8.97-5.777-1.044 0-2.032.206-2.979.504-2.998-4.31-7.971-7.143-13.618-7.143s-10.621 2.833-13.618 7.143c-.946-.298-1.934-.504-2.979-.504-5.5 0-9.958 4.458-9.958 9.958H398.5c-.727.62-1.492 1.198-2.141 1.899-1.283-.319-2.604-.537-3.987-.537z" fill="#fff" opacity=".6"/></svg>